{
.appVersion = "895";
DisplayStrings = (
"0123456789:;<=>?@ABCDEFGHIJKLMNOPQRSTUVWXYZ[/backslash ]^_`abcdefghijklmnopqrstuvwxyz",
/zerokayahli/onekayahli/twokayahli/threekayahli/fourkayahli/fivekayahli/sixkayahli/sevenkayahli/eightkayahli/ninekayahli/kakayahli/khakayahli/gakayahli/ngakayahli/sakayahli/shakayahli/zakayahli/nyakayahli/takayahli/htakayahli/nakayahli/pakayahli/phakayahli/makayahli/dakayahli/bakayahli/rakayahli/yakayahli/lakayahli/wakayahli/thakayahli/hakayahli/vakayahli/cakayahli/akayahli/oekayahli/ikayahli/ookayahli,
Hh
);
copyright = "Copyright 2009, 2010, 2011 by Daniel Johnson.  Released under the terms of the Open Font License.";
customParameters = (
{
name = glyphOrder;
value = (
.notdef,
space,
exclam,
quotedbl,
numbersign,
dollar,
percent,
ampersand,
quotesingle,
parenleft,
parenright,
asterisk,
plus,
comma,
hyphen,
period,
slash,
zero,
one,
two,
three,
four,
five,
six,
seven,
eight,
nine,
colon,
semicolon,
less,
equal,
greater,
question,
at,
A,
B,
C,
D,
E,
F,
G,
H,
I,
J,
K,
L,
M,
N,
O,
P,
Q,
R,
S,
T,
U,
V,
W,
X,
Y,
Z,
bracketleft,
backslash,
bracketright,
asciicircum,
underscore,
grave,
a,
b,
c,
d,
e,
f,
g,
h,
i,
j,
k,
l,
m,
n,
o,
p,
q,
r,
s,
t,
u,
v,
w,
x,
y,
z,
braceleft,
bar,
braceright,
asciitilde,
exclamdown,
cent,
sterling,
currency,
yen,
brokenbar,
section,
dieresis,
copyright,
ordfeminine,
guillemotleft,
logicalnot,
uni00AD,
registered,
macron,
degree,
plusminus,
twosuperior,
threesuperior,
acute,
uni00B5,
paragraph,
periodcentered,
cedilla,
onesuperior,
ordmasculine,
guillemotright,
onequarter,
onehalf,
threequarters,
questiondown,
Agrave,
Aacute,
Acircumflex,
Atilde,
Adieresis,
Aring,
AE,
Ccedilla,
Egrave,
Eacute,
Ecircumflex,
Edieresis,
Igrave,
Iacute,
Icircumflex,
Idieresis,
Eth,
Ntilde,
Ograve,
Oacute,
Ocircumflex,
Otilde,
Odieresis,
multiply,
Oslash,
Ugrave,
Uacute,
Ucircumflex,
Udieresis,
Yacute,
Thorn,
germandbls,
agrave,
aacute,
acircumflex,
atilde,
adieresis,
aring,
ae,
ccedilla,
egrave,
eacute,
ecircumflex,
edieresis,

glyphs = (
{
glyphname = .notdef;
lastChange = "2016-07-15 21:22:19 +0000";
layers = (
{
layerId = "C40088C9-C375-45DB-8BB9-703F8F681F6F";
paths = (
{
closed = 1;
nodes = (
"453 0 LINE",
"453 678 LINE",
"85 678 LINE",
"85 0 LINE"
);
},
{
closed = 1;
nodes = (
"168.667 71 OFFCURVE",
"156 87.333 OFFCURVE",
"156 130 CURVE SMOOTH",
"156 546 LINE SMOOTH",
"156 588.667 OFFCURVE",
"168.667 606 OFFCURVE",
"210 606 CURVE SMOOTH",
"328 606 LINE SMOOTH",
"369.333 606 OFFCURVE",
"382 588.667 OFFCURVE",
"382 546 CURVE SMOOTH",
"382 130 LINE SMOOTH",
"382 87.333 OFFCURVE",
"369.333 71 OFFCURVE",
"328 71 CURVE SMOOTH",
"210 71 LINE SMOOTH"
);
}
);
width = 538;
},
{
layerId = "08BB1446-875F-4786-BB83-45BCD1FA68FA";
paths = (
{
closed = 1;
nodes = (
"453 0 LINE",
"453 678 LINE",
"85 678 LINE",
"85 0 LINE"
);
},
{
closed = 1;
nodes = (
"168.667 71 OFFCURVE",
"156 87.333 OFFCURVE",
"156 130 CURVE SMOOTH",
"156 546 LINE SMOOTH",
"156 588.667 OFFCURVE",
"168.667 606 OFFCURVE",
"210 606 CURVE SMOOTH",
"328 606 LINE SMOOTH",
"369.333 606 OFFCURVE",
"382 588.667 OFFCURVE",
"382 546 CURVE SMOOTH",
"382 130 LINE SMOOTH",
"382 87.333 OFFCURVE",
"369.333 71 OFFCURVE",
"328 71 CURVE SMOOTH",
"210 71 LINE SMOOTH"
);
}
);
width = 538;
},
{
layerId = "260E7E84-60BE-47D3-B29C-27583EB1270C";
paths = (
{
closed = 1;
nodes = (
"453 0 LINE",
"453 678 LINE",
"85 678 LINE",
"85 0 LINE"
);
},
{
closed = 1;
nodes = (
"168.667 71 OFFCURVE",
"156 87.333 OFFCURVE",
"156 130 CURVE SMOOTH",
"156 546 LINE SMOOTH",
"156 588.667 OFFCURVE",
"168.667 606 OFFCURVE",
"210 606 CURVE SMOOTH",
"328 606 LINE SMOOTH",
"369.333 606 OFFCURVE",
"382 588.667 OFFCURVE",
"382 546 CURVE SMOOTH",
"382 130 LINE SMOOTH",
"382 87.333 OFFCURVE",
"369.333 71 OFFCURVE",
"328 71 CURVE SMOOTH",
"210 71 LINE SMOOTH"
);
}
);
width = 538;
}
);
},
{
glyphname = exclam;
lastChange = "2016-07-15 21:22:19 +0000";
layers = (
{
layerId = "C40088C9-C375-45DB-8BB9-703F8F681F6F";
paths = (
{
closed = 1;
nodes = (
"96 159.667 OFFCURVE",
"138 159.667 OFFCURVE",
"138 197 CURVE SMOOTH",
"138 616 LINE SMOOTH",
"138 653.333 OFFCURVE",
"96 653.333 OFFCURVE",
"96 616 CURVE SMOOTH",
"96 197 LINE SMOOTH"
);
},
{
closed = 1;
nodes = (
"122.601 -31.516 OFFCURVE",
"195.879 24.261 OFFCURVE",
"149 54 CURVE",
"114.676 89.516 OFFCURVE",
"37.843 33.739 OFFCURVE",
"86.5 4 CURVE"
);
}
);
width = 234;
},
{
layerId = "08BB1446-875F-4786-BB83-45BCD1FA68FA";
paths = (
{
closed = 1;
nodes = (
"154 154 OFFCURVE",
"166 168.333 OFFCURVE",
"166 197 CURVE SMOOTH",
"166 616 LINE SMOOTH",
"166 674.039 OFFCURVE",
"94 674.039 OFFCURVE",
"94 616 CURVE SMOOTH",
"94 197 LINE SMOOTH",
"94 168.333 OFFCURVE",
"106 154 OFFCURVE",
"130 154 CURVE SMOOTH"
);
},
{
closed = 1;
nodes = (
"235.114 40.016 OFFCURVE",
"133.837 113.072 OFFCURVE",
"89.5 65.5 CURVE",
"25.288 20.261 OFFCURVE",
"126.565 -56.35 OFFCURVE",
"172 -7 CURVE"
);
}
);
width = 260;
},
{
layerId = "260E7E84-60BE-47D3-B29C-27583EB1270C";
paths = (
{
closed = 1;
nodes = (
"96 159.667 OFFCURVE",
"138 159.667 OFFCURVE",
"138 197 CURVE SMOOTH",
"138 616 LINE SMOOTH",
"138 653.333 OFFCURVE",
"96 653.333 OFFCURVE",
"96 616 CURVE SMOOTH",
"96 197 LINE SMOOTH"
);
},
{
closed = 1;
nodes = (
"122.601 -31.516 OFFCURVE",
"195.879 24.261 OFFCURVE",
"149 54 CURVE",
"114.676 89.516 OFFCURVE",
"37.843 33.739 OFFCURVE",
"86.5 4 CURVE"
);
}
);
width = 234;
}
);
unicode = 0021;
},
{
glyphname = quotedbl;
lastChange = "2016-07-15 21:22:19 +0000";
layers = (
{
layerId = "C40088C9-C375-45DB-8BB9-703F8F681F6F";
paths = (
{
closed = 1;
nodes = (
"172 428.667 OFFCURVE",
"214 428.667 OFFCURVE",
"214 466 CURVE SMOOTH",
"214 615 LINE SMOOTH",
"214 652.333 OFFCURVE",
"172 652.333 OFFCURVE",
"172 615 CURVE SMOOTH",
"172 466 LINE SMOOTH"
);
},
{
closed = 1;
nodes = (
"72.333 428.667 OFFCURVE",
"112 428.667 OFFCURVE",
"112 466 CURVE SMOOTH",
"112 615 LINE SMOOTH",
"112 652.333 OFFCURVE",
"72.333 652.333 OFFCURVE",
"71 615 CURVE",
"71 466 LINE"
);
}
);
width = 285;
},
{
layerId = "08BB1446-875F-4786-BB83-45BCD1FA68FA";
paths = (
{
closed = 1;
nodes = (
"232 423 OFFCURVE",
"244 437.333 OFFCURVE",
"244 466 CURVE SMOOTH",
"244 615 LINE SMOOTH",
"244 673.039 OFFCURVE",
"172 673.039 OFFCURVE",
"172 615 CURVE SMOOTH",
"172 466 LINE SMOOTH",
"172 437.333 OFFCURVE",
"184 423 OFFCURVE",
"208 423 CURVE SMOOTH"
);
},
{
closed = 1;
nodes = (
"124.667 423 OFFCURVE",
"142 435.333 OFFCURVE",
"142 466 CURVE SMOOTH",
"142 615 LINE SMOOTH",
"142 643.667 OFFCURVE",
"130.333 658 OFFCURVE",
"107 658 CURVE SMOOTH",
"88.333 658 OFFCURVE",
"71 645.667 OFFCURVE",
"71 615 CURVE SMOOTH",
"71 466 LINE SMOOTH",
"71 437.333 OFFCURVE",
"82.667 423 OFFCURVE",
"106 423 CURVE SMOOTH"
);
}
);
width = 314;
},
{
layerId = "260E7E84-60BE-47D3-B29C-27583EB1270C";
paths = (
{
closed = 1;
nodes = (
"172 428.667 OFFCURVE",
"214 428.667 OFFCURVE",
"214 466 CURVE SMOOTH",
"214 615 LINE SMOOTH",
"214 652.333 OFFCURVE",
"172 652.333 OFFCURVE",
"172 615 CURVE SMOOTH",
"172 466 LINE SMOOTH"
);
},
{
closed = 1;
nodes = (
"72.333 428.667 OFFCURVE",
"112 428.667 OFFCURVE",
"112 466 CURVE SMOOTH",
"112 615 LINE SMOOTH",
"112 652.333 OFFCURVE",
"72.333 652.333 OFFCURVE",
"71 615 CURVE",
"71 466 LINE"
);
}
);
width = 285;
}
);
unicode = 0022;
},
{
glyphname = numbersign;
lastChange = "2016-07-15 21:22:19 +0000";
layers = (
{
layerId = "C40088C9-C375-45DB-8BB9-703F8F681F6F";
paths = (
{
closed = 1;
nodes = (
"115 11 OFFCURVE",
"122.333 18 OFFCURVE",
"127 32 CURVE SMOOTH",
"190 205 LINE",
"325 205 LINE",
"266 46 LINE SMOOTH",
"264 40.667 OFFCURVE",
"263 36 OFFCURVE",
"263 32 CURVE SMOOTH",
"263 18 OFFCURVE",
"270 11 OFFCURVE",
"284 11 CURVE SMOOTH",
"294 11 OFFCURVE",
"301.333 18 OFFCURVE",
"306 32 CURVE SMOOTH",
"370 205 LINE",
"491 205 LINE SMOOTH",
"528.333 205 OFFCURVE",
"528.333 247 OFFCURVE",
"491 247 CURVE SMOOTH",
"385 247 LINE",
"436 389 LINE",
"522 389 LINE SMOOTH",
"559.333 389 OFFCURVE",
"559.333 431 OFFCURVE",
"522 431 CURVE SMOOTH",
"452 431 LINE",
"510 590 LINE SMOOTH",
"514 600.667 OFFCURVE",
"515 612 OFFCURVE",
"507 620 CURVE SMOOTH",
"503.667 623.333 OFFCURVE",
"499.667 625 OFFCURVE",
"495 625 CURVE",
"493.667 625 OFFCURVE",
"492.667 625 OFFCURVE",
"492 625 CURVE",
"482.667 625 OFFCURVE",
"475.333 618 OFFCURVE",
"470 604 CURVE SMOOTH",
"406 431 LINE",
"272 431 LINE",
"331 590 LINE SMOOTH",
"333 596 OFFCURVE",
"334 601 OFFCURVE",
"334 605 CURVE SMOOTH",
"334 618.333 OFFCURVE",
"327 625 OFFCURVE",
"313 625 CURVE SMOOTH",
"303.667 625 OFFCURVE",
"296.667 618 OFFCURVE",
"292 604 CURVE SMOOTH",
"228 431 LINE",
"103 431 LINE SMOOTH",
"67 431 OFFCURVE",
"67 389 OFFCURVE",
"103 389 CURVE SMOOTH",
"213 389 LINE",
"162 247 LINE",
"73 247 LINE SMOOTH",
"35.667 247 OFFCURVE",
"35.667 205 OFFCURVE",
"73 205 CURVE SMOOTH",
"146 205 LINE",
"88 46 LINE SMOOTH",
"86 40 OFFCURVE",
"85 35 OFFCURVE",
"85 31 CURVE SMOOTH",
"85 17.667 OFFCURVE",
"91.667 11 OFFCURVE",
"105 11 CURVE SMOOTH"
);
},
{
closed = 1;
nodes = (
"257 389 LINE",
"391 389 LINE",
"340 247 LINE",
"206 247 LINE"
);
}
);
width = 595;
},
{
layerId = "08BB1446-875F-4786-BB83-45BCD1FA68FA";
paths = (
{
closed = 1;
nodes = (
"106.333 -7.167 OFFCURVE",
"136.333 -14 OFFCURVE",
"155 26 CURVE",
"214 190 LINE",
"317 190 LINE",
"264 52 LINE",
"260 36 OFFCURVE",
"257.833 19.333 OFFCURVE",
"270.5 6 CURVE SMOOTH",
"283.167 -7.333 OFFCURVE",
"315.333 -14 OFFCURVE",
"334 26 CURVE",
"393 190 LINE",
"504 190 LINE SMOOTH",
"532.667 190 OFFCURVE",
"547 202 OFFCURVE",
"547 226 CURVE SMOOTH",
"547 250 OFFCURVE",
"532.667 262 OFFCURVE",
"504 262 CURVE SMOOTH",
"419 262 LINE",
"460 374 LINE",
"535 374 LINE SMOOTH",
"593.039 374 OFFCURVE",
"593.039 446 OFFCURVE",
"535 446 CURVE SMOOTH",
"486 446 LINE",
"538 584 LINE",
"542.694 602.776 OFFCURVE",
"543.045 640 OFFCURVE",
"505 640 CURVE SMOOTH",
"488.333 640 OFFCURVE",
"476 630 OFFCURVE",
"468 610 CURVE",
"409 446 LINE",
"306 446 LINE",
"359 585 LINE SMOOTH",
"365.946 601.206 OFFCURVE",
"362.243 640 OFFCURVE",
"326 640 CURVE SMOOTH",
"308.667 640 OFFCURVE",
"296.667 630 OFFCURVE",
"290 610 CURVE SMOOTH",
"231 446 LINE",
"116 446 LINE SMOOTH",
"85.333 446 OFFCURVE",
"74 429.667 OFFCURVE",
"74 411 CURVE SMOOTH",
"74 386.333 OFFCURVE",
"88 374 OFFCURVE",
"116 374 CURVE SMOOTH",
"205 374 LINE",
"164 262 LINE",
"86 262 LINE SMOOTH",
"27.961 262 OFFCURVE",
"27.961 190 OFFCURVE",
"86 190 CURVE SMOOTH",
"138 190 LINE",
"86 51 LINE",
"82 35 OFFCURVE",
"79.667 18.167 OFFCURVE",
"93 5.5 CURVE SMOOTH"
);
},
{
closed = 1;
nodes = (
"281 374 LINE",
"383 374 LINE",
"342 262 LINE",
"240 262 LINE"
);
}
);
width = 622;
},
{
layerId = "260E7E84-60BE-47D3-B29C-27583EB1270C";
paths = (
{
closed = 1;
nodes = (
"115 11 OFFCURVE",
"122.333 18 OFFCURVE",
"127 32 CURVE SMOOTH",
"190 205 LINE",
"325 205 LINE",
"266 46 LINE SMOOTH",
"264 40.667 OFFCURVE",
"263 36 OFFCURVE",
"263 32 CURVE SMOOTH",
"263 18 OFFCURVE",
"270 11 OFFCURVE",
"284 11 CURVE SMOOTH",
"294 11 OFFCURVE",
"301.333 18 OFFCURVE",
"306 32 CURVE SMOOTH",
"370 205 LINE",
"491 205 LINE SMOOTH",
"528.333 205 OFFCURVE",
"528.333 247 OFFCURVE",
"491 247 CURVE SMOOTH",
"385 247 LINE",
"436 389 LINE",
"522 389 LINE SMOOTH",
"559.333 389 OFFCURVE",
"559.333 431 OFFCURVE",
"522 431 CURVE SMOOTH",
"452 431 LINE",
"510 590 LINE SMOOTH",
"514 600.667 OFFCURVE",
"515 612 OFFCURVE",
"507 620 CURVE SMOOTH",
"503.667 623.333 OFFCURVE",
"499.667 625 OFFCURVE",
"495 625 CURVE",
"493.667 625 OFFCURVE",
"492.667 625 OFFCURVE",
"492 625 CURVE",
"482.667 625 OFFCURVE",
"475.333 618 OFFCURVE",
"470 604 CURVE SMOOTH",
"406 431 LINE",
"272 431 LINE",
"331 590 LINE SMOOTH",
"333 596 OFFCURVE",
"334 601 OFFCURVE",
"334 605 CURVE SMOOTH",
"334 618.333 OFFCURVE",
"327 625 OFFCURVE",
"313 625 CURVE SMOOTH",
"303.667 625 OFFCURVE",
"296.667 618 OFFCURVE",
"292 604 CURVE SMOOTH",
"228 431 LINE",
"103 431 LINE SMOOTH",
"67 431 OFFCURVE",
"67 389 OFFCURVE",
"103 389 CURVE SMOOTH",
"213 389 LINE",
"162 247 LINE",
"73 247 LINE SMOOTH",
"35.667 247 OFFCURVE",
"35.667 205 OFFCURVE",
"73 205 CURVE SMOOTH",
"146 205 LINE",
"88 46 LINE SMOOTH",
"86 40 OFFCURVE",
"85 35 OFFCURVE",
"85 31 CURVE SMOOTH",
"85 17.667 OFFCURVE",
"91.667 11 OFFCURVE",
"105 11 CURVE SMOOTH"
);
},
{
closed = 1;
nodes = (
"257 389 LINE",
"391 389 LINE",
"340 247 LINE",
"206 247 LINE"
);
}
);
width = 595;
}
);
unicode = 0023;
},
{
glyphname = dollar;
lastChange = "2016-07-15 21:22:19 +0000";
layers = (
{
layerId = "C40088C9-C375-45DB-8BB9-703F8F681F6F";
paths = (
{
closed = 1;
nodes = (
"267 -16 OFFCURVE",
"309 -16 OFFCURVE",
"309 20 CURVE SMOOTH",
"309 91 LINE",
"384 91 LINE SMOOTH",
"466 91 OFFCURVE",
"507 132 OFFCURVE",
"507 214 CURVE SMOOTH",
"507 303.333 OFFCURVE",
"466 348 OFFCURVE",
"384 348 CURVE SMOOTH",
"309 348 LINE",
"309 510 LINE",
"403 510 LINE SMOOTH",
"448.333 510 OFFCURVE",
"463 489.667 OFFCURVE",
"463 447 CURVE SMOOTH",
"463 404.333 OFFCURVE",
"505 403.333 OFFCURVE",
"505 450 CURVE SMOOTH",
"505 474.667 OFFCURVE",
"499.333 498 OFFCURVE",
"488 520 CURVE SMOOTH",
"477.333 541.333 OFFCURVE",
"451.333 552 OFFCURVE",
"410 552 CURVE SMOOTH",
"309 552 LINE",
"309 615 LINE SMOOTH",
"309 652.333 OFFCURVE",
"267 652.333 OFFCURVE",
"267 615 CURVE SMOOTH",
"267 552 LINE",
"185 552 LINE SMOOTH",
"95.667 552 OFFCURVE",
"61 511.333 OFFCURVE",
"61 434 CURVE SMOOTH",
"61 348.667 OFFCURVE",
"102.333 306 OFFCURVE",
"185 306 CURVE SMOOTH",
"267 306 LINE",
"267 133 LINE",
"163 133 LINE SMOOTH",
"117.667 133 OFFCURVE",
"103 153.333 OFFCURVE",
"103 196 CURVE SMOOTH",
"103 238.667 OFFCURVE",
"61 239.667 OFFCURVE",
"61 193 CURVE SMOOTH",
"61 168.333 OFFCURVE",
"66.667 145 OFFCURVE",
"78 123 CURVE SMOOTH",
"88.667 101.667 OFFCURVE",
"114.667 91 OFFCURVE",
"156 91 CURVE SMOOTH",
"267 91 LINE",
"267 20 LINE SMOOTH"
);
},
{
closed = 1;
nodes = (
"309 306 LINE",
"401 306 LINE SMOOTH",
"438.333 306 OFFCURVE",
"465 270 OFFCURVE",
"465 214 CURVE SMOOTH",
"465 160 OFFCURVE",
"443.667 133 OFFCURVE",
"401 133 CURVE SMOOTH",
"309 133 LINE"
);
},
{
closed = 1;
nodes = (
"129.667 348 OFFCURVE",
"103 379.333 OFFCURVE",
"103 434 CURVE SMOOTH",
"103 484.667 OFFCURVE",
"124.333 510 OFFCURVE",
"167 510 CURVE SMOOTH",
"267 510 LINE",
"267 348 LINE",
"167 348 LINE SMOOTH"
);
}
);
width = 567;
},
{
layerId = "08BB1446-875F-4786-BB83-45BCD1FA68FA";
paths = (
{
closed = 1;
nodes = (
"343 -7 OFFCURVE",
"356 6.667 OFFCURVE",
"356 34 CURVE SMOOTH",
"356 84 LINE",
"428 84 LINE SMOOTH",
"520.667 84 OFFCURVE",
"567 130.667 OFFCURVE",
"567 224 CURVE SMOOTH",
"567 316.667 OFFCURVE",
"522 363 OFFCURVE",
"432 363 CURVE",
"431.333 363 OFFCURVE",
"430.667 363 OFFCURVE",
"430 363 CURVE",
"356 363 LINE",
"356 485 LINE",
"450 485 LINE SMOOTH",
"486 485 OFFCURVE",
"495 477.667 OFFCURVE",
"495 439 CURVE SMOOTH",
"495 411 OFFCURVE",
"506.667 397 OFFCURVE",
"530 397 CURVE",
"531 398 LINE",
"555 398 OFFCURVE",
"567 414 OFFCURVE",
"567 446 CURVE SMOOTH",
"567 478 OFFCURVE",
"559.5 504.5 OFFCURVE",
"544.5 525.5 CURVE SMOOTH",
"529.5 546.5 OFFCURVE",
"500.333 557 OFFCURVE",
"457 557 CURVE SMOOTH",
"356 557 LINE",
"356 603 LINE SMOOTH",
"356 629.667 OFFCURVE",
"343.333 643 OFFCURVE",
"318 643 CURVE SMOOTH",
"295.333 643 OFFCURVE",
"284 629.333 OFFCURVE",
"284 602 CURVE SMOOTH",
"284 557 LINE",
"201 557 LINE SMOOTH",
"107.667 557 OFFCURVE",
"61 514 OFFCURVE",
"61 428 CURVE SMOOTH",
"61 349.333 OFFCURVE",
"99.667 291 OFFCURVE",
"201 291 CURVE SMOOTH",
"284 291 LINE",
"284 156 LINE",
"178 156 LINE SMOOTH",
"143.333 156 OFFCURVE",
"133 163.667 OFFCURVE",
"133 205 CURVE SMOOTH",
"133 232.333 OFFCURVE",
"121 246 OFFCURVE",
"97 246 CURVE SMOOTH",
"73 246 OFFCURVE",
"61 231.667 OFFCURVE",
"61 203 CURVE SMOOTH",
"61 131 OFFCURVE",
"84.333 84 OFFCURVE",
"171 84 CURVE SMOOTH",
"284 84 LINE",
"284 32 LINE SMOOTH",
"284 6 OFFCURVE",
"295 -7 OFFCURVE",
"317 -7 CURVE SMOOTH"
);
},
{
closed = 1;
nodes = (
"154 363 OFFCURVE",
"133 389.333 OFFCURVE",
"133 432 CURVE SMOOTH",
"133 474.667 OFFCURVE",
"147.333 485 OFFCURVE",
"182 485 CURVE SMOOTH",
"284 485 LINE",
"284 363 LINE",
"182 363 LINE SMOOTH"
);
},
{
closed = 1;
nodes = (
"356 291 LINE",
"446 291 LINE SMOOTH",
"474 291 OFFCURVE",
"495 258.667 OFFCURVE",
"495 216 CURVE SMOOTH",
"495 173.333 OFFCURVE",
"482 156 OFFCURVE",
"446 156 CURVE SMOOTH",
"356 156 LINE"
);
}
);
width = 628;
},
{
layerId = "260E7E84-60BE-47D3-B29C-27583EB1270C";
paths = (
{
closed = 1;
nodes = (
"267 -16 OFFCURVE",
"309 -16 OFFCURVE",
"309 20 CURVE SMOOTH",
"309 91 LINE",
"384 91 LINE SMOOTH",
"466 91 OFFCURVE",
"507 132 OFFCURVE",
"507 214 CURVE SMOOTH",
"507 303.333 OFFCURVE",
"466 348 OFFCURVE",
"384 348 CURVE SMOOTH",
"309 348 LINE",
"309 510 LINE",
"403 510 LINE SMOOTH",
"448.333 510 OFFCURVE",
"463 489.667 OFFCURVE",
"463 447 CURVE SMOOTH",
"463 404.333 OFFCURVE",
"505 403.333 OFFCURVE",
"505 450 CURVE SMOOTH",
"505 474.667 OFFCURVE",
"499.333 498 OFFCURVE",
"488 520 CURVE SMOOTH",
"477.333 541.333 OFFCURVE",
"451.333 552 OFFCURVE",
"410 552 CURVE SMOOTH",
"309 552 LINE",
"309 615 LINE SMOOTH",
"309 652.333 OFFCURVE",
"267 652.333 OFFCURVE",
"267 615 CURVE SMOOTH",
"267 552 LINE",
"185 552 LINE SMOOTH",
"95.667 552 OFFCURVE",
"61 511.333 OFFCURVE",
"61 434 CURVE SMOOTH",
"61 348.667 OFFCURVE",
"102.333 306 OFFCURVE",
"185 306 CURVE SMOOTH",
"267 306 LINE",
"267 133 LINE",
"163 133 LINE SMOOTH",
"117.667 133 OFFCURVE",
"103 153.333 OFFCURVE",
"103 196 CURVE SMOOTH",
"103 238.667 OFFCURVE",
"61 239.667 OFFCURVE",
"61 193 CURVE SMOOTH",
"61 168.333 OFFCURVE",
"66.667 145 OFFCURVE",
"78 123 CURVE SMOOTH",
"88.667 101.667 OFFCURVE",
"114.667 91 OFFCURVE",
"156 91 CURVE SMOOTH",
"267 91 LINE",
"267 20 LINE SMOOTH"
);
},
{
closed = 1;
nodes = (
"309 306 LINE",
"401 306 LINE SMOOTH",
"438.333 306 OFFCURVE",
"465 270 OFFCURVE",
"465 214 CURVE SMOOTH",
"465 160 OFFCURVE",
"443.667 133 OFFCURVE",
"401 133 CURVE SMOOTH",
"309 133 LINE"
);
},
{
closed = 1;
nodes = (
"129.667 348 OFFCURVE",
"103 379.333 OFFCURVE",
"103 434 CURVE SMOOTH",
"103 484.667 OFFCURVE",
"124.333 510 OFFCURVE",
"167 510 CURVE SMOOTH",
"267 510 LINE",
"267 348 LINE",
"167 348 LINE SMOOTH"
);
}
);
width = 567;
}
);
unicode = 0024;
},
{
glyphname = percent;
lastChange = "2016-07-15 21:22:19 +0000";
layers = (
{
layerId = "C40088C9-C375-45DB-8BB9-703F8F681F6F";
paths = (
{
closed = 1;
nodes = (
"460 487 LINE",
"485.577 517.227 OFFCURVE",
"458.956 541.502 OFFCURVE",
"430 517 CURVE",
"80 167 LINE SMOOTH",
"52.693 139.693 OFFCURVE",
"83.582 110.582 OFFCURVE",
"110 137 CURVE SMOOTH"
);
},
{
closed = 1;
nodes = (
"394.265 53.993 OFFCURVE",
"510.598 171.771 OFFCURVE",
"436.5 237 CURVE",
"369.735 312.007 OFFCURVE",
"253.402 194.229 OFFCURVE",
"327.5 129 CURVE"
);
},
{
closed = 1;
nodes = (
"336.696 148 OFFCURVE",
"336.696 218 OFFCURVE",
"382.5 218 CURVE SMOOTH",
"427.206 218 OFFCURVE",
"427.206 148 OFFCURVE",
"382.5 148 CURVE SMOOTH"
);
},
{
closed = 1;
nodes = (
"134.667 386.5 OFFCURVE",
"182.5 386.5 OFFCURVE",
"212.5 416.5 CURVE SMOOTH",
"242.5 446.5 OFFCURVE",
"242.5 495.5 OFFCURVE",
"212.5 525.5 CURVE SMOOTH",
"182.5 555.5 OFFCURVE",
"134.667 555.5 OFFCURVE",
"104 525.5 CURVE SMOOTH",
"73.333 495.5 OFFCURVE",
"73.333 446.5 OFFCURVE",
"104 416.5 CURVE SMOOTH"
);
},
{
closed = 1;
nodes = (
"151.657 414.657 OFFCURVE",
"102.657 463.657 OFFCURVE",
"134.5 495.5 CURVE SMOOTH",
"166.343 527.343 OFFCURVE",
"215.343 478.343 OFFCURVE",
"183.5 446.5 CURVE SMOOTH"
);
}
);
width = 540;
},
{
layerId = "08BB1446-875F-4786-BB83-45BCD1FA68FA";
paths = (
{
closed = 1;
nodes = (
"514 462 LINE",
"555.311 503.311 OFFCURVE",
"503.359 548.439 OFFCURVE",
"464 514 CURVE",
"83 168 LINE",
"39.563 124.563 OFFCURVE",
"94.98 79.515 OFFCURVE",
"133 115 CURVE SMOOTH"
);
},
{
closed = 1;
nodes = (
"398.745 181.255 OFFCURVE",
"407.471 203 OFFCURVE",
"425 203 CURVE SMOOTH",
"438.333 203 OFFCURVE",
"445 196.333 OFFCURVE",
"445 183 CURVE SMOOTH",
"445 165.471 OFFCURVE",
"423.255 156.745 OFFCURVE",
"411 169 CURVE SMOOTH"
);
},
{
closed = 1;
nodes = (
"394.333 82 OFFCURVE",
"454 82 OFFCURVE",
"490 118 CURVE SMOOTH",
"526 154 OFFCURVE",
"526 212 OFFCURVE",
"490 248 CURVE SMOOTH",
"454 284 OFFCURVE",
"394.333 284 OFFCURVE",
"353 248 CURVE SMOOTH",
"311.667 212 OFFCURVE",
"311.667 154 OFFCURVE",
"353 118 CURVE SMOOTH"
);
},
{
closed = 1;
nodes = (
"147.464 441 OFFCURVE",
"146.408 476 OFFCURVE",
"171 476 CURVE SMOOTH",
"197.572 476 OFFCURVE",
"196.85 441 OFFCURVE",
"171.5 441 CURVE SMOOTH"
);
},
{
closed = 1;
nodes = (
"226.333 369 OFFCURVE",
"274 410.667 OFFCURVE",
"274 460 CURVE SMOOTH",
"274 509.333 OFFCURVE",
"226.333 548 OFFCURVE",
"173 548 CURVE SMOOTH",
"119.667 548 OFFCURVE",
"79 509.333 OFFCURVE",
"79 460 CURVE SMOOTH",
"79 410.667 OFFCURVE",
"119.667 369 OFFCURVE",
"173 369 CURVE SMOOTH"
);
}
);
width = 597;
},
{
layerId = "260E7E84-60BE-47D3-B29C-27583EB1270C";
paths = (
{
closed = 1;
nodes = (
"460 487 LINE",
"485.577 517.227 OFFCURVE",
"458.956 541.502 OFFCURVE",
"430 517 CURVE",
"80 167 LINE SMOOTH",
"52.693 139.693 OFFCURVE",
"83.582 110.582 OFFCURVE",
"110 137 CURVE SMOOTH"
);
},
{
closed = 1;
nodes = (
"394.265 53.993 OFFCURVE",
"510.598 171.771 OFFCURVE",
"436.5 237 CURVE",
"369.735 312.007 OFFCURVE",
"253.402 194.229 OFFCURVE",
"327.5 129 CURVE"
);
},
{
closed = 1;
nodes = (
"336.696 148 OFFCURVE",
"336.696 218 OFFCURVE",
"382.5 218 CURVE SMOOTH",
"427.206 218 OFFCURVE",
"427.206 148 OFFCURVE",
"382.5 148 CURVE SMOOTH"
);
},
{
closed = 1;
nodes = (
"134.667 386.5 OFFCURVE",
"182.5 386.5 OFFCURVE",
"212.5 416.5 CURVE SMOOTH",
"242.5 446.5 OFFCURVE",
"242.5 495.5 OFFCURVE",
"212.5 525.5 CURVE SMOOTH",
"182.5 555.5 OFFCURVE",
"134.667 555.5 OFFCURVE",
"104 525.5 CURVE SMOOTH",
"73.333 495.5 OFFCURVE",
"73.333 446.5 OFFCURVE",
"104 416.5 CURVE SMOOTH"
);
},
{
closed = 1;
nodes = (
"151.657 414.657 OFFCURVE",
"102.657 463.657 OFFCURVE",
"134.5 495.5 CURVE SMOOTH",
"166.343 527.343 OFFCURVE",
"215.343 478.343 OFFCURVE",
"183.5 446.5 CURVE SMOOTH"
);
}
);
width = 540;
}
);
unicode = 0025;
},
{
glyphname = ampersand;
lastChange = "2016-07-15 21:22:19 +0000";
layers = (
{
layerId = "C40088C9-C375-45DB-8BB9-703F8F681F6F";
paths = (
{
closed = 1;
nodes = (
"462.333 -7 OFFCURVE",
"468 -1 OFFCURVE",
"468 11 CURVE SMOOTH",
"468 18.333 OFFCURVE",
"466 24.333 OFFCURVE",
"462 29 CURVE SMOOTH",
"414 84 LINE",
"444.667 126 OFFCURVE",
"460 173.667 OFFCURVE",
"460 227 CURVE SMOOTH",
"460 247.667 OFFCURVE",
"453.667 258 OFFCURVE",
"441 258 CURVE SMOOTH",
"426.333 258 OFFCURVE",
"419 247.667 OFFCURVE",
"419 227 CURVE SMOOTH",
"419 185 OFFCURVE",
"407.667 148.333 OFFCURVE",
"385 117 CURVE",
"145 394 LINE SMOOTH",
"119 424 OFFCURVE",
"106 451.333 OFFCURVE",
"106 476 CURVE SMOOTH",
"106 553.333 OFFCURVE",
"169.667 605 OFFCURVE",
"235 605 CURVE SMOOTH",
"293.562 605 OFFCURVE",
"312.069 550.179 OFFCURVE",
"332 523 CURVE SMOOTH",
"346.667 503 OFFCURVE",
"360 506 OFFCURVE",
"368 514 CURVE SMOOTH",
"376 522 OFFCURVE",
"379 528.167 OFFCURVE",
"359 563.5 CURVE SMOOTH",
"339 598.833 OFFCURVE",
"289 647 OFFCURVE",
"237 647 CURVE SMOOTH",
"151.667 647 OFFCURVE",
"62 574.667 OFFCURVE",
"62 476 CURVE SMOOTH",
"62 443.333 OFFCURVE",
"77.667 409 OFFCURVE",
"109 373 CURVE SMOOTH",
"123 356 LINE",
"4.379 276.288 OFFCURVE",
"18.935 79.399 OFFCURVE",
"108 32 CURVE",
"190.667 -22.667 OFFCURVE",
"298 -29.333 OFFCURVE",
"386 52 CURVE",
"425 7 LINE SMOOTH",
"433.667 -2.333 OFFCURVE",
"442.333 -7 OFFCURVE",
"451 -7 CURVE SMOOTH"
);
},
{
closed = 1;
nodes = (
"257.926 -11.459 OFFCURVE",
"79 31.934 OFFCURVE",
"79 182 CURVE SMOOTH",
"79 238 OFFCURVE",
"101.667 297 OFFCURVE",
"151 325 CURVE",
"359 84 LINE"
);
}
);
width = 494;
},
{
layerId = "08BB1446-875F-4786-BB83-45BCD1FA68FA";
paths = (
{
closed = 1;
nodes = (
"312 -24 OFFCURVE",
"359.667 -5.667 OFFCURVE",
"403 31 CURVE",
"432 -2 LINE SMOOTH",
"478.619 -53.799 OFFCURVE",
"522.039 5.734 OFFCURVE",
"493 38 CURVE SMOOTH",
"451 84 LINE",
"479.667 126.667 OFFCURVE",
"494 174.333 OFFCURVE",
"494 227 CURVE SMOOTH",
"494 257.667 OFFCURVE",
"482.667 273 OFFCURVE",
"460 273 CURVE SMOOTH",
"435.333 273 OFFCURVE",
"423 257.167 OFFCURVE",
"423 225.5 CURVE SMOOTH",
"423 193.833 OFFCURVE",
"416 166 OFFCURVE",
"402 142 CURVE",
"176 403 LINE SMOOTH",
"152 430.333 OFFCURVE",
"140 454.667 OFFCURVE",
"140 476 CURVE SMOOTH",
"140 545.333 OFFCURVE",
"195.333 590 OFFCURVE",
"254 590 CURVE SMOOTH",
"306.958 590 OFFCURVE",
"320.177 535.488 OFFCURVE",
"344 508 CURVE SMOOTH",
"361.333 488 OFFCURVE",
"384.667 489.5 OFFCURVE",
"398 503.5 CURVE SMOOTH",
"411.333 517.5 OFFCURVE",
"413.667 531.833 OFFCURVE",
"391 572.5 CURVE SMOOTH",
"368.333 613.167 OFFCURVE",
"312.667 662 OFFCURVE",
"254 662 CURVE SMOOTH",
"208 662 OFFCURVE",
"165.167 644.5 OFFCURVE",
"125.5 609.5 CURVE SMOOTH",
"85.833 574.5 OFFCURVE",
"66 530 OFFCURVE",
"66 476 CURVE SMOOTH",
"66 437.333 OFFCURVE",
"84.333 398.333 OFFCURVE",
"121 359 CURVE",
"67.667 316.333 OFFCURVE",
"41 257.333 OFFCURVE",
"41 182 CURVE SMOOTH",
"41 110 OFFCURVE",
"72.667 51.667 OFFCURVE",
"118 21 CURVE SMOOTH",
"162.667 -9 OFFCURVE",
"210 -24 OFFCURVE",
"260 -24 CURVE SMOOTH"
);
},
{
closed = 1;
nodes = (
"201.6 48 OFFCURVE",
"113 74.667 OFFCURVE",
"113 182 CURVE SMOOTH",
"113 238 OFFCURVE",
"131 279 OFFCURVE",
"167 305 CURVE",
"357 86 LINE",
"327 60.667 OFFCURVE",
"294.667 48 OFFCURVE",
"260 48 CURVE SMOOTH"
);
}
);
width = 534;
},
{
layerId = "260E7E84-60BE-47D3-B29C-27583EB1270C";
paths = (
{
closed = 1;
nodes = (
"462.333 -7 OFFCURVE",
"468 -1 OFFCURVE",
"468 11 CURVE SMOOTH",
"468 18.333 OFFCURVE",
"466 24.333 OFFCURVE",
"462 29 CURVE SMOOTH",
"414 84 LINE",
"444.667 126 OFFCURVE",
"460 173.667 OFFCURVE",
"460 227 CURVE SMOOTH",
"460 247.667 OFFCURVE",
"453.667 258 OFFCURVE",
"441 258 CURVE SMOOTH",
"426.333 258 OFFCURVE",
"419 247.667 OFFCURVE",
"419 227 CURVE SMOOTH",
"419 185 OFFCURVE",
"407.667 148.333 OFFCURVE",
"385 117 CURVE",
"145 394 LINE SMOOTH",
"119 424 OFFCURVE",
"106 451.333 OFFCURVE",
"106 476 CURVE SMOOTH",
"106 553.333 OFFCURVE",
"169.667 605 OFFCURVE",
"235 605 CURVE SMOOTH",
"293.562 605 OFFCURVE",
"312.069 550.179 OFFCURVE",
"332 523 CURVE SMOOTH",
"346.667 503 OFFCURVE",
"360 506 OFFCURVE",
"368 514 CURVE SMOOTH",
"376 522 OFFCURVE",
"379 528.167 OFFCURVE",
"359 563.5 CURVE SMOOTH",
"339 598.833 OFFCURVE",
"289 647 OFFCURVE",
"237 647 CURVE SMOOTH",
"151.667 647 OFFCURVE",
"62 574.667 OFFCURVE",
"62 476 CURVE SMOOTH",
"62 443.333 OFFCURVE",
"77.667 409 OFFCURVE",
"109 373 CURVE SMOOTH",
"123 356 LINE",
"4.379 276.288 OFFCURVE",
"18.935 79.399 OFFCURVE",
"108 32 CURVE",
"190.667 -22.667 OFFCURVE",
"298 -29.333 OFFCURVE",
"386 52 CURVE",
"425 7 LINE SMOOTH",
"433.667 -2.333 OFFCURVE",
"442.333 -7 OFFCURVE",
"451 -7 CURVE SMOOTH"
);
},
{
closed = 1;
nodes = (
"257.926 -11.459 OFFCURVE",
"79 31.934 OFFCURVE",
"79 182 CURVE SMOOTH",
"79 238 OFFCURVE",
"101.667 297 OFFCURVE",
"151 325 CURVE",
"359 84 LINE"
);
}
);
width = 494;
}
);
unicode = 0026;
},
{
glyphname = quotesingle;
lastChange = "2016-07-15 21:22:19 +0000";
layers = (
{
layerId = "C40088C9-C375-45DB-8BB9-703F8F681F6F";
paths = (
{
closed = 1;
nodes = (
"72.333 428.667 OFFCURVE",
"112 428.667 OFFCURVE",
"112 466 CURVE SMOOTH",
"112 615 LINE SMOOTH",
"112 652.333 OFFCURVE",
"72.333 652.333 OFFCURVE",
"71 615 CURVE",
"71 466 LINE"
);
}
);
width = 183;
},
{
layerId = "08BB1446-875F-4786-BB83-45BCD1FA68FA";
paths = (
{
closed = 1;
nodes = (
"124.667 423 OFFCURVE",
"142 435.333 OFFCURVE",
"142 466 CURVE SMOOTH",
"142 615 LINE SMOOTH",
"142 643.667 OFFCURVE",
"130.333 658 OFFCURVE",
"107 658 CURVE SMOOTH",
"88.333 658 OFFCURVE",
"71 645.667 OFFCURVE",
"71 615 CURVE SMOOTH",
"71 466 LINE SMOOTH",
"71 437.333 OFFCURVE",
"82.667 423 OFFCURVE",
"106 423 CURVE SMOOTH"
);
}
);
width = 212;
},
{
layerId = "260E7E84-60BE-47D3-B29C-27583EB1270C";
paths = (
{
closed = 1;
nodes = (
"72.333 428.667 OFFCURVE",
"112 428.667 OFFCURVE",
"112 466 CURVE SMOOTH",
"112 615 LINE SMOOTH",
"112 652.333 OFFCURVE",
"72.333 652.333 OFFCURVE",
"71 615 CURVE",
"71 466 LINE"
);
}
);
width = 183;
}
);
unicode = 0027;
},
{
glyphname = parenleft;
lastChange = "2016-07-15 21:22:19 +0000";
layers = (
{
layerId = "C40088C9-C375-45DB-8BB9-703F8F681F6F";
paths = (
{
closed = 1;
nodes = (
"193 0 LINE",
"157 0 OFFCURVE",
"135 6.833 OFFCURVE",
"127 20.5 CURVE SMOOTH",
"119 34.167 OFFCURVE",
"115 71.667 OFFCURVE",
"115 133 CURVE SMOOTH",
"115 503 LINE SMOOTH",
"115 564.333 OFFCURVE",
"119 601.833 OFFCURVE",
"127 615.5 CURVE SMOOTH",
"135 629.167 OFFCURVE",
"157 636 OFFCURVE",
"193 636 CURVE",
"193 678 LINE",
"163 678 OFFCURVE",
"140 674 OFFCURVE",
"124 666 CURVE SMOOTH",
"90 649.333 OFFCURVE",
"73 595 OFFCURVE",
"73 503 CURVE SMOOTH",
"73 133 LINE SMOOTH",
"73 41.667 OFFCURVE",
"90 -12.667 OFFCURVE",
"124 -30 CURVE SMOOTH",
"140 -38 OFFCURVE",
"163 -42 OFFCURVE",
"193 -42 CURVE"
);
}
);
width = 237;
},
{
layerId = "08BB1446-875F-4786-BB83-45BCD1FA68FA";
paths = (
{
closed = 1;
nodes = (
"223 15 LINE",
"219 15 OFFCURVE",
"215.333 15 OFFCURVE",
"212 15 CURVE SMOOTH",
"191.333 15 OFFCURVE",
"177.333 16.667 OFFCURVE",
"170 20 CURVE SMOOTH",
"162.667 22.667 OFFCURVE",
"158 26 OFFCURVE",
"156 30 CURVE SMOOTH",
"148.667 43.333 OFFCURVE",
"145 77.667 OFFCURVE",
"145 133 CURVE SMOOTH",
"145 503 LINE SMOOTH",
"145 621.494 OFFCURVE",
"148.766 621 OFFCURVE",
"223 621 CURVE",
"223 693 LINE",
"219 693 OFFCURVE",
"215.333 693 OFFCURVE",
"212 693 CURVE SMOOTH",
"184.667 693 OFFCURVE",
"162.667 690.667 OFFCURVE",
"146 686 CURVE SMOOTH",
"132.667 682 OFFCURVE",
"122 676 OFFCURVE",
"114 668 CURVE SMOOTH",
"107.333 660 OFFCURVE",
"100.333 649.333 OFFCURVE",
"93 636 CURVE SMOOTH",
"79.667 610.667 OFFCURVE",
"73 566.333 OFFCURVE",
"73 503 CURVE SMOOTH",
"73 133 LINE SMOOTH",
"73 71.667 OFFCURVE",
"74 13.333 OFFCURVE",
"114 -32 CURVE SMOOTH",
"128.667 -48.667 OFFCURVE",
"165 -57 OFFCURVE",
"223 -57 CURVE"
);
}
);
width = 271;
},
{
layerId = "260E7E84-60BE-47D3-B29C-27583EB1270C";
paths = (
{
closed = 1;
nodes = (
"193 0 LINE",
"157 0 OFFCURVE",
"135 6.833 OFFCURVE",
"127 20.5 CURVE SMOOTH",
"119 34.167 OFFCURVE",
"115 71.667 OFFCURVE",
"115 133 CURVE SMOOTH",
"115 503 LINE SMOOTH",
"115 564.333 OFFCURVE",
"119 601.833 OFFCURVE",
"127 615.5 CURVE SMOOTH",
"135 629.167 OFFCURVE",
"157 636 OFFCURVE",
"193 636 CURVE",
"193 678 LINE",
"163 678 OFFCURVE",
"140 674 OFFCURVE",
"124 666 CURVE SMOOTH",
"90 649.333 OFFCURVE",
"73 595 OFFCURVE",
"73 503 CURVE SMOOTH",
"73 133 LINE SMOOTH",
"73 41.667 OFFCURVE",
"90 -12.667 OFFCURVE",
"124 -30 CURVE SMOOTH",
"140 -38 OFFCURVE",
"163 -42 OFFCURVE",
"193 -42 CURVE"
);
}
);
width = 237;
}
);
unicode = 0028;
},
{
glyphname = parenright;
lastChange = "2016-07-15 21:22:19 +0000";
layers = (
{
layerId = "C40088C9-C375-45DB-8BB9-703F8F681F6F";
paths = (
{
closed = 1;
nodes = (
"133.333 -42 OFFCURVE",
"163 -11 OFFCURVE",
"163 133 CURVE SMOOTH",
"163 503 LINE SMOOTH",
"163 647 OFFCURVE",
"133.333 678 OFFCURVE",
"44 678 CURVE",
"44 636 LINE",
"79.333 636 OFFCURVE",
"101 629.167 OFFCURVE",
"109 615.5 CURVE SMOOTH",
"117 601.833 OFFCURVE",
"121 564.333 OFFCURVE",
"121 503 CURVE SMOOTH",
"121 133 LINE SMOOTH",
"121 71.667 OFFCURVE",
"117 34.167 OFFCURVE",
"109 20.5 CURVE SMOOTH",
"101 6.833 OFFCURVE",
"79.333 0 OFFCURVE",
"44 0 CURVE",
"44 -42 LINE"
);
}
);
width = 236;
},
{
layerId = "08BB1446-875F-4786-BB83-45BCD1FA68FA";
paths = (
{
closed = 1;
nodes = (
"52 -57 OFFCURVE",
"55.667 -57 OFFCURVE",
"59 -57 CURVE SMOOTH",
"87 -57 OFFCURVE",
"109.333 -54.667 OFFCURVE",
"126 -50 CURVE SMOOTH",
"152.667 -42 OFFCURVE",
"163.333 -26.667 OFFCURVE",
"178 0 CURVE SMOOTH",
"191.333 25.333 OFFCURVE",
"198 69.667 OFFCURVE",
"198 133 CURVE SMOOTH",
"198 503 LINE SMOOTH",
"198 564.333 OFFCURVE",
"196 622.667 OFFCURVE",
"156 668 CURVE SMOOTH",
"141.333 684.667 OFFCURVE",
"105.333 693 OFFCURVE",
"48 693 CURVE",
"48 621 LINE",
"122.234 621 OFFCURVE",
"126 621.494 OFFCURVE",
"126 503 CURVE SMOOTH",
"126 133 LINE SMOOTH",
"126 89 OFFCURVE",
"127 52.667 OFFCURVE",
"115 30 CURVE SMOOTH",
"110.333 20 OFFCURVE",
"90.333 15 OFFCURVE",
"55 15 CURVE SMOOTH",
"52.333 15 OFFCURVE",
"50 15 OFFCURVE",
"48 15 CURVE",
"48 -57 LINE"
);
}
);
width = 271;
},
{
layerId = "260E7E84-60BE-47D3-B29C-27583EB1270C";
paths = (
{
closed = 1;
nodes = (
"133.333 -42 OFFCURVE",
"163 -11 OFFCURVE",
"163 133 CURVE SMOOTH",
"163 503 LINE SMOOTH",
"163 647 OFFCURVE",
"133.333 678 OFFCURVE",
"44 678 CURVE",
"44 636 LINE",
"79.333 636 OFFCURVE",
"101 629.167 OFFCURVE",
"109 615.5 CURVE SMOOTH",
"117 601.833 OFFCURVE",
"121 564.333 OFFCURVE",
"121 503 CURVE SMOOTH",
"121 133 LINE SMOOTH",
"121 71.667 OFFCURVE",
"117 34.167 OFFCURVE",
"109 20.5 CURVE SMOOTH",
"101 6.833 OFFCURVE",
"79.333 0 OFFCURVE",
"44 0 CURVE",
"44 -42 LINE"
);
}
);
width = 236;
}
);
unicode = 0029;
},
{
glyphname = asterisk;
lastChange = "2016-07-15 21:22:19 +0000";
layers = (
{
layerId = "C40088C9-C375-45DB-8BB9-703F8F681F6F";
paths = (
{
closed = 1;
nodes = (
"172 336.667 OFFCURVE",
"214 336.667 OFFCURVE",
"214 374 CURVE SMOOTH",
"214 455 LINE",
"284 414 LINE",
"309.196 397 OFFCURVE",
"342.863 425.333 OFFCURVE",
"305 451 CURVE",
"236 492 LINE",
"305 531 LINE",
"343.542 559.542 OFFCURVE",
"306.32 584.32 OFFCURVE",
"284 568 CURVE",
"214 527 LINE",
"214 608 LINE SMOOTH",
"214 645.333 OFFCURVE",
"172 645.333 OFFCURVE",
"172 608 CURVE SMOOTH",
"172 527 LINE",
"102 568 LINE",
"94 571.333 OFFCURVE",
"88 573 OFFCURVE",
"84 573 CURVE",
"83 573 LINE",
"71 573 OFFCURVE",
"65 565.333 OFFCURVE",
"65 550 CURVE SMOOTH",
"65 544.667 OFFCURVE",
"70.333 538.333 OFFCURVE",
"81 531 CURVE",
"151 492 LINE",
"81 451 LINE",
"45.02 423.582 OFFCURVE",
"78.686 397.026 OFFCURVE",
"102 414 CURVE",
"172 455 LINE",
"172 374 LINE SMOOTH"
);
}
);
width = 387;
},
{
layerId = "08BB1446-875F-4786-BB83-45BCD1FA68FA";
paths = (
{
closed = 1;
nodes = (
"171 315.961 OFFCURVE",
"243 315.961 OFFCURVE",
"243 374 CURVE SMOOTH",
"243 428 LINE",
"299.722 399.639 OFFCURVE",
"302.291 394 OFFCURVE",
"316 394 CURVE SMOOTH",
"338.667 394 OFFCURVE",
"351 417 OFFCURVE",
"351 429 CURVE SMOOTH",
"351 441.667 OFFCURVE",
"343.333 453 OFFCURVE",
"328 463 CURVE SMOOTH",
"280 492 LINE",
"328 519 LINE",
"373.605 548.742 OFFCURVE",
"342.416 588 OFFCURVE",
"316 588 CURVE",
"310.667 587.333 OFFCURVE",
"286.333 576 OFFCURVE",
"243 554 CURVE",
"243 608 LINE SMOOTH",
"243 636.667 OFFCURVE",
"231 651 OFFCURVE",
"207 651 CURVE SMOOTH",
"183 651 OFFCURVE",
"171 636.667 OFFCURVE",
"171 608 CURVE SMOOTH",
"171 554 LINE",
"127.924 575.538 OFFCURVE",
"118.02 588 OFFCURVE",
"102 588 CURVE SMOOTH",
"93 588 LINE SMOOTH",
"83.667 588 OFFCURVE",
"64 574.333 OFFCURVE",
"64 553 CURVE SMOOTH",
"64 538.333 OFFCURVE",
"71.667 527 OFFCURVE",
"87 519 CURVE SMOOTH",
"135 492 LINE",
"86 463 LINE SMOOTH",
"40.333 436.015 OFFCURVE",
"74.333 394 OFFCURVE",
"98 394 CURVE",
"103.333 394.667 OFFCURVE",
"127.667 406 OFFCURVE",
"171 428 CURVE",
"171 374 LINE SMOOTH"
);
}
);
width = 415;
},
{
layerId = "260E7E84-60BE-47D3-B29C-27583EB1270C";
paths = (
{
closed = 1;
nodes = (
"172 336.667 OFFCURVE",
"214 336.667 OFFCURVE",
"214 374 CURVE SMOOTH",
"214 455 LINE",
"284 414 LINE",
"309.196 397 OFFCURVE",
"342.863 425.333 OFFCURVE",
"305 451 CURVE",
"236 492 LINE",
"305 531 LINE",
"343.542 559.542 OFFCURVE",
"306.32 584.32 OFFCURVE",
"284 568 CURVE",
"214 527 LINE",
"214 608 LINE SMOOTH",
"214 645.333 OFFCURVE",
"172 645.333 OFFCURVE",
"172 608 CURVE SMOOTH",
"172 527 LINE",
"102 568 LINE",
"94 571.333 OFFCURVE",
"88 573 OFFCURVE",
"84 573 CURVE",
"83 573 LINE",
"71 573 OFFCURVE",
"65 565.333 OFFCURVE",
"65 550 CURVE SMOOTH",
"65 544.667 OFFCURVE",
"70.333 538.333 OFFCURVE",
"81 531 CURVE",
"151 492 LINE",
"81 451 LINE",
"45.02 423.582 OFFCURVE",
"78.686 397.026 OFFCURVE",
"102 414 CURVE",
"172 455 LINE",
"172 374 LINE SMOOTH"
);
}
);
width = 387;
}
);
unicode = 002A;
},
{
glyphname = plus;
lastChange = "2016-07-15 21:22:19 +0000";
layers = (
{
layerId = "C40088C9-C375-45DB-8BB9-703F8F681F6F";
paths = (
{
closed = 1;
nodes = (
"234 -16 OFFCURVE",
"276 -16 OFFCURVE",
"276 20 CURVE SMOOTH",
"276 209 LINE",
"443 209 LINE SMOOTH",
"462.333 209 OFFCURVE",
"472 215.667 OFFCURVE",
"472 229 CURVE SMOOTH",
"472 244.333 OFFCURVE",
"462.333 252 OFFCURVE",
"443 252 CURVE SMOOTH",
"276 252 LINE",
"276 440 LINE SMOOTH",
"276 477.333 OFFCURVE",
"234 477.333 OFFCURVE",
"234 440 CURVE SMOOTH",
"234 252 LINE",
"65 252 LINE SMOOTH",
"47.667 252 OFFCURVE",
"39 244.667 OFFCURVE",
"39 230 CURVE SMOOTH",
"39 216 OFFCURVE",
"47 209 OFFCURVE",
"63 209 CURVE",
"63.667 209 OFFCURVE",
"64.333 209 OFFCURVE",
"65 209 CURVE",
"234 209 LINE",
"234 20 LINE SMOOTH"
);
}
);
width = 510;
},
{
layerId = "08BB1446-875F-4786-BB83-45BCD1FA68FA";
paths = (
{
closed = 1;
nodes = (
"289 -22 OFFCURVE",
"301 -8 OFFCURVE",
"301 20 CURVE SMOOTH",
"301 194 LINE",
"453 194 LINE SMOOTH",
"478.333 194 OFFCURVE",
"497 207.667 OFFCURVE",
"497 229 CURVE SMOOTH",
"497 254.333 OFFCURVE",
"482.333 267 OFFCURVE",
"453 267 CURVE SMOOTH",
"301 267 LINE",
"301 440 LINE SMOOTH",
"301 468.667 OFFCURVE",
"289 483 OFFCURVE",
"265 483 CURVE SMOOTH",
"241 483 OFFCURVE",
"229 468.667 OFFCURVE",
"229 440 CURVE SMOOTH",
"229 267 LINE",
"75 267 LINE SMOOTH",
"45.667 267 OFFCURVE",
"34 248.333 OFFCURVE",
"34 231 CURVE SMOOTH",
"34 206.333 OFFCURVE",
"47.667 194 OFFCURVE",
"75 194 CURVE SMOOTH",
"229 194 LINE",
"229 20 LINE SMOOTH",
"229 -8 OFFCURVE",
"241 -22 OFFCURVE",
"265 -22 CURVE SMOOTH"
);
}
);
width = 531;
},
{
layerId = "260E7E84-60BE-47D3-B29C-27583EB1270C";
paths = (
{
closed = 1;
nodes = (
"234 -16 OFFCURVE",
"276 -16 OFFCURVE",
"276 20 CURVE SMOOTH",
"276 209 LINE",
"443 209 LINE SMOOTH",
"462.333 209 OFFCURVE",
"472 215.667 OFFCURVE",
"472 229 CURVE SMOOTH",
"472 244.333 OFFCURVE",
"462.333 252 OFFCURVE",
"443 252 CURVE SMOOTH",
"276 252 LINE",
"276 440 LINE SMOOTH",
"276 477.333 OFFCURVE",
"234 477.333 OFFCURVE",
"234 440 CURVE SMOOTH",
"234 252 LINE",
"65 252 LINE SMOOTH",
"47.667 252 OFFCURVE",
"39 244.667 OFFCURVE",
"39 230 CURVE SMOOTH",
"39 216 OFFCURVE",
"47 209 OFFCURVE",
"63 209 CURVE",
"63.667 209 OFFCURVE",
"64.333 209 OFFCURVE",
"65 209 CURVE",
"234 209 LINE",
"234 20 LINE SMOOTH"
);
}
);
width = 510;
}
);
unicode = 002B;
},
{
glyphname = comma;
lastChange = "2016-07-15 21:22:19 +0000";
layers = (
{
layerId = "C40088C9-C375-45DB-8BB9-703F8F681F6F";
paths = (
{
closed = 1;
nodes = (
"74.333 -80 OFFCURVE",
"81 -73 OFFCURVE",
"87 -59 CURVE",
"129 24 LINE SMOOTH",
"140.126 46.253 OFFCURVE",
"125.544 58.146 OFFCURVE",
"97 61 CURVE",
"87.667 61 OFFCURVE",
"81 54.333 OFFCURVE",
"77 41 CURVE SMOOTH",
"53 -45 LINE SMOOTH",
"51 -51 OFFCURVE",
"50 -56 OFFCURVE",
"50 -60 CURVE SMOOTH",
"50 -73.333 OFFCURVE",
"55.667 -80 OFFCURVE",
"67 -80 CURVE SMOOTH"
);
}
);
width = 203;
},
{
layerId = "08BB1446-875F-4786-BB83-45BCD1FA68FA";
paths = (
{
closed = 1;
nodes = (
"93 -95 OFFCURVE",
"104.333 -85 OFFCURVE",
"113 -65 CURVE",
"153 18 LINE SMOOTH",
"164.902 41.804 OFFCURVE",
"162.112 76 OFFCURVE",
"109 76 CURVE SMOOTH",
"91.667 76 OFFCURVE",
"80 65.667 OFFCURVE",
"74 45 CURVE SMOOTH",
"50 -42 LINE",
"47 -60 LINE",
"47 -83.333 OFFCURVE",
"57.667 -95 OFFCURVE",
"79 -95 CURVE SMOOTH"
);
}
);
width = 226;
},
{
layerId = "260E7E84-60BE-47D3-B29C-27583EB1270C";
paths = (
{
closed = 1;
nodes = (
"74.333 -80 OFFCURVE",
"81 -73 OFFCURVE",
"87 -59 CURVE",
"129 24 LINE SMOOTH",
"140.126 46.253 OFFCURVE",
"125.544 58.146 OFFCURVE",
"97 61 CURVE",
"87.667 61 OFFCURVE",
"81 54.333 OFFCURVE",
"77 41 CURVE SMOOTH",
"53 -45 LINE SMOOTH",
"51 -51 OFFCURVE",
"50 -56 OFFCURVE",
"50 -60 CURVE SMOOTH",
"50 -73.333 OFFCURVE",
"55.667 -80 OFFCURVE",
"67 -80 CURVE SMOOTH"
);
}
);
width = 203;
}
);
unicode = 002C;
},
{
glyphname = hyphen;
lastChange = "2016-07-15 21:22:19 +0000";
layers = (
{
layerId = "C40088C9-C375-45DB-8BB9-703F8F681F6F";
paths = (
{
closed = 1;
nodes = (
"97.667 209 OFFCURVE",
"98.333 209 OFFCURVE",
"99 209 CURVE",
"344 209 LINE SMOOTH",
"363.333 209 OFFCURVE",
"373 215.667 OFFCURVE",
"373 229 CURVE SMOOTH",
"373 244.333 OFFCURVE",
"363.333 252 OFFCURVE",
"344 252 CURVE SMOOTH",
"99 252 LINE SMOOTH",
"81.667 252 OFFCURVE",
"73 244.667 OFFCURVE",
"73 230 CURVE SMOOTH",
"73 216 OFFCURVE",
"81 209 OFFCURVE",
"97 209 CURVE"
);
}
);
width = 446;
},
{
layerId = "08BB1446-875F-4786-BB83-45BCD1FA68FA";
paths = (
{
closed = 1;
nodes = (
"359 194 LINE SMOOTH",
"384.333 194 OFFCURVE",
"403 207.667 OFFCURVE",
"403 229 CURVE SMOOTH",
"403 254.333 OFFCURVE",
"388.333 267 OFFCURVE",
"359 267 CURVE SMOOTH",
"114 267 LINE SMOOTH",
"84.667 267 OFFCURVE",
"73 248.333 OFFCURVE",
"73 231 CURVE SMOOTH",
"73 206.333 OFFCURVE",
"86.667 194 OFFCURVE",
"114 194 CURVE SMOOTH"
);
}
);
width = 476;
},
{
layerId = "260E7E84-60BE-47D3-B29C-27583EB1270C";
paths = (
{
closed = 1;
nodes = (
"97.667 209 OFFCURVE",
"98.333 209 OFFCURVE",
"99 209 CURVE",
"344 209 LINE SMOOTH",
"363.333 209 OFFCURVE",
"373 215.667 OFFCURVE",
"373 229 CURVE SMOOTH",
"373 244.333 OFFCURVE",
"363.333 252 OFFCURVE",
"344 252 CURVE SMOOTH",
"99 252 LINE SMOOTH",
"81.667 252 OFFCURVE",
"73 244.667 OFFCURVE",
"73 230 CURVE SMOOTH",
"73 216 OFFCURVE",
"81 209 OFFCURVE",
"97 209 CURVE"
);
}
);
width = 446;
}
);
unicode = 002D;
},
{
glyphname = period;
lastChange = "2016-07-15 21:22:19 +0000";
layers = (
{
layerId = "C40088C9-C375-45DB-8BB9-703F8F681F6F";
paths = (
{
closed = 1;
nodes = (
"116.098 -31.516 OFFCURVE",
"190.098 24.261 OFFCURVE",
"143 54 CURVE",
"107.902 89.516 OFFCURVE",
"33.902 33.739 OFFCURVE",
"81 4 CURVE"
);
}
);
width = 224;
},
{
layerId = "08BB1446-875F-4786-BB83-45BCD1FA68FA";
paths = (
{
closed = 1;
nodes = (
"64 -37.353 OFFCURVE",
"186 -37.353 OFFCURVE",
"186 29 CURVE SMOOTH",
"186 95.353 OFFCURVE",
"64 95.353 OFFCURVE",
"64 29 CURVE SMOOTH"
);
}
);
width = 250;
},
{
layerId = "260E7E84-60BE-47D3-B29C-27583EB1270C";
paths = (
{
closed = 1;
nodes = (
"116.098 -31.516 OFFCURVE",
"190.098 24.261 OFFCURVE",
"143 54 CURVE",
"107.902 89.516 OFFCURVE",
"33.902 33.739 OFFCURVE",
"81 4 CURVE"
);
}
);
width = 224;
}
);
unicode = 002E;
},
{
glyphname = slash;
lastChange = "2016-07-15 21:22:19 +0000";
layers = (
{
layerId = "C40088C9-C375-45DB-8BB9-703F8F681F6F";
paths = (
{
closed = 1;
nodes = (
"74 -8 OFFCURVE",
"81 -1.333 OFFCURVE",
"85 12 CURVE",
"303 610 LINE SMOOTH",
"305 616 OFFCURVE",
"306 621.333 OFFCURVE",
"306 626 CURVE SMOOTH",
"306 638.667 OFFCURVE",
"298.667 645 OFFCURVE",
"284 645 CURVE SMOOTH",
"274.667 645 OFFCURVE",
"268 638.333 OFFCURVE",
"264 625 CURVE",
"46 27 LINE SMOOTH",
"44 19.667 OFFCURVE",
"43 14.333 OFFCURVE",
"43 11 CURVE SMOOTH",
"43 -1.667 OFFCURVE",
"50 -8 OFFCURVE",
"64 -8 CURVE SMOOTH"
);
}
);
width = 349;
},
{
layerId = "08BB1446-875F-4786-BB83-45BCD1FA68FA";
paths = (
{
closed = 1;
nodes = (
"93 -23 OFFCURVE",
"105 -13.333 OFFCURVE",
"113 6 CURVE",
"325 590 LINE SMOOTH",
"342.761 637.363 OFFCURVE",
"328.458 660 OFFCURVE",
"297 660 CURVE SMOOTH",
"282.333 660 OFFCURVE",
"270.667 650.333 OFFCURVE",
"262 631 CURVE",
"52 53 LINE SMOOTH",
"45.333 34.333 OFFCURVE",
"42 22 OFFCURVE",
"42 16 CURVE SMOOTH",
"42 8 LINE SMOOTH",
"42 -13.333 OFFCURVE",
"62.333 -23 OFFCURVE",
"77 -23 CURVE SMOOTH"
);
}
);
width = 375;
},
{
layerId = "260E7E84-60BE-47D3-B29C-27583EB1270C";
paths = (
{
closed = 1;
nodes = (
"74 -8 OFFCURVE",
"81 -1.333 OFFCURVE",
"85 12 CURVE",
"303 610 LINE SMOOTH",
"305 616 OFFCURVE",
"306 621.333 OFFCURVE",
"306 626 CURVE SMOOTH",
"306 638.667 OFFCURVE",
"298.667 645 OFFCURVE",
"284 645 CURVE SMOOTH",
"274.667 645 OFFCURVE",
"268 638.333 OFFCURVE",
"264 625 CURVE",
"46 27 LINE SMOOTH",
"44 19.667 OFFCURVE",
"43 14.333 OFFCURVE",
"43 11 CURVE SMOOTH",
"43 -1.667 OFFCURVE",
"50 -8 OFFCURVE",
"64 -8 CURVE SMOOTH"
);
}
);
width = 349;
}
);
unicode = 002F;
},
{
glyphname = zero;
lastChange = "2016-07-15 21:22:19 +0000";
layers = (
{
layerId = "C40088C9-C375-45DB-8BB9-703F8F681F6F";
paths = (
{
closed = 1;
nodes = (
"348 0 LINE SMOOTH",
"444 0 OFFCURVE",
"518 63.333 OFFCURVE",
"518 154 CURVE SMOOTH",
"518 482 LINE SMOOTH",
"518 572.667 OFFCURVE",
"444 636 OFFCURVE",
"348 636 CURVE SMOOTH",
"244 636 LINE SMOOTH",
"148 636 OFFCURVE",
"74 572.667 OFFCURVE",
"74 482 CURVE SMOOTH",
"74 154 LINE SMOOTH",
"74 63.333 OFFCURVE",
"148 0 OFFCURVE",
"244 0 CURVE SMOOTH"
);
},
{
closed = 1;
nodes = (
"169.333 42 OFFCURVE",
"116 88.667 OFFCURVE",
"116 138 CURVE SMOOTH",
"116 497 LINE SMOOTH",
"116 546.333 OFFCURVE",
"169.333 593 OFFCURVE",
"236 593 CURVE SMOOTH",
"356 593 LINE SMOOTH",
"422.667 593 OFFCURVE",
"476 546.333 OFFCURVE",
"476 497 CURVE SMOOTH",
"476 138 LINE SMOOTH",
"476 88.667 OFFCURVE",
"422.667 42 OFFCURVE",
"356 42 CURVE SMOOTH",
"236 42 LINE SMOOTH"
);
}
);
width = 592;
},
{
layerId = "08BB1446-875F-4786-BB83-45BCD1FA68FA";
paths = (
{
closed = 1;
nodes = (
"354 -5 LINE SMOOTH",
"467.333 -5 OFFCURVE",
"548 62 OFFCURVE",
"548 158 CURVE SMOOTH",
"548 478 LINE SMOOTH",
"548 574 OFFCURVE",
"467.333 641 OFFCURVE",
"354 641 CURVE SMOOTH",
"238 641 LINE SMOOTH",
"124.667 641 OFFCURVE",
"44 574 OFFCURVE",
"44 478 CURVE SMOOTH",
"44 158 LINE SMOOTH",
"44 62 OFFCURVE",
"124.667 -5 OFFCURVE",
"238 -5 CURVE SMOOTH"
);
},
{
closed = 1;
nodes = (
"163 67 OFFCURVE",
"116 108 OFFCURVE",
"116 144 CURVE SMOOTH",
"116 491 LINE SMOOTH",
"116 527 OFFCURVE",
"163 568 OFFCURVE",
"227 568 CURVE SMOOTH",
"365 568 LINE SMOOTH",
"429 568 OFFCURVE",
"476 527 OFFCURVE",
"476 491 CURVE SMOOTH",
"476 144 LINE SMOOTH",
"476 108 OFFCURVE",
"429 67 OFFCURVE",
"365 67 CURVE SMOOTH",
"227 67 LINE SMOOTH"
);
}
);
width = 592;
},
{
layerId = "260E7E84-60BE-47D3-B29C-27583EB1270C";
paths = (
{
closed = 1;
nodes = (
"348 0 LINE SMOOTH",
"444 0 OFFCURVE",
"518 63.333 OFFCURVE",
"518 154 CURVE SMOOTH",
"518 482 LINE SMOOTH",
"518 572.667 OFFCURVE",
"444 636 OFFCURVE",
"348 636 CURVE SMOOTH",
"244 636 LINE SMOOTH",
"148 636 OFFCURVE",
"74 572.667 OFFCURVE",
"74 482 CURVE SMOOTH",
"74 154 LINE SMOOTH",
"74 63.333 OFFCURVE",
"148 0 OFFCURVE",
"244 0 CURVE SMOOTH"
);
},
{
closed = 1;
nodes = (
"169.333 42 OFFCURVE",
"116 88.667 OFFCURVE",
"116 138 CURVE SMOOTH",
"116 497 LINE SMOOTH",
"116 546.333 OFFCURVE",
"169.333 593 OFFCURVE",
"236 593 CURVE SMOOTH",
"356 593 LINE SMOOTH",
"422.667 593 OFFCURVE",
"476 546.333 OFFCURVE",
"476 497 CURVE SMOOTH",
"476 138 LINE SMOOTH",
"476 88.667 OFFCURVE",
"422.667 42 OFFCURVE",
"356 42 CURVE SMOOTH",
"236 42 LINE SMOOTH"
);
}
);
width = 592;
}
);
unicode = 0030;
},
{
glyphname = one;
lastChange = "2016-07-15 21:22:19 +0000";
layers = (
{
layerId = "C40088C9-C375-45DB-8BB9-703F8F681F6F";
paths = (
{
closed = 1;
nodes = (
"284 -16 OFFCURVE",
"326 -16 OFFCURVE",
"326 20 CURVE SMOOTH",
"326 662 LINE SMOOTH",
"326 674 OFFCURVE",
"321.333 681.333 OFFCURVE",
"312 684 CURVE SMOOTH",
"309.333 685.333 OFFCURVE",
"306.667 686 OFFCURVE",
"304 686 CURVE SMOOTH",
"296.667 686 OFFCURVE",
"288.667 681.667 OFFCURVE",
"280 673 CURVE SMOOTH",
"218 610 LINE SMOOTH",
"210 602.667 OFFCURVE",
"206 595.333 OFFCURVE",
"206 588 CURVE SMOOTH",
"206 576 OFFCURVE",
"212.333 570 OFFCURVE",
"225 570 CURVE SMOOTH",
"233.667 570 OFFCURVE",
"242 574.333 OFFCURVE",
"250 583 CURVE SMOOTH",
"284 616 LINE",
"284 20 LINE SMOOTH"
);
}
);
width = 592;
},
{
layerId = "08BB1446-875F-4786-BB83-45BCD1FA68FA";
paths = (
{
closed = 1;
nodes = (
"329 -7 OFFCURVE",
"341 6.333 OFFCURVE",
"341 33 CURVE SMOOTH",
"341 647 LINE SMOOTH",
"341 685.896 OFFCURVE",
"300.807 695.672 OFFCURVE",
"270 670 CURVE",
"209 610 LINE",
"164.01 570.009 OFFCURVE",
"214.304 518.051 OFFCURVE",
"261 562 CURVE SMOOTH",
"269 569 LINE",
"269 33 LINE SMOOTH",
"269 6.333 OFFCURVE",
"281 -7 OFFCURVE",
"305 -7 CURVE SMOOTH"
);
}
);
width = 592;
},
{
layerId = "260E7E84-60BE-47D3-B29C-27583EB1270C";
paths = (
{
closed = 1;
nodes = (
"284 -16 OFFCURVE",
"326 -16 OFFCURVE",
"326 20 CURVE SMOOTH",
"326 662 LINE SMOOTH",
"326 674 OFFCURVE",
"321.333 681.333 OFFCURVE",
"312 684 CURVE SMOOTH",
"309.333 685.333 OFFCURVE",
"306.667 686 OFFCURVE",
"304 686 CURVE SMOOTH",
"296.667 686 OFFCURVE",
"288.667 681.667 OFFCURVE",
"280 673 CURVE SMOOTH",
"218 610 LINE SMOOTH",
"210 602.667 OFFCURVE",
"206 595.333 OFFCURVE",
"206 588 CURVE SMOOTH",
"206 576 OFFCURVE",
"212.333 570 OFFCURVE",
"225 570 CURVE SMOOTH",
"233.667 570 OFFCURVE",
"242 574.333 OFFCURVE",
"250 583 CURVE SMOOTH",
"284 616 LINE",
"284 20 LINE SMOOTH"
);
}
);
width = 592;
}
);
unicode = 0031;
},
{
glyphname = two;
lastChange = "2016-07-15 21:22:19 +0000";
layers = (
{
layerId = "C40088C9-C375-45DB-8BB9-703F8F681F6F";
paths = (
{
closed = 1;
nodes = (
"488 0 LINE SMOOTH",
"528 0 OFFCURVE",
"528 42 OFFCURVE",
"488 42 CURVE SMOOTH",
"117 42 LINE",
"117 267.707 OFFCURVE",
"518 280.402 OFFCURVE",
"518 463 CURVE SMOOTH",
"518 609.052 OFFCURVE",
"435.874 636 OFFCURVE",
"311 636 CURVE SMOOTH",
"169 636 LINE SMOOTH",
"101 636 OFFCURVE",
"74 606.333 OFFCURVE",
"74 529 CURVE SMOOTH",
"74 489 OFFCURVE",
"116 488.167 OFFCURVE",
"116 531.5 CURVE SMOOTH",
"116 574.833 OFFCURVE",
"130.667 594 OFFCURVE",
"176 594 CURVE SMOOTH",
"311 594 LINE SMOOTH",
"435 594 OFFCURVE",
"476 574.667 OFFCURVE",
"476 460 CURVE SMOOTH",
"476 420 OFFCURVE",
"449.333 384 OFFCURVE",
"396 352 CURVE SMOOTH",
"372 337.333 OFFCURVE",
"346 323 OFFCURVE",
"318 309 CURVE SMOOTH",
"250 276.333 OFFCURVE",
"195.333 243.333 OFFCURVE",
"154 210 CURVE SMOOTH",
"130 191.333 OFFCURVE",
"111 167.333 OFFCURVE",
"97 138 CURVE SMOOTH",
"82.333 109.333 OFFCURVE",
"75 78 OFFCURVE",
"75 44 CURVE SMOOTH",
"75 0 LINE"
);
}
);
width = 592;
},
{
layerId = "08BB1446-875F-4786-BB83-45BCD1FA68FA";
paths = (
{
closed = 1;
nodes = (
"503 -5 LINE SMOOTH",
"533 -5 OFFCURVE",
"548 7 OFFCURVE",
"548 31 CURVE SMOOTH",
"548 55 OFFCURVE",
"533 67 OFFCURVE",
"503 67 CURVE SMOOTH",
"117 67 LINE",
"135.17 259.599 OFFCURVE",
"548 277.707 OFFCURVE",
"548 456 CURVE SMOOTH",
"548 601.333 OFFCURVE",
"475.333 641 OFFCURVE",
"314 641 CURVE SMOOTH",
"154 641 LINE SMOOTH",
"78 641 OFFCURVE",
"45 607 OFFCURVE",
"45 519 CURVE SMOOTH",
"45 489 OFFCURVE",
"57 474 OFFCURVE",
"81 474 CURVE SMOOTH",
"105 474 OFFCURVE",
"117 489 OFFCURVE",
"117 519 CURVE SMOOTH",
"117 559 OFFCURVE",
"126.333 569 OFFCURVE",
"161 569 CURVE SMOOTH",
"314 569 LINE SMOOTH",
"442 569 OFFCURVE",
"476 554 OFFCURVE",
"476 454 CURVE SMOOTH",
"476 316.506 OFFCURVE",
"45 303.756 OFFCURVE",
"45 52 CURVE SMOOTH",
"45 -5 LINE"
);
}
);
width = 592;
},
{
layerId = "260E7E84-60BE-47D3-B29C-27583EB1270C";
paths = (
{
closed = 1;
nodes = (
"488 0 LINE SMOOTH",
"528 0 OFFCURVE",
"528 42 OFFCURVE",
"488 42 CURVE SMOOTH",
"117 42 LINE",
"117 267.707 OFFCURVE",
"518 280.402 OFFCURVE",
"518 463 CURVE SMOOTH",
"518 609.052 OFFCURVE",
"435.874 636 OFFCURVE",
"311 636 CURVE SMOOTH",
"169 636 LINE SMOOTH",
"101 636 OFFCURVE",
"74 606.333 OFFCURVE",
"74 529 CURVE SMOOTH",
"74 489 OFFCURVE",
"116 488.167 OFFCURVE",
"116 531.5 CURVE SMOOTH",
"116 574.833 OFFCURVE",
"130.667 594 OFFCURVE",
"176 594 CURVE SMOOTH",
"311 594 LINE SMOOTH",
"435 594 OFFCURVE",
"476 574.667 OFFCURVE",
"476 460 CURVE SMOOTH",
"476 420 OFFCURVE",
"449.333 384 OFFCURVE",
"396 352 CURVE SMOOTH",
"372 337.333 OFFCURVE",
"346 323 OFFCURVE",
"318 309 CURVE SMOOTH",
"250 276.333 OFFCURVE",
"195.333 243.333 OFFCURVE",
"154 210 CURVE SMOOTH",
"130 191.333 OFFCURVE",
"111 167.333 OFFCURVE",
"97 138 CURVE SMOOTH",
"82.333 109.333 OFFCURVE",
"75 78 OFFCURVE",
"75 44 CURVE SMOOTH",
"75 0 LINE"
);
}
);
width = 592;
}
);
unicode = 0032;
},
{
glyphname = three;
lastChange = "2016-07-15 21:22:19 +0000";
layers = (
{
layerId = "C40088C9-C375-45DB-8BB9-703F8F681F6F";
paths = (
{
closed = 1;
nodes = (
"326 0 LINE SMOOTH",
"464.667 0 OFFCURVE",
"518 47.667 OFFCURVE",
"518 185 CURVE SMOOTH",
"518 209.667 OFFCURVE",
"501.667 238.333 OFFCURVE",
"469 271 CURVE SMOOTH",
"436.333 303.667 OFFCURVE",
"409.333 322 OFFCURVE",
"388 326 CURVE",
"410 330.667 OFFCURVE",
"437.167 346.833 OFFCURVE",
"469.5 374.5 CURVE SMOOTH",
"501.833 402.167 OFFCURVE",
"518 427.667 OFFCURVE",
"518 451 CURVE SMOOTH",
"518 588.333 OFFCURVE",
"464.667 636 OFFCURVE",
"326 636 CURVE SMOOTH",
"249 636 LINE SMOOTH",
"141 636 OFFCURVE",
"74 585 OFFCURVE",
"74 529 CURVE SMOOTH",
"74 489 OFFCURVE",
"116 489 OFFCURVE",
"116 529 CURVE SMOOTH",
"116 569 OFFCURVE",
"196 594 OFFCURVE",
"256 594 CURVE SMOOTH",
"336 594 LINE SMOOTH",
"442.667 594 OFFCURVE",
"477 548.667 OFFCURVE",
"477 470 CURVE SMOOTH",
"477 438 OFFCURVE",
"455.5 409.5 OFFCURVE",
"412.5 384.5 CURVE SMOOTH",
"369.5 359.5 OFFCURVE",
"329 347 OFFCURVE",
"291 347 CURVE SMOOTH",
"288 347 LINE SMOOTH",
"249.333 347 OFFCURVE",
"248.333 304 OFFCURVE",
"291 304 CURVE SMOOTH",
"327.667 304 OFFCURVE",
"367.833 289.833 OFFCURVE",
"411.5 261.5 CURVE SMOOTH",
"455.167 233.167 OFFCURVE",
"477 201.333 OFFCURVE",
"477 166 CURVE",
"477 165.333 OFFCURVE",
"477 164.667 OFFCURVE",
"477 164 CURVE",
"477 92 OFFCURVE",
"442.667 42 OFFCURVE",
"336 42 CURVE SMOOTH",
"256 42 LINE SMOOTH",
"196 42 OFFCURVE",
"116 67 OFFCURVE",
"116 107 CURVE SMOOTH",
"116 127 OFFCURVE",
"109 137 OFFCURVE",
"95 137 CURVE",
"44.333 140.083 OFFCURVE",
"76.167 -8.333 OFFCURVE",
"249 0 CURVE"
);
}
);
width = 592;
},
{
layerId = "08BB1446-875F-4786-BB83-45BCD1FA68FA";
paths = (
{
closed = 1;
nodes = (
"329 -5 LINE SMOOTH",
"489 -5 OFFCURVE",
"548 49 OFFCURVE",
"548 189 CURVE SMOOTH",
"548 234.333 OFFCURVE",
"488.333 298 OFFCURVE",
"435 326 CURVE",
"489.667 352.667 OFFCURVE",
"548 403 OFFCURVE",
"548 447 CURVE SMOOTH",
"548 587 OFFCURVE",
"489 641 OFFCURVE",
"329 641 CURVE SMOOTH",
"243 641 LINE SMOOTH",
"121.667 641 OFFCURVE",
"44 586 OFFCURVE",
"44 522 CURVE SMOOTH",
"44 490 OFFCURVE",
"56 474 OFFCURVE",
"80 474 CURVE SMOOTH",
"104 474 OFFCURVE",
"116 488.333 OFFCURVE",
"116 517 CURVE SMOOTH",
"116 543.667 OFFCURVE",
"182 569 OFFCURVE",
"250 569 CURVE SMOOTH",
"342 569 LINE SMOOTH",
"446 569 OFFCURVE",
"477 534 OFFCURVE",
"477 470 CURVE SMOOTH",
"477 438 OFFCURVE",
"456.833 412 OFFCURVE",
"416.5 392 CURVE SMOOTH",
"376.167 372 OFFCURVE",
"336.333 362 OFFCURVE",
"297 362 CURVE SMOOTH",
"257.667 362 OFFCURVE",
"238 350 OFFCURVE",
"238 326 CURVE SMOOTH",
"238 302 OFFCURVE",
"256.667 289.667 OFFCURVE",
"294 289 CURVE",
"331.333 289 OFFCURVE",
"371.167 276.833 OFFCURVE",
"413.5 252.5 CURVE SMOOTH",
"455.833 228.167 OFFCURVE",
"477 200 OFFCURVE",
"477 168 CURVE SMOOTH",
"477 104 OFFCURVE",
"446 67 OFFCURVE",
"342 67 CURVE SMOOTH",
"250 67 LINE SMOOTH",
"180.667 67 OFFCURVE",
"116 92.333 OFFCURVE",
"116 119 CURVE SMOOTH",
"116 147.667 OFFCURVE",
"104 162 OFFCURVE",
"80 162 CURVE SMOOTH",
"56 162 OFFCURVE",
"44 146 OFFCURVE",
"44 114 CURVE SMOOTH",
"44 82 OFFCURVE",
"62 54.333 OFFCURVE",
"98 31 CURVE SMOOTH",
"134 7 OFFCURVE",
"182.333 -5 OFFCURVE",
"243 -5 CURVE SMOOTH"
);
}
);
width = 592;
},
{
layerId = "260E7E84-60BE-47D3-B29C-27583EB1270C";
paths = (
{
closed = 1;
nodes = (
"326 0 LINE SMOOTH",
"464.667 0 OFFCURVE",
"518 47.667 OFFCURVE",
"518 185 CURVE SMOOTH",
"518 209.667 OFFCURVE",
"501.667 238.333 OFFCURVE",
"469 271 CURVE SMOOTH",
"436.333 303.667 OFFCURVE",
"409.333 322 OFFCURVE",
"388 326 CURVE",
"410 330.667 OFFCURVE",
"437.167 346.833 OFFCURVE",
"469.5 374.5 CURVE SMOOTH",
"501.833 402.167 OFFCURVE",
"518 427.667 OFFCURVE",
"518 451 CURVE SMOOTH",
"518 588.333 OFFCURVE",
"464.667 636 OFFCURVE",
"326 636 CURVE SMOOTH",
"249 636 LINE SMOOTH",
"141 636 OFFCURVE",
"74 585 OFFCURVE",
"74 529 CURVE SMOOTH",
"74 489 OFFCURVE",
"116 489 OFFCURVE",
"116 529 CURVE SMOOTH",
"116 569 OFFCURVE",
"196 594 OFFCURVE",
"256 594 CURVE SMOOTH",
"336 594 LINE SMOOTH",
"442.667 594 OFFCURVE",
"477 548.667 OFFCURVE",
"477 470 CURVE SMOOTH",
"477 438 OFFCURVE",
"455.5 409.5 OFFCURVE",
"412.5 384.5 CURVE SMOOTH",
"369.5 359.5 OFFCURVE",
"329 347 OFFCURVE",
"291 347 CURVE SMOOTH",
"288 347 LINE SMOOTH",
"249.333 347 OFFCURVE",
"248.333 304 OFFCURVE",
"291 304 CURVE SMOOTH",
"327.667 304 OFFCURVE",
"367.833 289.833 OFFCURVE",
"411.5 261.5 CURVE SMOOTH",
"455.167 233.167 OFFCURVE",
"477 201.333 OFFCURVE",
"477 166 CURVE",
"477 165.333 OFFCURVE",
"477 164.667 OFFCURVE",
"477 164 CURVE",
"477 92 OFFCURVE",
"442.667 42 OFFCURVE",
"336 42 CURVE SMOOTH",
"256 42 LINE SMOOTH",
"196 42 OFFCURVE",
"116 67 OFFCURVE",
"116 107 CURVE SMOOTH",
"116 127 OFFCURVE",
"109 137 OFFCURVE",
"95 137 CURVE",
"44.333 140.083 OFFCURVE",
"76.167 -8.333 OFFCURVE",
"249 0 CURVE"
);
}
);
width = 592;
}
);
unicode = 0033;
},
{
glyphname = four;
lastChange = "2016-07-15 21:22:19 +0000";
layers = (
{
layerId = "C40088C9-C375-45DB-8BB9-703F8F681F6F";
paths = (
{
closed = 1;
nodes = (
"390 -16 OFFCURVE",
"432 -16 OFFCURVE",
"432 20 CURVE SMOOTH",
"432 175 LINE",
"493 175 LINE SMOOTH",
"529 175 OFFCURVE",
"529 217 OFFCURVE",
"493 217 CURVE SMOOTH",
"432 217 LINE",
"432 636 LINE",
"375 636 LINE",
"72 231 LINE",
"72 175 LINE",
"390 175 LINE",
"390 20 LINE SMOOTH"
);
},
{
closed = 1;
nodes = (
"390 594 LINE",
"390 217 LINE",
"109 217 LINE"
);
}
);
width = 592;
},
{
layerId = "08BB1446-875F-4786-BB83-45BCD1FA68FA";
paths = (
{
closed = 1;
nodes = (
"450 -7 OFFCURVE",
"462 6 OFFCURVE",
"462 32 CURVE SMOOTH",
"462 160 LINE",
"508 160 LINE SMOOTH",
"536 160 OFFCURVE",
"550 172 OFFCURVE",
"550 196 CURVE SMOOTH",
"550 220 OFFCURVE",
"536 232 OFFCURVE",
"508 232 CURVE SMOOTH",
"462 232 LINE",
"462 641 LINE",
"378 641 LINE",
"42 235 LINE",
"42 160 LINE",
"386 160 LINE",
"386 32 LINE SMOOTH",
"386 6.667 OFFCURVE",
"403.333 -7 OFFCURVE",
"426 -7 CURVE SMOOTH"
);
},
{
closed = 1;
nodes = (
"386 550 LINE",
"386 232 LINE",
"124 232 LINE"
);
}
);
width = 592;
},
{
layerId = "260E7E84-60BE-47D3-B29C-27583EB1270C";
paths = (
{
closed = 1;
nodes = (
"390 -16 OFFCURVE",
"432 -16 OFFCURVE",
"432 20 CURVE SMOOTH",
"432 175 LINE",
"493 175 LINE SMOOTH",
"529 175 OFFCURVE",
"529 217 OFFCURVE",
"493 217 CURVE SMOOTH",
"432 217 LINE",
"432 636 LINE",
"375 636 LINE",
"72 231 LINE",
"72 175 LINE",
"390 175 LINE",
"390 20 LINE SMOOTH"
);
},
{
closed = 1;
nodes = (
"390 594 LINE",
"390 217 LINE",
"109 217 LINE"
);
}
);
width = 592;
}
);
unicode = 0034;
},
{
glyphname = five;
lastChange = "2016-07-15 21:22:19 +0000";
layers = (
{
layerId = "C40088C9-C375-45DB-8BB9-703F8F681F6F";
paths = (
{
closed = 1;
nodes = (
"420.333 -9 OFFCURVE",
"513 83 OFFCURVE",
"513 219 CURVE SMOOTH",
"513 355 OFFCURVE",
"413.667 434 OFFCURVE",
"307 434 CURVE SMOOTH",
"132 434 LINE",
"138 529 LINE",
"142 575.667 OFFCURVE",
"159.667 594 OFFCURVE",
"197 594 CURVE SMOOTH",
"444 594 LINE SMOOTH",
"480 594 OFFCURVE",
"480 636 OFFCURVE",
"444 636 CURVE SMOOTH",
"203 636 LINE SMOOTH",
"128.333 636 OFFCURVE",
"100.667 605.333 OFFCURVE",
"94 512 CURVE SMOOTH",
"85 392 LINE",
"316 392 LINE SMOOTH",
"349.333 392 OFFCURVE",
"382 380.333 OFFCURVE",
"414 357 CURVE SMOOTH",
"430 345 OFFCURVE",
"443.667 327.667 OFFCURVE",
"455 305 CURVE SMOOTH",
"465.667 282.333 OFFCURVE",
"471 256.333 OFFCURVE",
"471 227 CURVE SMOOTH",
"471 105.667 OFFCURVE",
"404.333 33 OFFCURVE",
"291 33 CURVE SMOOTH",
"198.25 33 OFFCURVE",
"101.75 111 OFFCURVE",
"96 111 CURVE SMOOTH",
"89.333 111 OFFCURVE",
"79 100.667 OFFCURVE",
"79 90 CURVE SMOOTH",
"79 70 OFFCURVE",
"104 48.5 OFFCURVE",
"154 25.5 CURVE SMOOTH",
"204 2.5 OFFCURVE",
"249.667 -9 OFFCURVE",
"291 -9 CURVE SMOOTH"
);
}
);
width = 592;
},
{
layerId = "08BB1446-875F-4786-BB83-45BCD1FA68FA";
paths = (
{
closed = 1;
nodes = (
"441.667 -9 OFFCURVE",
"543 84.667 OFFCURVE",
"543 226 CURVE SMOOTH",
"543 367.333 OFFCURVE",
"434 449 OFFCURVE",
"310 449 CURVE SMOOTH",
"132 449 LINE",
"138 523 LINE",
"142 559 OFFCURVE",
"154 569 OFFCURVE",
"182 569 CURVE SMOOTH",
"459 569 LINE SMOOTH",
"489.667 569 OFFCURVE",
"501 585.333 OFFCURVE",
"501 604 CURVE SMOOTH",
"501 628.667 OFFCURVE",
"487 641 OFFCURVE",
"459 641 CURVE SMOOTH",
"190 641 LINE SMOOTH",
"106 641 OFFCURVE",
"70.667 606.667 OFFCURVE",
"64 508 CURVE SMOOTH",
"55 377 LINE",
"319 377 LINE SMOOTH",
"392.333 377 OFFCURVE",
"471 332.833 OFFCURVE",
"471 229.5 CURVE SMOOTH",
"471 126.167 OFFCURVE",
"411 63 OFFCURVE",
"291 63 CURVE SMOOTH",
"185 63 OFFCURVE",
"97 141 OFFCURVE",
"81 141 CURVE SMOOTH",
"67.667 141 OFFCURVE",
"49 125 OFFCURVE",
"49 105 CURVE SMOOTH",
"49 78.333 OFFCURVE",
"77.333 52.667 OFFCURVE",
"134 28 CURVE SMOOTH",
"190.667 3.333 OFFCURVE",
"243 -9 OFFCURVE",
"291 -9 CURVE SMOOTH"
);
}
);
width = 592;
},
{
layerId = "260E7E84-60BE-47D3-B29C-27583EB1270C";
paths = (
{
closed = 1;
nodes = (
"420.333 -9 OFFCURVE",
"513 83 OFFCURVE",
"513 219 CURVE SMOOTH",
"513 355 OFFCURVE",
"413.667 434 OFFCURVE",
"307 434 CURVE SMOOTH",
"132 434 LINE",
"138 529 LINE",
"142 575.667 OFFCURVE",
"159.667 594 OFFCURVE",
"197 594 CURVE SMOOTH",
"444 594 LINE SMOOTH",
"480 594 OFFCURVE",
"480 636 OFFCURVE",
"444 636 CURVE SMOOTH",
"203 636 LINE SMOOTH",
"128.333 636 OFFCURVE",
"100.667 605.333 OFFCURVE",
"94 512 CURVE SMOOTH",
"85 392 LINE",
"316 392 LINE SMOOTH",
"349.333 392 OFFCURVE",
"382 380.333 OFFCURVE",
"414 357 CURVE SMOOTH",
"430 345 OFFCURVE",
"443.667 327.667 OFFCURVE",
"455 305 CURVE SMOOTH",
"465.667 282.333 OFFCURVE",
"471 256.333 OFFCURVE",
"471 227 CURVE SMOOTH",
"471 105.667 OFFCURVE",
"404.333 33 OFFCURVE",
"291 33 CURVE SMOOTH",
"198.25 33 OFFCURVE",
"101.75 111 OFFCURVE",
"96 111 CURVE SMOOTH",
"89.333 111 OFFCURVE",
"79 100.667 OFFCURVE",
"79 90 CURVE SMOOTH",
"79 70 OFFCURVE",
"104 48.5 OFFCURVE",
"154 25.5 CURVE SMOOTH",
"204 2.5 OFFCURVE",
"249.667 -9 OFFCURVE",
"291 -9 CURVE SMOOTH"
);
}
);
width = 592;
}
);
unicode = 0035;
},
{
glyphname = six;
lastChange = "2016-07-15 21:22:19 +0000";
layers = (
{
layerId = "C40088C9-C375-45DB-8BB9-703F8F681F6F";
paths = (
{
closed = 1;
nodes = (
"359.333 -9 OFFCURVE",
"412.167 11.333 OFFCURVE",
"454.5 52 CURVE SMOOTH",
"496.833 92.667 OFFCURVE",
"518 144.333 OFFCURVE",
"518 207 CURVE SMOOTH",
"518 332.333 OFFCURVE",
"423.167 423 OFFCURVE",
"294.5 423 CURVE SMOOTH",
"230.167 423 OFFCURVE",
"176.667 401.667 OFFCURVE",
"134 359 CURVE",
"166 480.333 OFFCURVE",
"237.333 564.333 OFFCURVE",
"308 603 CURVE SMOOTH",
"320 609.667 OFFCURVE",
"326 617.333 OFFCURVE",
"326 626 CURVE SMOOTH",
"326 638 OFFCURVE",
"318.667 644 OFFCURVE",
"304 644 CURVE SMOOTH",
"285.306 644 OFFCURVE",
"210.534 598.096 OFFCURVE",
"147 497.5 CURVE SMOOTH",
"107 434.167 OFFCURVE",
"74 326.5 OFFCURVE",
"74 204.5 CURVE SMOOTH",
"74 143.5 OFFCURVE",
"95.167 92.667 OFFCURVE",
"137.5 52 CURVE SMOOTH",
"179.833 11.333 OFFCURVE",
"232.667 -9 OFFCURVE",
"296 -9 CURVE SMOOTH"
);
},
{
closed = 1;
nodes = (
"240.667 33 OFFCURVE",
"196.833 49 OFFCURVE",
"164.5 81 CURVE SMOOTH",
"132.167 113 OFFCURVE",
"116 155 OFFCURVE",
"116 207 CURVE SMOOTH",
"116 259 OFFCURVE",
"132.167 301 OFFCURVE",
"164.5 333 CURVE SMOOTH",
"196.833 365 OFFCURVE",
"240.667 381 OFFCURVE",
"296 381 CURVE SMOOTH",
"351.333 381 OFFCURVE",
"395.167 365 OFFCURVE",
"427.5 333 CURVE SMOOTH",
"459.833 301 OFFCURVE",
"476 259 OFFCURVE",
"476 207 CURVE SMOOTH",
"476 155 OFFCURVE",
"459.833 113 OFFCURVE",
"427.5 81 CURVE SMOOTH",
"395.167 49 OFFCURVE",
"351.333 33 OFFCURVE",
"296 33 CURVE SMOOTH"
);
}
);
width = 592;
},
{
layerId = "08BB1446-875F-4786-BB83-45BCD1FA68FA";
paths = (
{
closed = 1;
nodes = (
"370.667 -9 OFFCURVE",
"431.333 11.833 OFFCURVE",
"478 53.5 CURVE SMOOTH",
"524.667 95.167 OFFCURVE",
"548 148.833 OFFCURVE",
"548 214.5 CURVE SMOOTH",
"548 345.833 OFFCURVE",
"445.333 438 OFFCURVE",
"296 438 CURVE SMOOTH",
"239.333 438 OFFCURVE",
"190.333 425.667 OFFCURVE",
"149 401 CURVE",
"185 486.333 OFFCURVE",
"250.333 545.667 OFFCURVE",
"317 575 CURVE",
"337 585 OFFCURVE",
"347 597 OFFCURVE",
"347 611 CURVE SMOOTH",
"347 633 OFFCURVE",
"332.667 644 OFFCURVE",
"304 644 CURVE SMOOTH",
"273.838 644 OFFCURVE",
"190.849 595.143 OFFCURVE",
"122 495 CURVE SMOOTH",
"78 431 OFFCURVE",
"44 328.5 OFFCURVE",
"44 206.5 CURVE SMOOTH",
"44 145.5 OFFCURVE",
"67.333 94.333 OFFCURVE",
"114 53 CURVE SMOOTH",
"160.667 11.667 OFFCURVE",
"221.333 -9 OFFCURVE",
"296 -9 CURVE SMOOTH"
);
},
{
closed = 1;
nodes = (
"238.667 63 OFFCURVE",
"194.333 76.5 OFFCURVE",
"163 103.5 CURVE SMOOTH",
"131.667 130.5 OFFCURVE",
"116 167.333 OFFCURVE",
"116 214 CURVE SMOOTH",
"116 260.667 OFFCURVE",
"131.5 297.667 OFFCURVE",
"162.5 325 CURVE SMOOTH",
"193.5 352.333 OFFCURVE",
"238 366 OFFCURVE",
"296 366 CURVE SMOOTH",
"354 366 OFFCURVE",
"398.5 352.333 OFFCURVE",
"429.5 325 CURVE SMOOTH",
"460.5 297.667 OFFCURVE",
"476 260.667 OFFCURVE",
"476 214 CURVE SMOOTH",
"476 167.333 OFFCURVE",
"460.333 130.5 OFFCURVE",
"429 103.5 CURVE SMOOTH",
"397.667 76.5 OFFCURVE",
"353.333 63 OFFCURVE",
"296 63 CURVE SMOOTH"
);
}
);
width = 592;
},
{
layerId = "260E7E84-60BE-47D3-B29C-27583EB1270C";
paths = (
{
closed = 1;
nodes = (
"359.333 -9 OFFCURVE",
"412.167 11.333 OFFCURVE",
"454.5 52 CURVE SMOOTH",
"496.833 92.667 OFFCURVE",
"518 144.333 OFFCURVE",
"518 207 CURVE SMOOTH",
"518 332.333 OFFCURVE",
"423.167 423 OFFCURVE",
"294.5 423 CURVE SMOOTH",
"230.167 423 OFFCURVE",
"176.667 401.667 OFFCURVE",
"134 359 CURVE",
"166 480.333 OFFCURVE",
"237.333 564.333 OFFCURVE",
"308 603 CURVE SMOOTH",
"320 609.667 OFFCURVE",
"326 617.333 OFFCURVE",
"326 626 CURVE SMOOTH",
"326 638 OFFCURVE",
"318.667 644 OFFCURVE",
"304 644 CURVE SMOOTH",
"285.306 644 OFFCURVE",
"210.534 598.096 OFFCURVE",
"147 497.5 CURVE SMOOTH",
"107 434.167 OFFCURVE",
"74 326.5 OFFCURVE",
"74 204.5 CURVE SMOOTH",
"74 143.5 OFFCURVE",
"95.167 92.667 OFFCURVE",
"137.5 52 CURVE SMOOTH",
"179.833 11.333 OFFCURVE",
"232.667 -9 OFFCURVE",
"296 -9 CURVE SMOOTH"
);
},
{
closed = 1;
nodes = (
"240.667 33 OFFCURVE",
"196.833 49 OFFCURVE",
"164.5 81 CURVE SMOOTH",
"132.167 113 OFFCURVE",
"116 155 OFFCURVE",
"116 207 CURVE SMOOTH",
"116 259 OFFCURVE",
"132.167 301 OFFCURVE",
"164.5 333 CURVE SMOOTH",
"196.833 365 OFFCURVE",
"240.667 381 OFFCURVE",
"296 381 CURVE SMOOTH",
"351.333 381 OFFCURVE",
"395.167 365 OFFCURVE",
"427.5 333 CURVE SMOOTH",
"459.833 301 OFFCURVE",
"476 259 OFFCURVE",
"476 207 CURVE SMOOTH",
"476 155 OFFCURVE",
"459.833 113 OFFCURVE",
"427.5 81 CURVE SMOOTH",
"395.167 49 OFFCURVE",
"351.333 33 OFFCURVE",
"296 33 CURVE SMOOTH"
);
}
);
width = 592;
}
);
unicode = 0036;
},
{
glyphname = seven;
lastChange = "2016-07-15 21:22:19 +0000";
layers = (
{
layerId = "C40088C9-C375-45DB-8BB9-703F8F681F6F";
paths = (
{
closed = 1;
nodes = (
"279.667 -10 OFFCURVE",
"286.667 -2.333 OFFCURVE",
"292 13 CURVE SMOOTH",
"505 599 LINE SMOOTH",
"507.667 606.333 OFFCURVE",
"509 612.667 OFFCURVE",
"509 618 CURVE SMOOTH",
"509 630 OFFCURVE",
"502 636 OFFCURVE",
"488 636 CURVE SMOOTH",
"178 636 LINE SMOOTH",
"110 636 OFFCURVE",
"83 606.333 OFFCURVE",
"83 529 CURVE SMOOTH",
"83 509 OFFCURVE",
"89.667 499 OFFCURVE",
"103 499 CURVE",
"104 500 LINE",
"118 500 OFFCURVE",
"125 510.667 OFFCURVE",
"125 532 CURVE SMOOTH",
"125 553.333 OFFCURVE",
"129.5 569 OFFCURVE",
"138.5 579 CURVE SMOOTH",
"147.5 589 OFFCURVE",
"163.333 594 OFFCURVE",
"186 594 CURVE SMOOTH",
"459 594 LINE",
"253 28 LINE SMOOTH",
"250.333 20.667 OFFCURVE",
"249 14.333 OFFCURVE",
"249 9 CURVE SMOOTH",
"249 -3.667 OFFCURVE",
"256.333 -10 OFFCURVE",
"271 -10 CURVE SMOOTH"
);
}
);
width = 592;
},
{
layerId = "08BB1446-875F-4786-BB83-45BCD1FA68FA";
paths = (
{
closed = 1;
nodes = (
"285.333 -10 OFFCURVE",
"298.333 0.667 OFFCURVE",
"307 22 CURVE SMOOTH",
"535 590 LINE SMOOTH",
"537.667 596.667 OFFCURVE",
"539 604.333 OFFCURVE",
"539 613 CURVE SMOOTH",
"539 635 OFFCURVE",
"527 646 OFFCURVE",
"503 646 CURVE SMOOTH",
"163 646 LINE SMOOTH",
"87 646 OFFCURVE",
"53 610.667 OFFCURVE",
"53 524 CURVE SMOOTH",
"53 494 OFFCURVE",
"65 479 OFFCURVE",
"89 479 CURVE SMOOTH",
"113 479 OFFCURVE",
"125 494 OFFCURVE",
"125 524 CURVE SMOOTH",
"125 562.667 OFFCURVE",
"135 574 OFFCURVE",
"171 574 CURVE SMOOTH",
"453 574 LINE",
"232 47 LINE",
"216.456 18.133 OFFCURVE",
"230.335 -10 OFFCURVE",
"268 -10 CURVE SMOOTH"
);
}
);
width = 592;
},
{
layerId = "260E7E84-60BE-47D3-B29C-27583EB1270C";
paths = (
{
closed = 1;
nodes = (
"279.667 -10 OFFCURVE",
"286.667 -2.333 OFFCURVE",
"292 13 CURVE SMOOTH",
"505 599 LINE SMOOTH",
"507.667 606.333 OFFCURVE",
"509 612.667 OFFCURVE",
"509 618 CURVE SMOOTH",
"509 630 OFFCURVE",
"502 636 OFFCURVE",
"488 636 CURVE SMOOTH",
"178 636 LINE SMOOTH",
"110 636 OFFCURVE",
"83 606.333 OFFCURVE",
"83 529 CURVE SMOOTH",
"83 509 OFFCURVE",
"89.667 499 OFFCURVE",
"103 499 CURVE",
"104 500 LINE",
"118 500 OFFCURVE",
"125 510.667 OFFCURVE",
"125 532 CURVE SMOOTH",
"125 553.333 OFFCURVE",
"129.5 569 OFFCURVE",
"138.5 579 CURVE SMOOTH",
"147.5 589 OFFCURVE",
"163.333 594 OFFCURVE",
"186 594 CURVE SMOOTH",
"459 594 LINE",
"253 28 LINE SMOOTH",
"250.333 20.667 OFFCURVE",
"249 14.333 OFFCURVE",
"249 9 CURVE SMOOTH",
"249 -3.667 OFFCURVE",
"256.333 -10 OFFCURVE",
"271 -10 CURVE SMOOTH"
);
}
);
width = 592;
}
);
unicode = 0037;
},
{
glyphname = eight;
lastChange = "2016-07-15 21:22:19 +0000";
layers = (
{
layerId = "C40088C9-C375-45DB-8BB9-703F8F681F6F";
paths = (
{
closed = 1;
nodes = (
"311 0 LINE SMOOTH",
"379 0 OFFCURVE",
"420 6 OFFCURVE",
"460 30 CURVE SMOOTH",
"498.667 53.333 OFFCURVE",
"518 102.5 OFFCURVE",
"518 177.5 CURVE SMOOTH",
"518 252.5 OFFCURVE",
"495 302 OFFCURVE",
"449 326 CURVE",
"495 346.667 OFFCURVE",
"518 395.333 OFFCURVE",
"518 472 CURVE SMOOTH",
"518 527.333 OFFCURVE",
"506 568.5 OFFCURVE",
"482 595.5 CURVE SMOOTH",
"458 622.5 OFFCURVE",
"401 636 OFFCURVE",
"311 636 CURVE SMOOTH",
"282 636 LINE SMOOTH",
"253.333 636 OFFCURVE",
"230 635.333 OFFCURVE",
"212 634 CURVE SMOOTH",
"162.667 630 OFFCURVE",
"128.667 617.333 OFFCURVE",
"110 596 CURVE SMOOTH",
"86 568 OFFCURVE",
"74 526.667 OFFCURVE",
"74 472 CURVE SMOOTH",
"74 396 OFFCURVE",
"97.333 347.333 OFFCURVE",
"144 326 CURVE",
"97.333 301.333 OFFCURVE",
"74 252.333 OFFCURVE",
"74 179 CURVE SMOOTH",
"74 105.667 OFFCURVE",
"91 57.5 OFFCURVE",
"125 34.5 CURVE SMOOTH",
"159 11.5 OFFCURVE",
"211.333 0 OFFCURVE",
"282 0 CURVE SMOOTH"
);
},
{
closed = 1;
nodes = (
"186 42 OFFCURVE",
"158 57.667 OFFCURVE",
"142 75 CURVE SMOOTH",
"124.667 95.667 OFFCURVE",
"116 131.833 OFFCURVE",
"116 183.5 CURVE SMOOTH",
"116 235.167 OFFCURVE",
"130 269.333 OFFCURVE",
"158 286 CURVE SMOOTH",
"188.667 304.667 OFFCURVE",
"218 307 OFFCURVE",
"282 307 CURVE SMOOTH",
"311 307 LINE SMOOTH",
"422.143 307 OFFCURVE",
"476 296.017 OFFCURVE",
"476 174 CURVE SMOOTH",
"476 51.853 OFFCURVE",
"422.905 42 OFFCURVE",
"311 42 CURVE SMOOTH",
"282 42 LINE SMOOTH"
);
},
{
closed = 1;
nodes = (
"212 350.333 OFFCURVE",
"170 355.667 OFFCURVE",
"156 365 CURVE SMOOTH",
"149.333 369.667 OFFCURVE",
"142.333 376.667 OFFCURVE",
"135 386 CURVE SMOOTH",
"122.333 402 OFFCURVE",
"116 431.167 OFFCURVE",
"116 473.5 CURVE SMOOTH",
"116 515.833 OFFCURVE",
"123.667 546.5 OFFCURVE",
"139 565.5 CURVE SMOOTH",
"154.333 584.5 OFFCURVE",
"202 594 OFFCURVE",
"282 594 CURVE SMOOTH",
"311 594 LINE SMOOTH",
"451.689 594 OFFCURVE",
"454.264 576.108 OFFCURVE",
"468.5 531.5 CURVE SMOOTH",
"483.24 485.315 OFFCURVE",
"484.147 399.261 OFFCURVE",
"440 367 CURVE SMOOTH",
"424 355 OFFCURVE",
"384.333 349 OFFCURVE",
"321 349 CURVE SMOOTH",
"317.667 349 OFFCURVE",
"314.333 349 OFFCURVE",
"311 349 CURVE SMOOTH",
"282 349 LINE"
);
}
);
width = 592;
},
{
layerId = "08BB1446-875F-4786-BB83-45BCD1FA68FA";
paths = (
{
closed = 1;
nodes = (
"314 -5 LINE SMOOTH",
"394 -5 OFFCURVE",
"443.333 1.333 OFFCURVE",
"486 28 CURVE SMOOTH",
"527.333 53.333 OFFCURVE",
"548 101.667 OFFCURVE",
"548 173 CURVE SMOOTH",
"548 244.333 OFFCURVE",
"529.667 295.333 OFFCURVE",
"493 326 CURVE",
"529.667 351.333 OFFCURVE",
"548 395.833 OFFCURVE",
"548 459.5 CURVE SMOOTH",
"548 523.167 OFFCURVE",
"534 569.333 OFFCURVE",
"506 598 CURVE SMOOTH",
"478.667 626 OFFCURVE",
"414.667 640.333 OFFCURVE",
"314 641 CURVE",
"279 641 LINE",
"247 640.333 OFFCURVE",
"221 639.333 OFFCURVE",
"201 638 CURVE SMOOTH",
"145.667 632.667 OFFCURVE",
"107.333 619.333 OFFCURVE",
"86 598 CURVE SMOOTH",
"58 568.667 OFFCURVE",
"44 525.333 OFFCURVE",
"44 468 CURVE SMOOTH",
"44 400 OFFCURVE",
"62.667 352.667 OFFCURVE",
"100 326 CURVE",
"62.667 296 OFFCURVE",
"44 245.667 OFFCURVE",
"44 175 CURVE SMOOTH",
"44 104.333 OFFCURVE",
"62.833 56.667 OFFCURVE",
"100.5 32 CURVE SMOOTH",
"138.167 7.333 OFFCURVE",
"197.667 -5 OFFCURVE",
"279 -5 CURVE SMOOTH"
);
},
{
closed = 1;
nodes = (
"148.333 67 OFFCURVE",
"116 81.5 OFFCURVE",
"116 179.5 CURVE SMOOTH",
"116 277.5 OFFCURVE",
"149.667 292 OFFCURVE",
"279 292 CURVE SMOOTH",
"314 292 LINE SMOOTH",
"443.333 292 OFFCURVE",
"476 277.5 OFFCURVE",
"476 179.5 CURVE SMOOTH",
"476 81.5 OFFCURVE",
"443.333 67 OFFCURVE",
"314 67 CURVE SMOOTH",
"279 67 LINE SMOOTH"
);
},
{
closed = 1;
nodes = (
"243 364 OFFCURVE",
"214.333 365 OFFCURVE",
"193 367 CURVE SMOOTH",
"135.267 372.498 OFFCURVE",
"116 394.758 OFFCURVE",
"116 466 CURVE SMOOTH",
"116 507.745 OFFCURVE",
"121.44 538.007 OFFCURVE",
"142 550 CURVE SMOOTH",
"150 554.667 OFFCURVE",
"158.167 559 OFFCURVE",
"166.5 563 CURVE SMOOTH",
"174.833 567 OFFCURVE",
"211.667 569 OFFCURVE",
"277 569 CURVE SMOOTH",
"314 569 LINE SMOOTH",
"358 569 OFFCURVE",
"390.333 567.667 OFFCURVE",
"411 565 CURVE SMOOTH",
"447.405 560.252 OFFCURVE",
"468.331 544.151 OFFCURVE",
"473.5 509 CURVE SMOOTH",
"476.833 486.333 OFFCURVE",
"477 449.167 OFFCURVE",
"473 428.5 CURVE SMOOTH",
"469 407.833 OFFCURVE",
"465.667 392.167 OFFCURVE",
"451 383.5 CURVE SMOOTH",
"443.667 379.167 OFFCURVE",
"435.667 374.833 OFFCURVE",
"427 370.5 CURVE SMOOTH",
"418.333 366.167 OFFCURVE",
"380.667 364 OFFCURVE",
"314 364 CURVE SMOOTH",
"279 364 LINE SMOOTH"
);
}
);
width = 592;
},
{
layerId = "260E7E84-60BE-47D3-B29C-27583EB1270C";
paths = (
{
closed = 1;
nodes = (
"311 0 LINE SMOOTH",
"379 0 OFFCURVE",
"420 6 OFFCURVE",
"460 30 CURVE SMOOTH",
"498.667 53.333 OFFCURVE",
"518 102.5 OFFCURVE",
"518 177.5 CURVE SMOOTH",
"518 252.5 OFFCURVE",
"495 302 OFFCURVE",
"449 326 CURVE",
"495 346.667 OFFCURVE",
"518 395.333 OFFCURVE",
"518 472 CURVE SMOOTH",
"518 527.333 OFFCURVE",
"506 568.5 OFFCURVE",
"482 595.5 CURVE SMOOTH",
"458 622.5 OFFCURVE",
"401 636 OFFCURVE",
"311 636 CURVE SMOOTH",
"282 636 LINE SMOOTH",
"253.333 636 OFFCURVE",
"230 635.333 OFFCURVE",
"212 634 CURVE SMOOTH",
"162.667 630 OFFCURVE",
"128.667 617.333 OFFCURVE",
"110 596 CURVE SMOOTH",
"86 568 OFFCURVE",
"74 526.667 OFFCURVE",
"74 472 CURVE SMOOTH",
"74 396 OFFCURVE",
"97.333 347.333 OFFCURVE",
"144 326 CURVE",
"97.333 301.333 OFFCURVE",
"74 252.333 OFFCURVE",
"74 179 CURVE SMOOTH",
"74 105.667 OFFCURVE",
"91 57.5 OFFCURVE",
"125 34.5 CURVE SMOOTH",
"159 11.5 OFFCURVE",
"211.333 0 OFFCURVE",
"282 0 CURVE SMOOTH"
);
},
{
closed = 1;
nodes = (
"186 42 OFFCURVE",
"158 57.667 OFFCURVE",
"142 75 CURVE SMOOTH",
"124.667 95.667 OFFCURVE",
"116 131.833 OFFCURVE",
"116 183.5 CURVE SMOOTH",
"116 235.167 OFFCURVE",
"130 269.333 OFFCURVE",
"158 286 CURVE SMOOTH",
"188.667 304.667 OFFCURVE",
"218 307 OFFCURVE",
"282 307 CURVE SMOOTH",
"311 307 LINE SMOOTH",
"422.143 307 OFFCURVE",
"476 296.017 OFFCURVE",
"476 174 CURVE SMOOTH",
"476 51.853 OFFCURVE",
"422.905 42 OFFCURVE",
"311 42 CURVE SMOOTH",
"282 42 LINE SMOOTH"
);
},
{
closed = 1;
nodes = (
"212 350.333 OFFCURVE",
"170 355.667 OFFCURVE",
"156 365 CURVE SMOOTH",
"149.333 369.667 OFFCURVE",
"142.333 376.667 OFFCURVE",
"135 386 CURVE SMOOTH",
"122.333 402 OFFCURVE",
"116 431.167 OFFCURVE",
"116 473.5 CURVE SMOOTH",
"116 515.833 OFFCURVE",
"123.667 546.5 OFFCURVE",
"139 565.5 CURVE SMOOTH",
"154.333 584.5 OFFCURVE",
"202 594 OFFCURVE",
"282 594 CURVE SMOOTH",
"311 594 LINE SMOOTH",
"451.689 594 OFFCURVE",
"454.264 576.108 OFFCURVE",
"468.5 531.5 CURVE SMOOTH",
"483.24 485.315 OFFCURVE",
"484.147 399.261 OFFCURVE",
"440 367 CURVE SMOOTH",
"424 355 OFFCURVE",
"384.333 349 OFFCURVE",
"321 349 CURVE SMOOTH",
"317.667 349 OFFCURVE",
"314.333 349 OFFCURVE",
"311 349 CURVE SMOOTH",
"282 349 LINE"
);
}
);
width = 592;
}
);
unicode = 0038;
},
{
glyphname = nine;
lastChange = "2016-07-15 21:22:19 +0000";
layers = (
{
layerId = "C40088C9-C375-45DB-8BB9-703F8F681F6F";
paths = (
{
closed = 1;
nodes = (
"339.286 -16 OFFCURVE",
"518 174.745 OFFCURVE",
"518 470 CURVE SMOOTH",
"518 580.667 OFFCURVE",
"449 636 OFFCURVE",
"311 636 CURVE SMOOTH",
"261.667 636 OFFCURVE",
"213.667 627.667 OFFCURVE",
"167 611 CURVE SMOOTH",
"111 591 OFFCURVE",
"74 541.667 OFFCURVE",
"74 471 CURVE SMOOTH",
"74 361.667 OFFCURVE",
"153 307 OFFCURVE",
"311 307 CURVE SMOOTH",
"380.333 307 OFFCURVE",
"431.667 319.667 OFFCURVE",
"465 345 CURVE",
"431.233 176.163 OFFCURVE",
"333.934 82.248 OFFCURVE",
"251.5 45.5 CURVE SMOOTH",
"196.167 20.833 OFFCURVE",
"149 34.167 OFFCURVE",
"149 5.5 CURVE SMOOTH",
"149 -8.833 OFFCURVE",
"157.667 -16 OFFCURVE",
"175 -16 CURVE SMOOTH"
);
},
{
closed = 1;
nodes = (
"243 350.333 OFFCURVE",
"192.667 360.667 OFFCURVE",
"160 380 CURVE",
"136 396 OFFCURVE",
"116 428.333 OFFCURVE",
"116 471 CURVE SMOOTH",
"116 553 OFFCURVE",
"181 594 OFFCURVE",
"311 594 CURVE SMOOTH",
"421 594 OFFCURVE",
"476 552.667 OFFCURVE",
"476 470 CURVE SMOOTH",
"476 389.333 OFFCURVE",
"421 349 OFFCURVE",
"311 349 CURVE"
);
}
);
width = 592;
},
{
layerId = "08BB1446-875F-4786-BB83-45BCD1FA68FA";
paths = (
{
closed = 1;
nodes = (
"357.437 -16 OFFCURVE",
"548 177.359 OFFCURVE",
"548 466 CURVE SMOOTH",
"548 582.667 OFFCURVE",
"470 641 OFFCURVE",
"314 641 CURVE SMOOTH",
"311.333 641 OFFCURVE",
"308.333 641 OFFCURVE",
"305 641 CURVE SMOOTH",
"275 641 OFFCURVE",
"242.667 638 OFFCURVE",
"208 632 CURVE SMOOTH",
"166.667 625.333 OFFCURVE",
"129.333 609.333 OFFCURVE",
"96 584 CURVE SMOOTH",
"61.333 557.333 OFFCURVE",
"44 518 OFFCURVE",
"44 466 CURVE SMOOTH",
"44 350 OFFCURVE",
"134 292 OFFCURVE",
"314 292 CURVE SMOOTH",
"375.333 292 OFFCURVE",
"423 299.667 OFFCURVE",
"457 315 CURVE",
"419.038 175.805 OFFCURVE",
"316.633 101.325 OFFCURVE",
"235.5 72 CURVE",
"148.667 49 OFFCURVE",
"115.833 59 OFFCURVE",
"119 21 CURVE",
"119 -3.667 OFFCURVE",
"132.667 -16 OFFCURVE",
"160 -16 CURVE SMOOTH"
);
},
{
closed = 1;
nodes = (
"291.333 364 OFFCURVE",
"272 364.667 OFFCURVE",
"256 366 CURVE SMOOTH",
"162.667 371.333 OFFCURVE",
"116 404.667 OFFCURVE",
"116 466 CURVE SMOOTH",
"116 534.667 OFFCURVE",
"182 569 OFFCURVE",
"314 569 CURVE SMOOTH",
"432.667 569 OFFCURVE",
"476 532.667 OFFCURVE",
"476 466 CURVE SMOOTH",
"476 399.333 OFFCURVE",
"435.333 364 OFFCURVE",
"314 364 CURVE SMOOTH"
);
}
);
width = 592;
},
{
layerId = "260E7E84-60BE-47D3-B29C-27583EB1270C";
paths = (
{
closed = 1;
nodes = (
"339.286 -16 OFFCURVE",
"518 174.745 OFFCURVE",
"518 470 CURVE SMOOTH",
"518 580.667 OFFCURVE",
"449 636 OFFCURVE",
"311 636 CURVE SMOOTH",
"261.667 636 OFFCURVE",
"213.667 627.667 OFFCURVE",
"167 611 CURVE SMOOTH",
"111 591 OFFCURVE",
"74 541.667 OFFCURVE",
"74 471 CURVE SMOOTH",
"74 361.667 OFFCURVE",
"153 307 OFFCURVE",
"311 307 CURVE SMOOTH",
"380.333 307 OFFCURVE",
"431.667 319.667 OFFCURVE",
"465 345 CURVE",
"431.233 176.163 OFFCURVE",
"333.934 82.248 OFFCURVE",
"251.5 45.5 CURVE SMOOTH",
"196.167 20.833 OFFCURVE",
"149 34.167 OFFCURVE",
"149 5.5 CURVE SMOOTH",
"149 -8.833 OFFCURVE",
"157.667 -16 OFFCURVE",
"175 -16 CURVE SMOOTH"
);
},
{
closed = 1;
nodes = (
"243 350.333 OFFCURVE",
"192.667 360.667 OFFCURVE",
"160 380 CURVE",
"136 396 OFFCURVE",
"116 428.333 OFFCURVE",
"116 471 CURVE SMOOTH",
"116 553 OFFCURVE",
"181 594 OFFCURVE",
"311 594 CURVE SMOOTH",
"421 594 OFFCURVE",
"476 552.667 OFFCURVE",
"476 470 CURVE SMOOTH",
"476 389.333 OFFCURVE",
"421 349 OFFCURVE",
"311 349 CURVE"
);
}
);
width = 592;
}
);
unicode = 0039;
},
{
glyphname = colon;
lastChange = "2016-07-15 21:22:19 +0000";
layers = (
{
layerId = "C40088C9-C375-45DB-8BB9-703F8F681F6F";
paths = (
{
closed = 1;
nodes = (
"73 33.882 OFFCURVE",
"165 33.882 OFFCURVE",
"165 80 CURVE SMOOTH",
"165 126.653 OFFCURVE",
"76.244 125.419 OFFCURVE",
"73 80 CURVE"
);
},
{
closed = 1;
nodes = (
"73 386.882 OFFCURVE",
"165 386.882 OFFCURVE",
"165 433 CURVE SMOOTH",
"165 479.653 OFFCURVE",
"76.244 478.419 OFFCURVE",
"73 433 CURVE"
);
}
);
width = 238;
},
{
layerId = "08BB1446-875F-4786-BB83-45BCD1FA68FA";
paths = (
{
closed = 1;
nodes = (
"73 366.647 OFFCURVE",
"195 366.647 OFFCURVE",
"195 433 CURVE SMOOTH",
"195 499.353 OFFCURVE",
"73 499.353 OFFCURVE",
"73 433 CURVE SMOOTH"
);
},
{
closed = 1;
nodes = (
"73 13.647 OFFCURVE",
"195 13.647 OFFCURVE",
"195 80 CURVE SMOOTH",
"195 146.353 OFFCURVE",
"73 146.353 OFFCURVE",
"73 80 CURVE SMOOTH"
);
}
);
width = 268;
},
{
layerId = "260E7E84-60BE-47D3-B29C-27583EB1270C";
paths = (
{
closed = 1;
nodes = (
"73 33.882 OFFCURVE",
"165 33.882 OFFCURVE",
"165 80 CURVE SMOOTH",
"165 126.653 OFFCURVE",
"76.244 125.419 OFFCURVE",
"73 80 CURVE"
);
},
{
closed = 1;
nodes = (
"73 386.882 OFFCURVE",
"165 386.882 OFFCURVE",
"165 433 CURVE SMOOTH",
"165 479.653 OFFCURVE",
"76.244 478.419 OFFCURVE",
"73 433 CURVE"
);
}
);
width = 238;
}
);
unicode = 003A;
},
{
glyphname = semicolon;
lastChange = "2016-07-15 21:22:19 +0000";
layers = (
{
layerId = "C40088C9-C375-45DB-8BB9-703F8F681F6F";
paths = (
{
closed = 1;
nodes = (
"104.333 -29 OFFCURVE",
"111 -22 OFFCURVE",
"117 -8 CURVE",
"159 75 LINE",
"169.491 93.36 OFFCURVE",
"156.14 112 OFFCURVE",
"127 112 CURVE SMOOTH",
"117.667 112 OFFCURVE",
"111 105.333 OFFCURVE",
"107 92 CURVE SMOOTH",
"83 6 LINE SMOOTH",
"81 0 OFFCURVE",
"80 -5 OFFCURVE",
"80 -9 CURVE SMOOTH",
"80 -22.333 OFFCURVE",
"85.667 -29 OFFCURVE",
"97 -29 CURVE SMOOTH"
);
},
{
closed = 1;
nodes = (
"73 386.882 OFFCURVE",
"165 386.882 OFFCURVE",
"165 433 CURVE SMOOTH",
"165 479.653 OFFCURVE",
"76.244 478.419 OFFCURVE",
"73 433 CURVE"
);
}
);
width = 241;
},
{
layerId = "08BB1446-875F-4786-BB83-45BCD1FA68FA";
paths = (
{
closed = 1;
nodes = (
"126 -44 OFFCURVE",
"137.333 -34 OFFCURVE",
"146 -14 CURVE",
"186 69 LINE SMOOTH",
"197.902 92.804 OFFCURVE",
"195.112 127 OFFCURVE",
"142 127 CURVE SMOOTH",
"124.667 127 OFFCURVE",
"113 116.667 OFFCURVE",
"107 96 CURVE SMOOTH",
"83 9 LINE",
"80 -9 LINE",
"80 -32.333 OFFCURVE",
"90.667 -44 OFFCURVE",
"112 -44 CURVE SMOOTH"
);
},
{
closed = 1;
nodes = (
"73 366.647 OFFCURVE",
"195 366.647 OFFCURVE",
"195 433 CURVE SMOOTH",
"195 499.353 OFFCURVE",
"73 499.353 OFFCURVE",
"73 433 CURVE SMOOTH"
);
}
);
width = 271;
},
{
layerId = "260E7E84-60BE-47D3-B29C-27583EB1270C";
paths = (
{
closed = 1;
nodes = (
"104.333 -29 OFFCURVE",
"111 -22 OFFCURVE",
"117 -8 CURVE",
"159 75 LINE",
"169.491 93.36 OFFCURVE",
"156.14 112 OFFCURVE",
"127 112 CURVE SMOOTH",
"117.667 112 OFFCURVE",
"111 105.333 OFFCURVE",
"107 92 CURVE SMOOTH",
"83 6 LINE SMOOTH",
"81 0 OFFCURVE",
"80 -5 OFFCURVE",
"80 -9 CURVE SMOOTH",
"80 -22.333 OFFCURVE",
"85.667 -29 OFFCURVE",
"97 -29 CURVE SMOOTH"
);
},
{
closed = 1;
nodes = (
"73 386.882 OFFCURVE",
"165 386.882 OFFCURVE",
"165 433 CURVE SMOOTH",
"165 479.653 OFFCURVE",
"76.244 478.419 OFFCURVE",
"73 433 CURVE"
);
}
);
width = 241;
}
);
unicode = 003B;
},
{
glyphname = less;
lastChange = "2016-07-15 21:22:19 +0000";
layers = (
{
layerId = "C40088C9-C375-45DB-8BB9-703F8F681F6F";
paths = (
{
closed = 1;
nodes = (
"443.667 94 OFFCURVE",
"450 102.333 OFFCURVE",
"450 119 CURVE SMOOTH",
"450 125 OFFCURVE",
"444.333 131 OFFCURVE",
"433 137 CURVE SMOOTH",
"95 333 LINE",
"434 527 LINE",
"444.667 535 OFFCURVE",
"450 543 OFFCURVE",
"450 551 CURVE SMOOTH",
"450 563 OFFCURVE",
"443.333 569 OFFCURVE",
"430 569 CURVE SMOOTH",
"424 569 OFFCURVE",
"418 567.333 OFFCURVE",
"412 564 CURVE SMOOTH",
"49 354 LINE SMOOTH",
"27.667 342 OFFCURVE",
"27.667 324.667 OFFCURVE",
"49 310 CURVE",
"412 100 LINE SMOOTH",
"420 96 OFFCURVE",
"426.333 94 OFFCURVE",
"431 94 CURVE SMOOTH"
);
}
);
width = 522;
},
{
layerId = "08BB1446-875F-4786-BB83-45BCD1FA68FA";
paths = (
{
closed = 1;
nodes = (
"442.565 71.686 OFFCURVE",
"480 79.785 OFFCURVE",
"480 116 CURVE SMOOTH",
"480 128 OFFCURVE",
"471.667 139 OFFCURVE",
"455 149 CURVE SMOOTH",
"140 333 LINE",
"455 515 LINE",
"471.445 523.223 OFFCURVE",
"492.997 554.303 OFFCURVE",
"470 575 CURVE SMOOTH",
"456.667 587 OFFCURVE",
"436 586.667 OFFCURVE",
"420 576 CURVE",
"55 366 LINE SMOOTH",
"25.667 348.667 OFFCURVE",
"25.667 316.667 OFFCURVE",
"55 298 CURVE",
"419 88 LINE"
);
}
);
width = 548;
},
{
layerId = "260E7E84-60BE-47D3-B29C-27583EB1270C";
paths = (
{
closed = 1;
nodes = (
"443.667 94 OFFCURVE",
"450 102.333 OFFCURVE",
"450 119 CURVE SMOOTH",
"450 125 OFFCURVE",
"444.333 131 OFFCURVE",
"433 137 CURVE SMOOTH",
"95 333 LINE",
"434 527 LINE",
"444.667 535 OFFCURVE",
"450 543 OFFCURVE",
"450 551 CURVE SMOOTH",
"450 563 OFFCURVE",
"443.333 569 OFFCURVE",
"430 569 CURVE SMOOTH",
"424 569 OFFCURVE",
"418 567.333 OFFCURVE",
"412 564 CURVE SMOOTH",
"49 354 LINE SMOOTH",
"27.667 342 OFFCURVE",
"27.667 324.667 OFFCURVE",
"49 310 CURVE",
"412 100 LINE SMOOTH",
"420 96 OFFCURVE",
"426.333 94 OFFCURVE",
"431 94 CURVE SMOOTH"
);
}
);
width = 522;
}
);
unicode = 003C;
},
{
glyphname = equal;
lastChange = "2016-07-15 21:22:19 +0000";
layers = (
{
layerId = "C40088C9-C375-45DB-8BB9-703F8F681F6F";
paths = (
{
closed = 1;
nodes = (
"350 362 LINE SMOOTH",
"369.333 362 OFFCURVE",
"379 368.667 OFFCURVE",
"379 382 CURVE SMOOTH",
"379 397.333 OFFCURVE",
"369.333 405 OFFCURVE",
"350 405 CURVE SMOOTH",
"105 405 LINE",
"104.333 405 OFFCURVE",
"103.667 405 OFFCURVE",
"103 405 CURVE",
"87 405 OFFCURVE",
"79 398 OFFCURVE",
"79 384 CURVE SMOOTH",
"79 369.333 OFFCURVE",
"87.667 362 OFFCURVE",
"105 362 CURVE SMOOTH"
);
},
{
closed = 1;
nodes = (
"103.667 259 OFFCURVE",
"104.333 259 OFFCURVE",
"105 259 CURVE",
"350 259 LINE SMOOTH",
"369.333 259 OFFCURVE",
"379 265.667 OFFCURVE",
"379 279 CURVE SMOOTH",
"379 294.333 OFFCURVE",
"369.333 302 OFFCURVE",
"350 302 CURVE SMOOTH",
"105 302 LINE SMOOTH",
"87.667 302 OFFCURVE",
"79 294.667 OFFCURVE",
"79 280 CURVE SMOOTH",
"79 266 OFFCURVE",
"87 259 OFFCURVE",
"103 259 CURVE"
);
}
);
width = 458;
},
{
layerId = "08BB1446-875F-4786-BB83-45BCD1FA68FA";
paths = (
{
closed = 1;
nodes = (
"365 347 LINE SMOOTH",
"390.333 347 OFFCURVE",
"409 360.667 OFFCURVE",
"409 382 CURVE SMOOTH",
"409 407.333 OFFCURVE",
"394.333 420 OFFCURVE",
"365 420 CURVE SMOOTH",
"120 420 LINE SMOOTH",
"90.667 420 OFFCURVE",
"79 401.333 OFFCURVE",
"79 384 CURVE SMOOTH",
"79 359.333 OFFCURVE",
"92.667 347 OFFCURVE",
"120 347 CURVE SMOOTH"
);
},
{
closed = 1;
nodes = (
"365 244 LINE SMOOTH",
"390.333 244 OFFCURVE",
"409 257.667 OFFCURVE",
"409 279 CURVE SMOOTH",
"409 304.333 OFFCURVE",
"394.333 317 OFFCURVE",
"365 317 CURVE SMOOTH",
"120 317 LINE SMOOTH",
"90.667 317 OFFCURVE",
"79 298.333 OFFCURVE",
"79 281 CURVE SMOOTH",
"79 256.333 OFFCURVE",
"92.667 244 OFFCURVE",
"120 244 CURVE SMOOTH"
);
}
);
width = 488;
},
{
layerId = "260E7E84-60BE-47D3-B29C-27583EB1270C";
paths = (
{
closed = 1;
nodes = (
"350 362 LINE SMOOTH",
"369.333 362 OFFCURVE",
"379 368.667 OFFCURVE",
"379 382 CURVE SMOOTH",
"379 397.333 OFFCURVE",
"369.333 405 OFFCURVE",
"350 405 CURVE SMOOTH",
"105 405 LINE",
"104.333 405 OFFCURVE",
"103.667 405 OFFCURVE",
"103 405 CURVE",
"87 405 OFFCURVE",
"79 398 OFFCURVE",
"79 384 CURVE SMOOTH",
"79 369.333 OFFCURVE",
"87.667 362 OFFCURVE",
"105 362 CURVE SMOOTH"
);
},
{
closed = 1;
nodes = (
"103.667 259 OFFCURVE",
"104.333 259 OFFCURVE",
"105 259 CURVE",
"350 259 LINE SMOOTH",
"369.333 259 OFFCURVE",
"379 265.667 OFFCURVE",
"379 279 CURVE SMOOTH",
"379 294.333 OFFCURVE",
"369.333 302 OFFCURVE",
"350 302 CURVE SMOOTH",
"105 302 LINE SMOOTH",
"87.667 302 OFFCURVE",
"79 294.667 OFFCURVE",
"79 280 CURVE SMOOTH",
"79 266 OFFCURVE",
"87 259 OFFCURVE",
"103 259 CURVE"
);
}
);
width = 458;
}
);
unicode = 003D;
},
{
glyphname = greater;
lastChange = "2016-07-15 21:22:19 +0000";
layers = (
{
layerId = "C40088C9-C375-45DB-8BB9-703F8F681F6F";
paths = (
{
closed = 1;
nodes = (
"98.667 94 OFFCURVE",
"104.333 95.667 OFFCURVE",
"109 99 CURVE SMOOTH",
"473 309 LINE SMOOTH",
"494.333 321 OFFCURVE",
"494.333 338.333 OFFCURVE",
"473 353 CURVE",
"109 563 LINE SMOOTH",
"102.333 567 OFFCURVE",
"96.333 569 OFFCURVE",
"91 569 CURVE",
"78.333 568.333 OFFCURVE",
"72 560 OFFCURVE",
"72 544 CURVE SMOOTH",
"72 537.333 OFFCURVE",
"77.667 531.333 OFFCURVE",
"89 526 CURVE",
"427 331 LINE",
"88 136 LINE SMOOTH",
"77.333 129.333 OFFCURVE",
"72 121.667 OFFCURVE",
"72 113 CURVE SMOOTH",
"72 100.333 OFFCURVE",
"78.667 94 OFFCURVE",
"92 94 CURVE SMOOTH"
);
}
);
width = 522;
},
{
layerId = "08BB1446-875F-4786-BB83-45BCD1FA68FA";
paths = (
{
closed = 1;
nodes = (
"92.667 76.333 OFFCURVE",
"111.667 76 OFFCURVE",
"129 88 CURVE",
"493 298 LINE",
"522.333 316.667 OFFCURVE",
"522.333 348.667 OFFCURVE",
"493 366 CURVE SMOOTH",
"128 576 LINE",
"103.828 592.115 OFFCURVE",
"68 581.825 OFFCURVE",
"68 552.5 CURVE SMOOTH",
"68 534.5 OFFCURVE",
"82.333 520.333 OFFCURVE",
"93 515 CURVE",
"408 333 LINE",
"93 149 LINE SMOOTH",
"59.667 129 OFFCURVE",
"63.333 104.333 OFFCURVE",
"82 87 CURVE SMOOTH"
);
}
);
width = 548;
},
{
layerId = "260E7E84-60BE-47D3-B29C-27583EB1270C";
paths = (
{
closed = 1;
nodes = (
"98.667 94 OFFCURVE",
"104.333 95.667 OFFCURVE",
"109 99 CURVE SMOOTH",
"473 309 LINE SMOOTH",
"494.333 321 OFFCURVE",
"494.333 338.333 OFFCURVE",
"473 353 CURVE",
"109 563 LINE SMOOTH",
"102.333 567 OFFCURVE",
"96.333 569 OFFCURVE",
"91 569 CURVE",
"78.333 568.333 OFFCURVE",
"72 560 OFFCURVE",
"72 544 CURVE SMOOTH",
"72 537.333 OFFCURVE",
"77.667 531.333 OFFCURVE",
"89 526 CURVE",
"427 331 LINE",
"88 136 LINE SMOOTH",
"77.333 129.333 OFFCURVE",
"72 121.667 OFFCURVE",
"72 113 CURVE SMOOTH",
"72 100.333 OFFCURVE",
"78.667 94 OFFCURVE",
"92 94 CURVE SMOOTH"
);
}
);
width = 522;
}
);
unicode = 003E;
},
{
glyphname = question;
lastChange = "2016-07-15 21:22:19 +0000";
layers = (
{
layerId = "C40088C9-C375-45DB-8BB9-703F8F681F6F";
paths = (
{
closed = 1;
nodes = (
"226 156.667 OFFCURVE",
"268 156.667 OFFCURVE",
"268 194 CURVE SMOOTH",
"268 303 LINE",
"362 329 LINE SMOOTH",
"452.667 354.333 OFFCURVE",
"485 396 OFFCURVE",
"485 484 CURVE SMOOTH",
"485 572 OFFCURVE",
"438.667 644 OFFCURVE",
"324 644 CURVE SMOOTH",
"248 644 LINE SMOOTH",
"178.667 644 OFFCURVE",
"138 638 OFFCURVE",
"98 614 CURVE SMOOTH",
"59.333 591.333 OFFCURVE",
"39.667 543.667 OFFCURVE",
"39 471 CURVE",
"39 433.667 OFFCURVE",
"82 433.667 OFFCURVE",
"82 471 CURVE SMOOTH",
"82 593.277 OFFCURVE",
"134.424 602 OFFCURVE",
"248 602 CURVE SMOOTH",
"341 602 LINE SMOOTH",
"411.667 602 OFFCURVE",
"443 542.333 OFFCURVE",
"443 485 CURVE SMOOTH",
"443 427.667 OFFCURVE",
"416.333 386.667 OFFCURVE",
"379 376 CURVE SMOOTH",
"226 334 LINE",
"226 194 LINE SMOOTH"
);
},
{
closed = 1;
nodes = (
"249.441 -31.516 OFFCURVE",
"325.941 24.261 OFFCURVE",
"277.5 54 CURVE",
"242.281 89.516 OFFCURVE",
"169.337 33.739 OFFCURVE",
"216 4 CURVE"
);
}
);
width = 528;
},
{
layerId = "08BB1446-875F-4786-BB83-45BCD1FA68FA";
paths = (
{
closed = 1;
nodes = (
"224 135.961 OFFCURVE",
"296 135.961 OFFCURVE",
"296 194 CURVE SMOOTH",
"296 291 LINE",
"378 314 LINE SMOOTH",
"476.667 342 OFFCURVE",
"513 391.167 OFFCURVE",
"513 482.5 CURVE SMOOTH",
"513 528.167 OFFCURVE",
"500.667 568 OFFCURVE",
"476 602 CURVE SMOOTH",
"450.667 636.667 OFFCURVE",
"401 659 OFFCURVE",
"337 659 CURVE SMOOTH",
"261 659 LINE SMOOTH",
"109 659 OFFCURVE",
"37 620.333 OFFCURVE",
"37 471 CURVE SMOOTH",
"37 412.961 OFFCURVE",
"110 412.961 OFFCURVE",
"110 471 CURVE SMOOTH",
"110 572.333 OFFCURVE",
"141 587 OFFCURVE",
"261 587 CURVE SMOOTH",
"354 587 LINE SMOOTH",
"416.667 587 OFFCURVE",
"441 534.333 OFFCURVE",
"441 485 CURVE SMOOTH",
"441 435.667 OFFCURVE",
"418.333 399 OFFCURVE",
"389 391 CURVE SMOOTH",
"224 346 LINE",
"224 194 LINE SMOOTH"
);
},
{
closed = 1;
nodes = (
"199 -37.353 OFFCURVE",
"321 -37.353 OFFCURVE",
"321 29 CURVE SMOOTH",
"321 95.353 OFFCURVE",
"199 95.353 OFFCURVE",
"199 29 CURVE SMOOTH"
);
}
);
width = 553;
},
{
layerId = "260E7E84-60BE-47D3-B29C-27583EB1270C";
paths = (
{
closed = 1;
nodes = (
"226 156.667 OFFCURVE",
"268 156.667 OFFCURVE",
"268 194 CURVE SMOOTH",
"268 303 LINE",
"362 329 LINE SMOOTH",
"452.667 354.333 OFFCURVE",
"485 396 OFFCURVE",
"485 484 CURVE SMOOTH",
"485 572 OFFCURVE",
"438.667 644 OFFCURVE",
"324 644 CURVE SMOOTH",
"248 644 LINE SMOOTH",
"178.667 644 OFFCURVE",
"138 638 OFFCURVE",
"98 614 CURVE SMOOTH",
"59.333 591.333 OFFCURVE",
"39.667 543.667 OFFCURVE",
"39 471 CURVE",
"39 433.667 OFFCURVE",
"82 433.667 OFFCURVE",
"82 471 CURVE SMOOTH",
"82 593.277 OFFCURVE",
"134.424 602 OFFCURVE",
"248 602 CURVE SMOOTH",
"341 602 LINE SMOOTH",
"411.667 602 OFFCURVE",
"443 542.333 OFFCURVE",
"443 485 CURVE SMOOTH",
"443 427.667 OFFCURVE",
"416.333 386.667 OFFCURVE",
"379 376 CURVE SMOOTH",
"226 334 LINE",
"226 194 LINE SMOOTH"
);
},
{
closed = 1;
nodes = (
"249.441 -31.516 OFFCURVE",
"325.941 24.261 OFFCURVE",
"277.5 54 CURVE",
"242.281 89.516 OFFCURVE",
"169.337 33.739 OFFCURVE",
"216 4 CURVE"
);
}
);
width = 528;
}
);
unicode = 003F;
},
{
glyphname = at;
lastChange = "2016-07-15 21:22:19 +0000";
layers = (
{
layerId = "C40088C9-C375-45DB-8BB9-703F8F681F6F";
paths = (
{
closed = 1;
nodes = (
"420 0 LINE SMOOTH",
"502.667 0 OFFCURVE",
"516 47.333 OFFCURVE",
"516 110 CURVE SMOOTH",
"516 127.333 OFFCURVE",
"509 136.333 OFFCURVE",
"495 137 CURVE",
"481 137 OFFCURVE",
"474 126.167 OFFCURVE",
"474 104.5 CURVE SMOOTH",
"474 82.833 OFFCURVE",
"469.5 67 OFFCURVE",
"460.5 57 CURVE SMOOTH",
"451.5 47 OFFCURVE",
"435.667 42 OFFCURVE",
"413 42 CURVE SMOOTH",
"279 42 LINE SMOOTH",
"169.667 42 OFFCURVE",
"113 115.667 OFFCURVE",
"113 241 CURVE SMOOTH",
"113 395 LINE SMOOTH",
"113 520.333 OFFCURVE",
"169.667 594 OFFCURVE",
"279 594 CURVE SMOOTH",
"308 594 LINE SMOOTH",
"417.333 594 OFFCURVE",
"474 522.833 OFFCURVE",
"474 387.5 CURVE SMOOTH",
"474 319.833 OFFCURVE",
"465 277.667 OFFCURVE",
"447 261 CURVE SMOOTH",
"438.333 253 OFFCURVE",
"424.667 247 OFFCURVE",
"406 243 CURVE",
"414.667 264.333 OFFCURVE",
"419 297.167 OFFCURVE",
"419 341.5 CURVE SMOOTH",
"419 385.833 OFFCURVE",
"410.5 418.833 OFFCURVE",
"393.5 440.5 CURVE SMOOTH",
"376.5 462.167 OFFCURVE",
"344.5 473 OFFCURVE",
"297.5 473 CURVE SMOOTH",
"203.5 473 OFFCURVE",
"176 433.5 OFFCURVE",
"176 331.5 CURVE SMOOTH",
"176 280.5 OFFCURVE",
"184.5 244.167 OFFCURVE",
"201.5 222.5 CURVE SMOOTH",
"218.5 200.833 OFFCURVE",
"252.5 190 OFFCURVE",
"303.5 190 CURVE SMOOTH",
"354.5 190 OFFCURVE",
"395.5 195.5 OFFCURVE",
"426.5 206.5 CURVE SMOOTH",
"457.5 217.5 OFFCURVE",
"480.167 235.167 OFFCURVE",
"494.5 259.5 CURVE SMOOTH",
"508.833 283.833 OFFCURVE",
"516 331.333 OFFCURVE",
"516 402 CURVE SMOOTH",
"516 472.667 OFFCURVE",
"497.167 529.333 OFFCURVE",
"459.5 572 CURVE SMOOTH",
"421.833 614.667 OFFCURVE",
"371.333 636 OFFCURVE",
"308 636 CURVE SMOOTH",
"279 636 LINE SMOOTH",
"152.333 636 OFFCURVE",
"71 545.667 OFFCURVE",
"71 395 CURVE SMOOTH",
"71 241 LINE SMOOTH",
"71 90.333 OFFCURVE",
"152.333 0 OFFCURVE",
"279 0 CURVE SMOOTH"
);
},
{
closed = 1;
nodes = (
"228.833 232 OFFCURVE",
"218 253.5 OFFCURVE",
"218 331.5 CURVE SMOOTH",
"218 409.5 OFFCURVE",
"228.833 431 OFFCURVE",
"297.5 431 CURVE SMOOTH",
"366.167 431 OFFCURVE",
"377 409.5 OFFCURVE",
"377 331.5 CURVE SMOOTH",
"377 253.5 OFFCURVE",
"366.167 232 OFFCURVE",
"297.5 232 CURVE SMOOTH"
);
}
);
width = 584;
},
{
layerId = "08BB1446-875F-4786-BB83-45BCD1FA68FA";
paths = (
{
closed = 1;
nodes = (
"433 -15 LINE SMOOTH",
"519.667 -15 OFFCURVE",
"544 35.333 OFFCURVE",
"544 102 CURVE SMOOTH",
"544 135.333 OFFCURVE",
"532 152 OFFCURVE",
"508 152 CURVE SMOOTH",
"484 152 OFFCURVE",
"472 137.667 OFFCURVE",
"472 109 CURVE SMOOTH",
"472 69 OFFCURVE",
"462 57 OFFCURVE",
"426 57 CURVE SMOOTH",
"292 57 LINE SMOOTH",
"190.667 57 OFFCURVE",
"141 123.667 OFFCURVE",
"141 241 CURVE SMOOTH",
"141 395 LINE SMOOTH",
"141 512.333 OFFCURVE",
"190.667 579 OFFCURVE",
"292 579 CURVE SMOOTH",
"321 579 LINE SMOOTH",
"421 579 OFFCURVE",
"472 507.333 OFFCURVE",
"472 406 CURVE SMOOTH",
"472 304.667 OFFCURVE",
"465 279 OFFCURVE",
"441 267 CURVE",
"445 281.667 OFFCURVE",
"447 303.333 OFFCURVE",
"447 332 CURVE SMOOTH",
"447 441.333 OFFCURVE",
"415.167 488 OFFCURVE",
"310.5 488 CURVE SMOOTH",
"258.167 488 OFFCURVE",
"222.333 475.667 OFFCURVE",
"203 451 CURVE SMOOTH",
"183.667 426.333 OFFCURVE",
"174 386.5 OFFCURVE",
"174 331.5 CURVE SMOOTH",
"174 276.5 OFFCURVE",
"183.667 236.667 OFFCURVE",
"203 212 CURVE SMOOTH",
"222.333 187.333 OFFCURVE",
"258 175 OFFCURVE",
"310 175 CURVE SMOOTH",
"391.333 175 OFFCURVE",
"450.667 188.333 OFFCURVE",
"488 215 CURVE",
"538.167 259.25 OFFCURVE",
"544.833 314.75 OFFCURVE",
"544 395 CURVE",
"544 553.667 OFFCURVE",
"457 651 OFFCURVE",
"321 651 CURVE SMOOTH",
"292 651 LINE SMOOTH",
"156 651 OFFCURVE",
"69 553.667 OFFCURVE",
"69 395 CURVE SMOOTH",
"69 241 LINE SMOOTH",
"69 82.333 OFFCURVE",
"156 -15 OFFCURVE",
"292 -15 CURVE SMOOTH"
);
},
{
closed = 1;
nodes = (
"253.833 247 OFFCURVE",
"246 260 OFFCURVE",
"246 332 CURVE SMOOTH",
"246 404 OFFCURVE",
"253.833 416 OFFCURVE",
"310.5 416 CURVE SMOOTH",
"367.167 416 OFFCURVE",
"375 402.833 OFFCURVE",
"375 331.5 CURVE SMOOTH",
"375 260.167 OFFCURVE",
"367.167 247 OFFCURVE",
"310.5 247 CURVE SMOOTH"
);
}
);
width = 612;
},
{
layerId = "260E7E84-60BE-47D3-B29C-27583EB1270C";
paths = (
{
closed = 1;
nodes = (
"420 0 LINE SMOOTH",
"502.667 0 OFFCURVE",
"516 47.333 OFFCURVE",
"516 110 CURVE SMOOTH",
"516 127.333 OFFCURVE",
"509 136.333 OFFCURVE",
"495 137 CURVE",
"481 137 OFFCURVE",
"474 126.167 OFFCURVE",
"474 104.5 CURVE SMOOTH",
"474 82.833 OFFCURVE",
"469.5 67 OFFCURVE",
"460.5 57 CURVE SMOOTH",
"451.5 47 OFFCURVE",
"435.667 42 OFFCURVE",
"413 42 CURVE SMOOTH",
"279 42 LINE SMOOTH",
"169.667 42 OFFCURVE",
"113 115.667 OFFCURVE",
"113 241 CURVE SMOOTH",
"113 395 LINE SMOOTH",
"113 520.333 OFFCURVE",
"169.667 594 OFFCURVE",
"279 594 CURVE SMOOTH",
"308 594 LINE SMOOTH",
"417.333 594 OFFCURVE",
"474 522.833 OFFCURVE",
"474 387.5 CURVE SMOOTH",
"474 319.833 OFFCURVE",
"465 277.667 OFFCURVE",
"447 261 CURVE SMOOTH",
"438.333 253 OFFCURVE",
"424.667 247 OFFCURVE",
"406 243 CURVE",
"414.667 264.333 OFFCURVE",
"419 297.167 OFFCURVE",
"419 341.5 CURVE SMOOTH",
"419 385.833 OFFCURVE",
"410.5 418.833 OFFCURVE",
"393.5 440.5 CURVE SMOOTH",
"376.5 462.167 OFFCURVE",
"344.5 473 OFFCURVE",
"297.5 473 CURVE SMOOTH",
"203.5 473 OFFCURVE",
"176 433.5 OFFCURVE",
"176 331.5 CURVE SMOOTH",
"176 280.5 OFFCURVE",
"184.5 244.167 OFFCURVE",
"201.5 222.5 CURVE SMOOTH",
"218.5 200.833 OFFCURVE",
"252.5 190 OFFCURVE",
"303.5 190 CURVE SMOOTH",
"354.5 190 OFFCURVE",
"395.5 195.5 OFFCURVE",
"426.5 206.5 CURVE SMOOTH",
"457.5 217.5 OFFCURVE",
"480.167 235.167 OFFCURVE",
"494.5 259.5 CURVE SMOOTH",
"508.833 283.833 OFFCURVE",
"516 331.333 OFFCURVE",
"516 402 CURVE SMOOTH",
"516 472.667 OFFCURVE",
"497.167 529.333 OFFCURVE",
"459.5 572 CURVE SMOOTH",
"421.833 614.667 OFFCURVE",
"371.333 636 OFFCURVE",
"308 636 CURVE SMOOTH",
"279 636 LINE SMOOTH",
"152.333 636 OFFCURVE",
"71 545.667 OFFCURVE",
"71 395 CURVE SMOOTH",
"71 241 LINE SMOOTH",
"71 90.333 OFFCURVE",
"152.333 0 OFFCURVE",
"279 0 CURVE SMOOTH"
);
},
{
closed = 1;
nodes = (
"228.833 232 OFFCURVE",
"218 253.5 OFFCURVE",
"218 331.5 CURVE SMOOTH",
"218 409.5 OFFCURVE",
"228.833 431 OFFCURVE",
"297.5 431 CURVE SMOOTH",
"366.167 431 OFFCURVE",
"377 409.5 OFFCURVE",
"377 331.5 CURVE SMOOTH",
"377 253.5 OFFCURVE",
"366.167 232 OFFCURVE",
"297.5 232 CURVE SMOOTH"
);
}
);
width = 584;
}
);
unicode = 0040;
},
{
glyphname = A;
lastChange = "2016-07-15 21:22:19 +0000";
layers = (
{
layerId = "C40088C9-C375-45DB-8BB9-703F8F681F6F";
paths = (
{
closed = 1;
nodes = (
"52.667 -16 OFFCURVE",
"60 -9.333 OFFCURVE",
"66 4 CURVE",
"138 204 LINE",
"410 204 LINE",
"482 4 LINE SMOOTH",
"487.333 -9.333 OFFCURVE",
"494.667 -16 OFFCURVE",
"504 -16 CURVE SMOOTH",
"518 -16 OFFCURVE",
"525 -9.333 OFFCURVE",
"525 4 CURVE SMOOTH",
"525 8.667 OFFCURVE",
"524 13.333 OFFCURVE",
"522 18 CURVE SMOOTH",
"297 636 LINE",
"251 636 LINE",
"26 18 LINE SMOOTH",
"24 13.333 OFFCURVE",
"23 8.667 OFFCURVE",
"23 4 CURVE SMOOTH",
"23 -9.333 OFFCURVE",
"30 -16 OFFCURVE",
"44 -16 CURVE SMOOTH"
);
},
{
closed = 1;
nodes = (
"273 575 LINE",
"394 246 LINE",
"154 246 LINE"
);
}
);
width = 548;
},
{
layerId = "08BB1446-875F-4786-BB83-45BCD1FA68FA";
paths = (
{
closed = 1;
nodes = (
"76.667 -16 OFFCURVE",
"89 -6.667 OFFCURVE",
"97 12 CURVE SMOOTH",
"166 189 LINE",
"444 189 LINE",
"513 12 LINE SMOOTH",
"520.333 -6.667 OFFCURVE",
"532.667 -16 OFFCURVE",
"550 -16 CURVE SMOOTH",
"581.325 -16 OFFCURVE",
"590.469 14.593 OFFCURVE",
"583 37 CURVE",
"346 636 LINE",
"264 636 LINE",
"27 37 LINE",
"19.531 14.593 OFFCURVE",
"28.675 -16 OFFCURVE",
"60 -16 CURVE SMOOTH"
);
},
{
closed = 1;
nodes = (
"304 532 LINE",
"415 261 LINE",
"195 261 LINE"
);
}
);
width = 610;
},
{
layerId = "260E7E84-60BE-47D3-B29C-27583EB1270C";
paths = (
{
closed = 1;
nodes = (
"52.667 -16 OFFCURVE",
"60 -9.333 OFFCURVE",
"66 4 CURVE",
"138 204 LINE",
"410 204 LINE",
"482 4 LINE SMOOTH",
"487.333 -9.333 OFFCURVE",
"494.667 -16 OFFCURVE",
"504 -16 CURVE SMOOTH",
"518 -16 OFFCURVE",
"525 -9.333 OFFCURVE",
"525 4 CURVE SMOOTH",
"525 8.667 OFFCURVE",
"524 13.333 OFFCURVE",
"522 18 CURVE SMOOTH",
"297 636 LINE",
"251 636 LINE",
"26 18 LINE SMOOTH",
"24 13.333 OFFCURVE",
"23 8.667 OFFCURVE",
"23 4 CURVE SMOOTH",
"23 -9.333 OFFCURVE",
"30 -16 OFFCURVE",
"44 -16 CURVE SMOOTH"
);
},
{
closed = 1;
nodes = (
"273 575 LINE",
"394 246 LINE",
"154 246 LINE"
);
}
);
width = 548;
}
);
unicode = 0041;
},
{
glyphname = B;
lastChange = "2016-07-15 21:22:19 +0000";
layers = (
{
layerId = "C40088C9-C375-45DB-8BB9-703F8F681F6F";
paths = (
{
closed = 1;
nodes = (
"321 0 LINE SMOOTH",
"461 0 OFFCURVE",
"528 35 OFFCURVE",
"528 175 CURVE SMOOTH",
"528 204 LINE SMOOTH",
"528 300 OFFCURVE",
"496.333 347 OFFCURVE",
"431 367 CURVE",
"467.667 390.333 OFFCURVE",
"486 430.333 OFFCURVE",
"486 487 CURVE SMOOTH",
"486 543.667 OFFCURVE",
"468.667 582.667 OFFCURVE",
"434 604 CURVE SMOOTH",
"399.333 625.333 OFFCURVE",
"347.667 636 OFFCURVE",
"279 636 CURVE SMOOTH",
"103 636 LINE SMOOTH",
"90.333 636 OFFCURVE",
"84 625.667 OFFCURVE",
"84 605 CURVE SMOOTH",
"84 31 LINE SMOOTH",
"84 10.333 OFFCURVE",
"90.333 0 OFFCURVE",
"103 0 CURVE SMOOTH"
);
},
{
closed = 1;
nodes = (
"126 337 LINE",
"321 337 LINE SMOOTH",
"432.143 337 OFFCURVE",
"486 326.017 OFFCURVE",
"486 204 CURVE SMOOTH",
"486 175 LINE SMOOTH",
"486 52.983 OFFCURVE",
"432.143 42 OFFCURVE",
"321 42 CURVE SMOOTH",
"126 42 LINE"
);
},
{
closed = 1;
nodes = (
"126 594 LINE",
"279 594 LINE SMOOTH",
"399 594 OFFCURVE",
"444 574 OFFCURVE",
"444 486 CURVE SMOOTH",
"444 398 OFFCURVE",
"397.667 380.333 OFFCURVE",
"279 379 CURVE",
"126 379 LINE"
);
}
);
width = 584;
},
{
layerId = "08BB1446-875F-4786-BB83-45BCD1FA68FA";
paths = (
{
closed = 1;
nodes = (
"336 0 LINE SMOOTH",
"514.667 0 OFFCURVE",
"588 38.667 OFFCURVE",
"588 184 CURVE SMOOTH",
"588 203 LINE SMOOTH",
"588 284.333 OFFCURVE",
"560.667 338.667 OFFCURVE",
"506 366 CURVE",
"532.667 390.667 OFFCURVE",
"546 427 OFFCURVE",
"546 475 CURVE SMOOTH",
"546 597.667 OFFCURVE",
"468.667 636 OFFCURVE",
"306 636 CURVE SMOOTH",
"118 636 LINE SMOOTH",
"95.333 636 OFFCURVE",
"84 621.333 OFFCURVE",
"84 592 CURVE SMOOTH",
"84 44 LINE SMOOTH",
"84 14.667 OFFCURVE",
"95.333 0 OFFCURVE",
"118 0 CURVE SMOOTH"
);
},
{
closed = 1;
nodes = (
"156 312 LINE",
"354 312 LINE SMOOTH",
"483.333 312 OFFCURVE",
"516 297.333 OFFCURVE",
"516 200 CURVE SMOOTH",
"516 184 LINE SMOOTH",
"516 86.667 OFFCURVE",
"482.667 72 OFFCURVE",
"336 72 CURVE SMOOTH",
"156 72 LINE"
);
},
{
closed = 1;
nodes = (
"156 559 LINE",
"306 559 LINE SMOOTH",
"435.333 559 OFFCURVE",
"474 544 OFFCURVE",
"474 472 CURVE SMOOTH",
"474 400 OFFCURVE",
"435.333 384 OFFCURVE",
"306 384 CURVE SMOOTH",
"156 384 LINE"
);
}
);
width = 644;
},
{
layerId = "260E7E84-60BE-47D3-B29C-27583EB1270C";
paths = (
{
closed = 1;
nodes = (
"321 0 LINE SMOOTH",
"461 0 OFFCURVE",
"528 35 OFFCURVE",
"528 175 CURVE SMOOTH",
"528 204 LINE SMOOTH",
"528 300 OFFCURVE",
"496.333 347 OFFCURVE",
"431 367 CURVE",
"467.667 390.333 OFFCURVE",
"486 430.333 OFFCURVE",
"486 487 CURVE SMOOTH",
"486 543.667 OFFCURVE",
"468.667 582.667 OFFCURVE",
"434 604 CURVE SMOOTH",
"399.333 625.333 OFFCURVE",
"347.667 636 OFFCURVE",
"279 636 CURVE SMOOTH",
"103 636 LINE SMOOTH",
"90.333 636 OFFCURVE",
"84 625.667 OFFCURVE",
"84 605 CURVE SMOOTH",
"84 31 LINE SMOOTH",
"84 10.333 OFFCURVE",
"90.333 0 OFFCURVE",
"103 0 CURVE SMOOTH"
);
},
{
closed = 1;
nodes = (
"126 337 LINE",
"321 337 LINE SMOOTH",
"432.143 337 OFFCURVE",
"486 326.017 OFFCURVE",
"486 204 CURVE SMOOTH",
"486 175 LINE SMOOTH",
"486 52.983 OFFCURVE",
"432.143 42 OFFCURVE",
"321 42 CURVE SMOOTH",
"126 42 LINE"
);
},
{
closed = 1;
nodes = (
"126 594 LINE",
"279 594 LINE SMOOTH",
"399 594 OFFCURVE",
"444 574 OFFCURVE",
"444 486 CURVE SMOOTH",
"444 398 OFFCURVE",
"397.667 380.333 OFFCURVE",
"279 379 CURVE",
"126 379 LINE"
);
}
);
width = 584;
}
);
unicode = 0042;
},
{
glyphname = C;
lastChange = "2016-07-15 21:22:19 +0000";
layers = (
{
layerId = "C40088C9-C375-45DB-8BB9-703F8F681F6F";
paths = (
{
closed = 1;
nodes = (
"421 0 LINE SMOOTH",
"505 0 OFFCURVE",
"516 48.667 OFFCURVE",
"516 110 CURVE SMOOTH",
"516 127.333 OFFCURVE",
"509 136.333 OFFCURVE",
"495 137 CURVE",
"481 137 OFFCURVE",
"474 126.167 OFFCURVE",
"474 104.5 CURVE SMOOTH",
"474 82.833 OFFCURVE",
"469.667 67 OFFCURVE",
"461 57 CURVE SMOOTH",
"452.333 47 OFFCURVE",
"436.667 42 OFFCURVE",
"414 42 CURVE SMOOTH",
"280 42 LINE SMOOTH",
"167.186 42 OFFCURVE",
"114 52.983 OFFCURVE",
"114 175 CURVE SMOOTH",
"114 461 LINE SMOOTH",
"114 583.017 OFFCURVE",
"167.186 594 OFFCURVE",
"280 594 CURVE SMOOTH",
"414 594 LINE SMOOTH",
"459.333 594 OFFCURVE",
"474 573.667 OFFCURVE",
"474 531 CURVE SMOOTH",
"474 509.667 OFFCURVE",
"481 499 OFFCURVE",
"495 499 CURVE",
"525.833 496.667 OFFCURVE",
"540.167 645.083 OFFCURVE",
"421 636 CURVE",
"280 636 LINE SMOOTH",
"138.667 636 OFFCURVE",
"72 601 OFFCURVE",
"72 461 CURVE SMOOTH",
"72 175 LINE SMOOTH",
"72 35 OFFCURVE",
"138.667 0 OFFCURVE",
"280 0 CURVE SMOOTH"
);
}
);
width = 572;
},
{
layerId = "08BB1446-875F-4786-BB83-45BCD1FA68FA";
paths = (
{
closed = 1;
nodes = (
"465 0 LINE SMOOTH",
"551.667 0 OFFCURVE",
"575 49.333 OFFCURVE",
"575 116 CURVE SMOOTH",
"575 149.333 OFFCURVE",
"563 166.333 OFFCURVE",
"539 167 CURVE",
"520.333 167 OFFCURVE",
"503 154.667 OFFCURVE",
"503 120 CURVE SMOOTH",
"503 85.333 OFFCURVE",
"494 72 OFFCURVE",
"458 72 CURVE SMOOTH",
"324 72 LINE SMOOTH",
"176 72 OFFCURVE",
"143 86 OFFCURVE",
"143 186 CURVE SMOOTH",
"143 450 LINE SMOOTH",
"143 548.667 OFFCURVE",
"176.667 564 OFFCURVE",
"306 564 CURVE SMOOTH",
"458 564 LINE",
"517.167 574.667 OFFCURVE",
"492.333 507.333 OFFCURVE",
"514 479 CURVE",
"521.333 472.333 OFFCURVE",
"529.667 469 OFFCURVE",
"539 469 CURVE SMOOTH",
"563 469 OFFCURVE",
"575 485.667 OFFCURVE",
"575 519 CURVE SMOOTH",
"575 552.333 OFFCURVE",
"567.5 580.167 OFFCURVE",
"552.5 602.5 CURVE SMOOTH",
"537.5 624.833 OFFCURVE",
"508.333 636 OFFCURVE",
"465 636 CURVE SMOOTH",
"306 636 LINE SMOOTH",
"144.667 636 OFFCURVE",
"71 597.333 OFFCURVE",
"71 452 CURVE SMOOTH",
"71 184 LINE SMOOTH",
"71 38.667 OFFCURVE",
"144 0 OFFCURVE",
"324 0 CURVE SMOOTH"
);
}
);
width = 631;
},
{
layerId = "260E7E84-60BE-47D3-B29C-27583EB1270C";
paths = (
{
closed = 1;
nodes = (
"421 0 LINE SMOOTH",
"505 0 OFFCURVE",
"516 48.667 OFFCURVE",
"516 110 CURVE SMOOTH",
"516 127.333 OFFCURVE",
"509 136.333 OFFCURVE",
"495 137 CURVE",
"481 137 OFFCURVE",
"474 126.167 OFFCURVE",
"474 104.5 CURVE SMOOTH",
"474 82.833 OFFCURVE",
"469.667 67 OFFCURVE",
"461 57 CURVE SMOOTH",
"452.333 47 OFFCURVE",
"436.667 42 OFFCURVE",
"414 42 CURVE SMOOTH",
"280 42 LINE SMOOTH",
"167.186 42 OFFCURVE",
"114 52.983 OFFCURVE",
"114 175 CURVE SMOOTH",
"114 461 LINE SMOOTH",
"114 583.017 OFFCURVE",
"167.186 594 OFFCURVE",
"280 594 CURVE SMOOTH",
"414 594 LINE SMOOTH",
"459.333 594 OFFCURVE",
"474 573.667 OFFCURVE",
"474 531 CURVE SMOOTH",
"474 509.667 OFFCURVE",
"481 499 OFFCURVE",
"495 499 CURVE",
"525.833 496.667 OFFCURVE",
"540.167 645.083 OFFCURVE",
"421 636 CURVE",
"280 636 LINE SMOOTH",
"138.667 636 OFFCURVE",
"72 601 OFFCURVE",
"72 461 CURVE SMOOTH",
"72 175 LINE SMOOTH",
"72 35 OFFCURVE",
"138.667 0 OFFCURVE",
"280 0 CURVE SMOOTH"
);
}
);
width = 572;
}
);
unicode = 0043;
},
{
glyphname = D;
lastChange = "2016-07-15 21:22:19 +0000";
layers = (
{
layerId = "C40088C9-C375-45DB-8BB9-703F8F681F6F";
paths = (
{
closed = 1;
nodes = (
"321 0 LINE SMOOTH",
"461 0 OFFCURVE",
"528 35 OFFCURVE",
"528 175 CURVE SMOOTH",
"528 461 LINE SMOOTH",
"528 601 OFFCURVE",
"461 636 OFFCURVE",
"321 636 CURVE SMOOTH",
"103 636 LINE SMOOTH",
"90.333 636 OFFCURVE",
"84 625.667 OFFCURVE",
"84 605 CURVE SMOOTH",
"84 31 LINE SMOOTH",
"84 10.333 OFFCURVE",
"90.333 0 OFFCURVE",
"103 0 CURVE SMOOTH"
);
},
{
closed = 1;
nodes = (
"126 594 LINE",
"321 594 LINE SMOOTH",
"432.143 594 OFFCURVE",
"486 583.017 OFFCURVE",
"486 461 CURVE SMOOTH",
"486 175 LINE SMOOTH",
"486 52.983 OFFCURVE",
"432.143 42 OFFCURVE",
"321 42 CURVE SMOOTH",
"126 42 LINE"
);
}
);
width = 600;
},
{
layerId = "08BB1446-875F-4786-BB83-45BCD1FA68FA";
paths = (
{
closed = 1;
nodes = (
"336 0 LINE SMOOTH",
"514.667 0 OFFCURVE",
"588 38.667 OFFCURVE",
"588 184 CURVE SMOOTH",
"588 452 LINE SMOOTH",
"588 596 OFFCURVE",
"515.333 636 OFFCURVE",
"354 636 CURVE SMOOTH",
"118 636 LINE SMOOTH",
"95.333 636 OFFCURVE",
"84 621.333 OFFCURVE",
"84 592 CURVE SMOOTH",
"84 44 LINE SMOOTH",
"84 14.667 OFFCURVE",
"95.333 0 OFFCURVE",
"118 0 CURVE SMOOTH"
);
},
{
closed = 1;
nodes = (
"156 564 LINE",
"354 564 LINE SMOOTH",
"483.333 564 OFFCURVE",
"516 548.667 OFFCURVE",
"516 450 CURVE SMOOTH",
"516 186 LINE SMOOTH",
"516 86 OFFCURVE",
"484 72 OFFCURVE",
"336 72 CURVE SMOOTH",
"156 72 LINE"
);
}
);
width = 659;
},
{
layerId = "260E7E84-60BE-47D3-B29C-27583EB1270C";
paths = (
{
closed = 1;
nodes = (
"321 0 LINE SMOOTH",
"461 0 OFFCURVE",
"528 35 OFFCURVE",
"528 175 CURVE SMOOTH",
"528 461 LINE SMOOTH",
"528 601 OFFCURVE",
"461 636 OFFCURVE",
"321 636 CURVE SMOOTH",
"103 636 LINE SMOOTH",
"90.333 636 OFFCURVE",
"84 625.667 OFFCURVE",
"84 605 CURVE SMOOTH",
"84 31 LINE SMOOTH",
"84 10.333 OFFCURVE",
"90.333 0 OFFCURVE",
"103 0 CURVE SMOOTH"
);
},
{
closed = 1;
nodes = (
"126 594 LINE",
"321 594 LINE SMOOTH",
"432.143 594 OFFCURVE",
"486 583.017 OFFCURVE",
"486 461 CURVE SMOOTH",
"486 175 LINE SMOOTH",
"486 52.983 OFFCURVE",
"432.143 42 OFFCURVE",
"321 42 CURVE SMOOTH",
"126 42 LINE"
);
}
);
width = 600;
}
);
unicode = 0044;
},
{
glyphname = E;
lastChange = "2016-07-15 21:22:19 +0000";
layers = (
{
layerId = "C40088C9-C375-45DB-8BB9-703F8F681F6F";
paths = (
{
closed = 1;
nodes = (
"499 0 LINE SMOOTH",
"518.333 0 OFFCURVE",
"528 6.333 OFFCURVE",
"528 19 CURVE SMOOTH",
"528 34.333 OFFCURVE",
"518.333 42 OFFCURVE",
"499 42 CURVE SMOOTH",
"126 42 LINE",
"126 337 LINE",
"381 337 LINE SMOOTH",
"401 337 OFFCURVE",
"411 343.333 OFFCURVE",
"411 356 CURVE SMOOTH",
"411 371.333 OFFCURVE",
"401 379 OFFCURVE",
"381 379 CURVE SMOOTH",
"126 379 LINE",
"126 594 LINE",
"499 594 LINE SMOOTH",
"518.333 594 OFFCURVE",
"528 600.333 OFFCURVE",
"528 613 CURVE SMOOTH",
"528 628.333 OFFCURVE",
"518.333 636 OFFCURVE",
"499 636 CURVE SMOOTH",
"103 636 LINE SMOOTH",
"90.333 636 OFFCURVE",
"84 625.667 OFFCURVE",
"84 605 CURVE SMOOTH",
"84 31 LINE SMOOTH",
"84 10.333 OFFCURVE",
"90.333 0 OFFCURVE",
"103 0 CURVE SMOOTH"
);
}
);
width = 577;
},
{
layerId = "08BB1446-875F-4786-BB83-45BCD1FA68FA";
paths = (
{
closed = 1;
nodes = (
"544 0 LINE SMOOTH",
"573.333 0 OFFCURVE",
"588 11.333 OFFCURVE",
"588 34 CURVE SMOOTH",
"588 59.333 OFFCURVE",
"573.333 72 OFFCURVE",
"544 72 CURVE SMOOTH",
"156 72 LINE",
"156 322 LINE",
"421 322 LINE SMOOTH",
"454.333 322 OFFCURVE",
"471 333.333 OFFCURVE",
"471 356 CURVE SMOOTH",
"471 381.333 OFFCURVE",
"454.333 394 OFFCURVE",
"421 394 CURVE SMOOTH",
"156 394 LINE",
"156 564 LINE",
"544 564 LINE SMOOTH",
"573.333 564 OFFCURVE",
"588 575.333 OFFCURVE",
"588 598 CURVE SMOOTH",
"588 623.333 OFFCURVE",
"573.333 636 OFFCURVE",
"544 636 CURVE SMOOTH",
"118 636 LINE SMOOTH",
"95.333 636 OFFCURVE",
"84 621.333 OFFCURVE",
"84 592 CURVE SMOOTH",
"84 44 LINE SMOOTH",
"84 14.667 OFFCURVE",
"95.333 0 OFFCURVE",
"118 0 CURVE SMOOTH"
);
}
);
width = 636;
},
{
layerId = "260E7E84-60BE-47D3-B29C-27583EB1270C";
paths = (
{
closed = 1;
nodes = (
"499 0 LINE SMOOTH",
"518.333 0 OFFCURVE",
"528 6.333 OFFCURVE",
"528 19 CURVE SMOOTH",
"528 34.333 OFFCURVE",
"518.333 42 OFFCURVE",
"499 42 CURVE SMOOTH",
"126 42 LINE",
"126 337 LINE",
"381 337 LINE SMOOTH",
"401 337 OFFCURVE",
"411 343.333 OFFCURVE",
"411 356 CURVE SMOOTH",
"411 371.333 OFFCURVE",
"401 379 OFFCURVE",
"381 379 CURVE SMOOTH",
"126 379 LINE",
"126 594 LINE",
"499 594 LINE SMOOTH",
"518.333 594 OFFCURVE",
"528 600.333 OFFCURVE",
"528 613 CURVE SMOOTH",
"528 628.333 OFFCURVE",
"518.333 636 OFFCURVE",
"499 636 CURVE SMOOTH",
"103 636 LINE SMOOTH",
"90.333 636 OFFCURVE",
"84 625.667 OFFCURVE",
"84 605 CURVE SMOOTH",
"84 31 LINE SMOOTH",
"84 10.333 OFFCURVE",
"90.333 0 OFFCURVE",
"103 0 CURVE SMOOTH"
);
}
);
width = 577;
}
);
unicode = 0045;
},
{
glyphname = F;
lastChange = "2016-07-15 21:22:19 +0000";
layers = (
{
layerId = "C40088C9-C375-45DB-8BB9-703F8F681F6F";
paths = (
{
closed = 1;
nodes = (
"84 -17 OFFCURVE",
"126 -17 OFFCURVE",
"126 23 CURVE SMOOTH",
"126 337 LINE",
"381 337 LINE SMOOTH",
"401 337 OFFCURVE",
"411 343.333 OFFCURVE",
"411 356 CURVE SMOOTH",
"411 371.333 OFFCURVE",
"401 379 OFFCURVE",
"381 379 CURVE SMOOTH",
"126 379 LINE",
"126 594 LINE",
"499 594 LINE SMOOTH",
"518.333 594 OFFCURVE",
"528 600.333 OFFCURVE",
"528 613 CURVE SMOOTH",
"528 628.333 OFFCURVE",
"518.333 636 OFFCURVE",
"499 636 CURVE SMOOTH",
"103 636 LINE SMOOTH",
"90.333 636 OFFCURVE",
"84 625.667 OFFCURVE",
"84 605 CURVE SMOOTH",
"84 23 LINE SMOOTH"
);
}
);
width = 558;
},
{
layerId = "08BB1446-875F-4786-BB83-45BCD1FA68FA";
paths = (
{
closed = 1;
nodes = (
"144 -7 OFFCURVE",
"156 7 OFFCURVE",
"156 35 CURVE SMOOTH",
"156 322 LINE",
"421 322 LINE SMOOTH",
"454.333 322 OFFCURVE",
"471 333.333 OFFCURVE",
"471 356 CURVE SMOOTH",
"471 381.333 OFFCURVE",
"454.333 394 OFFCURVE",
"421 394 CURVE SMOOTH",
"156 394 LINE",
"156 564 LINE",
"544 564 LINE SMOOTH",
"573.333 564 OFFCURVE",
"588 575.333 OFFCURVE",
"588 598 CURVE SMOOTH",
"588 623.333 OFFCURVE",
"573.333 636 OFFCURVE",
"544 636 CURVE SMOOTH",
"118 636 LINE SMOOTH",
"95.333 636 OFFCURVE",
"84 621.333 OFFCURVE",
"84 592 CURVE SMOOTH",
"84 36 LINE SMOOTH",
"84 7.333 OFFCURVE",
"96 -7 OFFCURVE",
"120 -7 CURVE SMOOTH"
);
}
);
width = 615;
},
{
layerId = "260E7E84-60BE-47D3-B29C-27583EB1270C";
paths = (
{
closed = 1;
nodes = (
"84 -17 OFFCURVE",
"126 -17 OFFCURVE",
"126 23 CURVE SMOOTH",
"126 337 LINE",
"381 337 LINE SMOOTH",
"401 337 OFFCURVE",
"411 343.333 OFFCURVE",
"411 356 CURVE SMOOTH",
"411 371.333 OFFCURVE",
"401 379 OFFCURVE",
"381 379 CURVE SMOOTH",
"126 379 LINE",
"126 594 LINE",
"499 594 LINE SMOOTH",
"518.333 594 OFFCURVE",
"528 600.333 OFFCURVE",
"528 613 CURVE SMOOTH",
"528 628.333 OFFCURVE",
"518.333 636 OFFCURVE",
"499 636 CURVE SMOOTH",
"103 636 LINE SMOOTH",
"90.333 636 OFFCURVE",
"84 625.667 OFFCURVE",
"84 605 CURVE SMOOTH",
"84 23 LINE SMOOTH"
);
}
);
width = 558;
}
);
unicode = 0046;
},
{
glyphname = G;
lastChange = "2016-07-15 21:22:19 +0000";
layers = (
{
layerId = "C40088C9-C375-45DB-8BB9-703F8F681F6F";
paths = (
{
closed = 1;
nodes = (
"421 0 LINE SMOOTH",
"441.667 0 OFFCURVE",
"458.667 3 OFFCURVE",
"472 9 CURVE SMOOTH",
"501.333 21.667 OFFCURVE",
"516 54 OFFCURVE",
"516 106 CURVE SMOOTH",
"516 293 LINE",
"341 293 LINE SMOOTH",
"301 293 OFFCURVE",
"301 251 OFFCURVE",
"341 251 CURVE SMOOTH",
"474 251 LINE",
"474 108 LINE SMOOTH",
"474 60 OFFCURVE",
"459.333 42 OFFCURVE",
"414 42 CURVE SMOOTH",
"280 42 LINE SMOOTH",
"167.186 42 OFFCURVE",
"114 52.983 OFFCURVE",
"114 175 CURVE SMOOTH",
"114 461 LINE SMOOTH",
"114 583.017 OFFCURVE",
"167.186 594 OFFCURVE",
"280 594 CURVE SMOOTH",
"414 594 LINE SMOOTH",
"459.333 594 OFFCURVE",
"474 574.833 OFFCURVE",
"474 531.5 CURVE SMOOTH",
"474 509.833 OFFCURVE",
"481 499 OFFCURVE",
"495 499 CURVE",
"525.833 496.667 OFFCURVE",
"540.167 645.083 OFFCURVE",
"421 636 CURVE",
"280 636 LINE SMOOTH",
"210.667 636 OFFCURVE",
"170 630 OFFCURVE",
"130 606 CURVE SMOOTH",
"91.333 582.667 OFFCURVE",
"72 534.333 OFFCURVE",
"72 461 CURVE SMOOTH",
"72 175 LINE SMOOTH",
"72 101.667 OFFCURVE",
"91.333 53.333 OFFCURVE",
"130 30 CURVE SMOOTH",
"170 6 OFFCURVE",
"210.667 0 OFFCURVE",
"280 0 CURVE SMOOTH"
);
}
);
width = 585;
},
{
layerId = "08BB1446-875F-4786-BB83-45BCD1FA68FA";
paths = (
{
closed = 1;
nodes = (
"465 0 LINE SMOOTH",
"551.667 0 OFFCURVE",
"575 45.667 OFFCURVE",
"575 115 CURVE SMOOTH",
"575 308 LINE",
"376 308 LINE SMOOTH",
"342.667 308 OFFCURVE",
"326 296 OFFCURVE",
"326 272 CURVE SMOOTH",
"326 248 OFFCURVE",
"342.667 236 OFFCURVE",
"376 236 CURVE SMOOTH",
"503 236 LINE",
"503 120 LINE SMOOTH",
"503 81.333 OFFCURVE",
"494 72 OFFCURVE",
"458 72 CURVE SMOOTH",
"306 72 LINE SMOOTH",
"175.333 72 OFFCURVE",
"143 86.667 OFFCURVE",
"143 184 CURVE SMOOTH",
"143 452 LINE SMOOTH",
"143 549.333 OFFCURVE",
"177.333 564 OFFCURVE",
"324 564 CURVE SMOOTH",
"458 564 LINE SMOOTH",
"494 564 OFFCURVE",
"503 553 OFFCURVE",
"503 513 CURVE SMOOTH",
"503 483.667 OFFCURVE",
"514.667 469 OFFCURVE",
"538 469 CURVE",
"539 470 LINE",
"563 470 OFFCURVE",
"575 486.667 OFFCURVE",
"575 520 CURVE SMOOTH",
"575 553.333 OFFCURVE",
"567.5 581 OFFCURVE",
"552.5 603 CURVE SMOOTH",
"537.5 625 OFFCURVE",
"508.333 636 OFFCURVE",
"465 636 CURVE SMOOTH",
"324 636 LINE SMOOTH",
"144 636 OFFCURVE",
"71 600.333 OFFCURVE",
"71 455 CURVE SMOOTH",
"71 181 LINE SMOOTH",
"71 38.333 OFFCURVE",
"143.333 0 OFFCURVE",
"306 0 CURVE SMOOTH"
);
}
);
width = 645;
},
{
layerId = "260E7E84-60BE-47D3-B29C-27583EB1270C";
paths = (
{
closed = 1;
nodes = (
"421 0 LINE SMOOTH",
"441.667 0 OFFCURVE",
"458.667 3 OFFCURVE",
"472 9 CURVE SMOOTH",
"501.333 21.667 OFFCURVE",
"516 54 OFFCURVE",
"516 106 CURVE SMOOTH",
"516 293 LINE",
"341 293 LINE SMOOTH",
"301 293 OFFCURVE",
"301 251 OFFCURVE",
"341 251 CURVE SMOOTH",
"474 251 LINE",
"474 108 LINE SMOOTH",
"474 60 OFFCURVE",
"459.333 42 OFFCURVE",
"414 42 CURVE SMOOTH",
"280 42 LINE SMOOTH",
"167.186 42 OFFCURVE",
"114 52.983 OFFCURVE",
"114 175 CURVE SMOOTH",
"114 461 LINE SMOOTH",
"114 583.017 OFFCURVE",
"167.186 594 OFFCURVE",
"280 594 CURVE SMOOTH",
"414 594 LINE SMOOTH",
"459.333 594 OFFCURVE",
"474 574.833 OFFCURVE",
"474 531.5 CURVE SMOOTH",
"474 509.833 OFFCURVE",
"481 499 OFFCURVE",
"495 499 CURVE",
"525.833 496.667 OFFCURVE",
"540.167 645.083 OFFCURVE",
"421 636 CURVE",
"280 636 LINE SMOOTH",
"210.667 636 OFFCURVE",
"170 630 OFFCURVE",
"130 606 CURVE SMOOTH",
"91.333 582.667 OFFCURVE",
"72 534.333 OFFCURVE",
"72 461 CURVE SMOOTH",
"72 175 LINE SMOOTH",
"72 101.667 OFFCURVE",
"91.333 53.333 OFFCURVE",
"130 30 CURVE SMOOTH",
"170 6 OFFCURVE",
"210.667 0 OFFCURVE",
"280 0 CURVE SMOOTH"
);
}
);
width = 585;
}
);
unicode = 0047;
},
{
glyphname = H;
lastChange = "2016-07-15 21:22:19 +0000";
layers = (
{
layerId = "C40088C9-C375-45DB-8BB9-703F8F681F6F";
paths = (
{
closed = 1;
nodes = (
"84 -17 OFFCURVE",
"126 -17 OFFCURVE",
"126 23 CURVE SMOOTH",
"126 322 LINE",
"486 322 LINE",
"486 23 LINE SMOOTH",
"486 -17 OFFCURVE",
"528 -17 OFFCURVE",
"528 23 CURVE SMOOTH",
"528 612 LINE SMOOTH",
"528 653.333 OFFCURVE",
"486 653.333 OFFCURVE",
"486 612 CURVE SMOOTH",
"486 364 LINE",
"126 364 LINE",
"126 612 LINE SMOOTH",
"126 632.667 OFFCURVE",
"118.333 643 OFFCURVE",
"103 643 CURVE SMOOTH",
"90.333 643 OFFCURVE",
"84 632.667 OFFCURVE",
"84 612 CURVE SMOOTH",
"84 23 LINE SMOOTH"
);
}
);
width = 612;
},
{
layerId = "08BB1446-875F-4786-BB83-45BCD1FA68FA";
paths = (
{
closed = 1;
nodes = (
"144 -7 OFFCURVE",
"156 7 OFFCURVE",
"156 35 CURVE SMOOTH",
"156 307 LINE",
"516 307 LINE",
"516 35 LINE SMOOTH",
"516 7 OFFCURVE",
"528 -7 OFFCURVE",
"552 -7 CURVE SMOOTH",
"576 -7 OFFCURVE",
"588 7 OFFCURVE",
"588 35 CURVE SMOOTH",
"588 600 LINE SMOOTH",
"588 628.667 OFFCURVE",
"576 643 OFFCURVE",
"552 643 CURVE SMOOTH",
"528 643 OFFCURVE",
"516 628.667 OFFCURVE",
"516 600 CURVE SMOOTH",
"516 379 LINE",
"156 379 LINE",
"156 600 LINE SMOOTH",
"156 628.667 OFFCURVE",
"143.333 643 OFFCURVE",
"118 643 CURVE SMOOTH",
"95.333 643 OFFCURVE",
"84 628.667 OFFCURVE",
"84 600 CURVE SMOOTH",
"84 35 LINE SMOOTH",
"84 7 OFFCURVE",
"96 -7 OFFCURVE",
"120 -7 CURVE SMOOTH"
);
}
);
width = 672;
},
{
layerId = "260E7E84-60BE-47D3-B29C-27583EB1270C";
paths = (
{
closed = 1;
nodes = (
"84 -17 OFFCURVE",
"126 -17 OFFCURVE",
"126 23 CURVE SMOOTH",
"126 322 LINE",
"486 322 LINE",
"486 23 LINE SMOOTH",
"486 -17 OFFCURVE",
"528 -17 OFFCURVE",
"528 23 CURVE SMOOTH",
"528 612 LINE SMOOTH",
"528 653.333 OFFCURVE",
"486 653.333 OFFCURVE",
"486 612 CURVE SMOOTH",
"486 364 LINE",
"126 364 LINE",
"126 612 LINE SMOOTH",
"126 632.667 OFFCURVE",
"118.333 643 OFFCURVE",
"103 643 CURVE SMOOTH",
"90.333 643 OFFCURVE",
"84 632.667 OFFCURVE",
"84 612 CURVE SMOOTH",
"84 23 LINE SMOOTH"
);
}
);
width = 612;
}
);
unicode = 0048;
},
{
glyphname = I;
lastChange = "2016-07-15 21:22:19 +0000";
layers = (
{
layerId = "C40088C9-C375-45DB-8BB9-703F8F681F6F";
paths = (
{
closed = 1;
nodes = (
"84 -16 OFFCURVE",
"126 -16 OFFCURVE",
"126 20 CURVE SMOOTH",
"126 615 LINE SMOOTH",
"126 652.333 OFFCURVE",
"84 652.333 OFFCURVE",
"84 615 CURVE SMOOTH",
"84 20 LINE SMOOTH"
);
}
);
width = 210;
},
{
layerId = "08BB1446-875F-4786-BB83-45BCD1FA68FA";
paths = (
{
closed = 1;
nodes = (
"144 -7 OFFCURVE",
"156 6.333 OFFCURVE",
"156 33 CURVE SMOOTH",
"156 602 LINE SMOOTH",
"156 629.333 OFFCURVE",
"144 643 OFFCURVE",
"120 643 CURVE SMOOTH",
"96 643 OFFCURVE",
"84 629.333 OFFCURVE",
"84 602 CURVE SMOOTH",
"84 33 LINE SMOOTH",
"84 6.333 OFFCURVE",
"96 -7 OFFCURVE",
"120 -7 CURVE SMOOTH"
);
}
);
width = 240;
},
{
layerId = "260E7E84-60BE-47D3-B29C-27583EB1270C";
paths = (
{
closed = 1;
nodes = (
"84 -16 OFFCURVE",
"126 -16 OFFCURVE",
"126 20 CURVE SMOOTH",
"126 615 LINE SMOOTH",
"126 652.333 OFFCURVE",
"84 652.333 OFFCURVE",
"84 615 CURVE SMOOTH",
"84 20 LINE SMOOTH"
);
}
);
width = 210;
}
);
unicode = 0049;
},
{
glyphname = J;
lastChange = "2016-07-15 21:22:19 +0000";
layers = (
{
layerId = "C40088C9-C375-45DB-8BB9-703F8F681F6F";
paths = (
{
closed = 1;
nodes = (
"310.333 -8 OFFCURVE",
"351 -2 OFFCURVE",
"391 22 CURVE SMOOTH",
"429.667 45.333 OFFCURVE",
"449 93.667 OFFCURVE",
"449 167 CURVE SMOOTH",
"449 615 LINE SMOOTH",
"449 652.333 OFFCURVE",
"407 652.333 OFFCURVE",
"407 615 CURVE SMOOTH",
"407 167 LINE SMOOTH",
"407 44.983 OFFCURVE",
"353.814 34 OFFCURVE",
"241 34 CURVE SMOOTH",
"115.667 34 OFFCURVE",
"75 52.333 OFFCURVE",
"75 167 CURVE SMOOTH",
"75 185.667 OFFCURVE",
"68.333 195 OFFCURVE",
"55 195 CURVE SMOOTH",
"39.667 195 OFFCURVE",
"32 185.667 OFFCURVE",
"32 167 CURVE SMOOTH",
"32 93.667 OFFCURVE",
"51.333 45.333 OFFCURVE",
"90 22 CURVE SMOOTH",
"130 -2 OFFCURVE",
"171.667 -8 OFFCURVE",
"241 -8 CURVE SMOOTH"
);
}
);
width = 530;
},
{
layerId = "08BB1446-875F-4786-BB83-45BCD1FA68FA";
paths = (
{
closed = 1;
nodes = (
"437.333 -8 OFFCURVE",
"510 30.333 OFFCURVE",
"510 173 CURVE SMOOTH",
"510 602 LINE SMOOTH",
"510 629.333 OFFCURVE",
"498 643 OFFCURVE",
"474 643 CURVE SMOOTH",
"455.333 643 OFFCURVE",
"438 631 OFFCURVE",
"438 603 CURVE SMOOTH",
"438 176 LINE SMOOTH",
"438 80 OFFCURVE",
"404.167 64 OFFCURVE",
"271.5 64 CURVE SMOOTH",
"138.833 64 OFFCURVE",
"106 79.333 OFFCURVE",
"106 182 CURVE SMOOTH",
"106 207.333 OFFCURVE",
"92.333 225 OFFCURVE",
"71 225 CURVE SMOOTH",
"45.667 225 OFFCURVE",
"33 210.667 OFFCURVE",
"33 182 CURVE SMOOTH",
"33 103.333 OFFCURVE",
"54 51.333 OFFCURVE",
"96 26 CURVE SMOOTH",
"140 -0.667 OFFCURVE",
"189.333 -8 OFFCURVE",
"272 -8 CURVE SMOOTH"
);
}
);
width = 591;
},
{
layerId = "260E7E84-60BE-47D3-B29C-27583EB1270C";
paths = (
{
closed = 1;
nodes = (
"310.333 -8 OFFCURVE",
"351 -2 OFFCURVE",
"391 22 CURVE SMOOTH",
"429.667 45.333 OFFCURVE",
"449 93.667 OFFCURVE",
"449 167 CURVE SMOOTH",
"449 615 LINE SMOOTH",
"449 652.333 OFFCURVE",
"407 652.333 OFFCURVE",
"407 615 CURVE SMOOTH",
"407 167 LINE SMOOTH",
"407 44.983 OFFCURVE",
"353.814 34 OFFCURVE",
"241 34 CURVE SMOOTH",
"115.667 34 OFFCURVE",
"75 52.333 OFFCURVE",
"75 167 CURVE SMOOTH",
"75 185.667 OFFCURVE",
"68.333 195 OFFCURVE",
"55 195 CURVE SMOOTH",
"39.667 195 OFFCURVE",
"32 185.667 OFFCURVE",
"32 167 CURVE SMOOTH",
"32 93.667 OFFCURVE",
"51.333 45.333 OFFCURVE",
"90 22 CURVE SMOOTH",
"130 -2 OFFCURVE",
"171.667 -8 OFFCURVE",
"241 -8 CURVE SMOOTH"
);
}
);
width = 530;
}
);
unicode = 004A;
},
{
glyphname = K;
lastChange = "2016-07-15 21:22:19 +0000";
layers = (
{
layerId = "C40088C9-C375-45DB-8BB9-703F8F681F6F";
paths = (
{
closed = 1;
nodes = (
"476.14 -25.382 OFFCURVE",
"509.668 7.332 OFFCURVE",
"484 33 CURVE",
"212 357 LINE",
"418 603 LINE SMOOTH",
"440.846 630.923 OFFCURVE",
"410.217 661.482 OFFCURVE",
"386 630 CURVE",
"126 321 LINE",
"126 615 LINE SMOOTH",
"126 652.333 OFFCURVE",
"84 652.333 OFFCURVE",
"84 615 CURVE SMOOTH",
"84 20 LINE SMOOTH",
"84 -16 OFFCURVE",
"126 -16 OFFCURVE",
"126 20 CURVE SMOOTH",
"126 255 LINE",
"184 325 LINE",
"452 6 LINE"
);
}
);
width = 497;
},
{
layerId = "08BB1446-875F-4786-BB83-45BCD1FA68FA";
paths = (
{
closed = 1;
nodes = (
"144 -7 OFFCURVE",
"156 7 OFFCURVE",
"156 35 CURVE SMOOTH",
"156 264 LINE",
"199 316 LINE",
"485 12 LINE",
"524.844 -35.314 OFFCURVE",
"574.715 16.099 OFFCURVE",
"541 55 CURVE",
"251 354 LINE",
"475 581 LINE",
"507.017 618.353 OFFCURVE",
"462.108 672.18 OFFCURVE",
"419 624 CURVE",
"156 346 LINE",
"156 600 LINE SMOOTH",
"156 630.667 OFFCURVE",
"138.667 643 OFFCURVE",
"120 643 CURVE SMOOTH",
"96 643 OFFCURVE",
"84 629.333 OFFCURVE",
"84 602 CURVE SMOOTH",
"84 33 LINE SMOOTH",
"84 6.333 OFFCURVE",
"96 -7 OFFCURVE",
"120 -7 CURVE SMOOTH"
);
}
);
width = 560;
},
{
layerId = "260E7E84-60BE-47D3-B29C-27583EB1270C";
paths = (
{
closed = 1;
nodes = (
"476.14 -25.382 OFFCURVE",
"509.668 7.332 OFFCURVE",
"484 33 CURVE",
"212 357 LINE",
"418 603 LINE SMOOTH",
"440.846 630.923 OFFCURVE",
"410.217 661.482 OFFCURVE",
"386 630 CURVE",
"126 321 LINE",
"126 615 LINE SMOOTH",
"126 652.333 OFFCURVE",
"84 652.333 OFFCURVE",
"84 615 CURVE SMOOTH",
"84 20 LINE SMOOTH",
"84 -16 OFFCURVE",
"126 -16 OFFCURVE",
"126 20 CURVE SMOOTH",
"126 255 LINE",
"184 325 LINE",
"452 6 LINE"
);
}
);
width = 497;
}
);
unicode = 004B;
},
{
glyphname = L;
lastChange = "2016-07-15 21:22:19 +0000";
layers = (
{
layerId = "C40088C9-C375-45DB-8BB9-703F8F681F6F";
paths = (
{
closed = 1;
nodes = (
"444 0 LINE SMOOTH",
"481.333 0 OFFCURVE",
"481.333 42 OFFCURVE",
"444 42 CURVE SMOOTH",
"126 42 LINE",
"126 615 LINE SMOOTH",
"126 652.333 OFFCURVE",
"84 652.333 OFFCURVE",
"84 615 CURVE SMOOTH",
"84 31 LINE SMOOTH",
"84 10.333 OFFCURVE",
"90.333 0 OFFCURVE",
"103 0 CURVE SMOOTH"
);
}
);
width = 495;
},
{
layerId = "08BB1446-875F-4786-BB83-45BCD1FA68FA";
paths = (
{
closed = 1;
nodes = (
"489 0 LINE SMOOTH",
"517.667 0 OFFCURVE",
"532 12 OFFCURVE",
"532 36 CURVE SMOOTH",
"532 60 OFFCURVE",
"517.667 72 OFFCURVE",
"489 72 CURVE SMOOTH",
"156 72 LINE",
"156 603 LINE SMOOTH",
"156 656.804 OFFCURVE",
"84 656.804 OFFCURVE",
"84 603 CURVE SMOOTH",
"84 43 LINE SMOOTH",
"84 14.333 OFFCURVE",
"95.333 0 OFFCURVE",
"118 0 CURVE SMOOTH"
);
}
);
width = 554;
},
{
layerId = "260E7E84-60BE-47D3-B29C-27583EB1270C";
paths = (
{
closed = 1;
nodes = (
"444 0 LINE SMOOTH",
"481.333 0 OFFCURVE",
"481.333 42 OFFCURVE",
"444 42 CURVE SMOOTH",
"126 42 LINE",
"126 615 LINE SMOOTH",
"126 652.333 OFFCURVE",
"84 652.333 OFFCURVE",
"84 615 CURVE SMOOTH",
"84 31 LINE SMOOTH",
"84 10.333 OFFCURVE",
"90.333 0 OFFCURVE",
"103 0 CURVE SMOOTH"
);
}
);
width = 495;
}
);
unicode = 004C;
},
{
glyphname = M;
lastChange = "2016-07-15 21:22:19 +0000";
layers = (
{
layerId = "C40088C9-C375-45DB-8BB9-703F8F681F6F";
paths = (
{
closed = 1;
nodes = (
"84 -17 OFFCURVE",
"126 -17 OFFCURVE",
"126 23 CURVE SMOOTH",
"126 557 LINE",
"304 285 LINE",
"310.667 277 OFFCURVE",
"322.333 277 OFFCURVE",
"329 285 CURVE",
"507 557 LINE",
"507 23 LINE SMOOTH",
"507 -17 OFFCURVE",
"549 -17 OFFCURVE",
"549 23 CURVE SMOOTH",
"549 612 LINE SMOOTH",
"549 632.667 OFFCURVE",
"542.333 643 OFFCURVE",
"529 643 CURVE SMOOTH",
"519.667 643 OFFCURVE",
"511.333 637.333 OFFCURVE",
"504 626 CURVE SMOOTH",
"316 342 LINE",
"129 626 LINE SMOOTH",
"121.667 637.333 OFFCURVE",
"113 643 OFFCURVE",
"103 643 CURVE SMOOTH",
"90.333 643 OFFCURVE",
"84 632.667 OFFCURVE",
"84 612 CURVE SMOOTH",
"84 23 LINE SMOOTH"
);
}
);
width = 633;
},
{
layerId = "08BB1446-875F-4786-BB83-45BCD1FA68FA";
paths = (
{
closed = 1;
nodes = (
"144 -7 OFFCURVE",
"156 8 OFFCURVE",
"156 38 CURVE SMOOTH",
"156 523 LINE",
"319 291 LINE",
"335 275 OFFCURVE",
"358 275 OFFCURVE",
"374 291 CURVE",
"537 523 LINE",
"537 38 LINE SMOOTH",
"537 8 OFFCURVE",
"549 -7 OFFCURVE",
"573 -7 CURVE SMOOTH",
"597 -7 OFFCURVE",
"609 7 OFFCURVE",
"609 35 CURVE SMOOTH",
"609 600 LINE SMOOTH",
"609 628.667 OFFCURVE",
"597.333 643 OFFCURVE",
"574 643 CURVE SMOOTH",
"560 643 OFFCURVE",
"547.667 635.333 OFFCURVE",
"537 620 CURVE SMOOTH",
"346 354 LINE",
"156 620 LINE SMOOTH",
"145.333 635.333 OFFCURVE",
"132.667 643 OFFCURVE",
"118 643 CURVE SMOOTH",
"95.333 643 OFFCURVE",
"84 628.667 OFFCURVE",
"84 600 CURVE SMOOTH",
"84 35 LINE SMOOTH",
"84 7 OFFCURVE",
"96 -7 OFFCURVE",
"120 -7 CURVE SMOOTH"
);
}
);
width = 693;
},
{
layerId = "260E7E84-60BE-47D3-B29C-27583EB1270C";
paths = (
{
closed = 1;
nodes = (
"84 -17 OFFCURVE",
"126 -17 OFFCURVE",
"126 23 CURVE SMOOTH",
"126 557 LINE",
"304 285 LINE",
"310.667 277 OFFCURVE",
"322.333 277 OFFCURVE",
"329 285 CURVE",
"507 557 LINE",
"507 23 LINE SMOOTH",
"507 -17 OFFCURVE",
"549 -17 OFFCURVE",
"549 23 CURVE SMOOTH",
"549 612 LINE SMOOTH",
"549 632.667 OFFCURVE",
"542.333 643 OFFCURVE",
"529 643 CURVE SMOOTH",
"519.667 643 OFFCURVE",
"511.333 637.333 OFFCURVE",
"504 626 CURVE SMOOTH",
"316 342 LINE",
"129 626 LINE SMOOTH",
"121.667 637.333 OFFCURVE",
"113 643 OFFCURVE",
"103 643 CURVE SMOOTH",
"90.333 643 OFFCURVE",
"84 632.667 OFFCURVE",
"84 612 CURVE SMOOTH",
"84 23 LINE SMOOTH"
);
}
);
width = 633;
}
);
unicode = 004D;
},
{
glyphname = N;
lastChange = "2016-07-15 21:22:19 +0000";
layers = (
{
layerId = "C40088C9-C375-45DB-8BB9-703F8F681F6F";
paths = (
{
closed = 1;
nodes = (
"521.333 -7 OFFCURVE",
"528 3 OFFCURVE",
"528 23 CURVE SMOOTH",
"528 612 LINE SMOOTH",
"528 653.333 OFFCURVE",
"486 653.333 OFFCURVE",
"486 612 CURVE SMOOTH",
"486 84 LINE",
"129 626 LINE SMOOTH",
"121.667 637.333 OFFCURVE",
"113 643 OFFCURVE",
"103 643 CURVE SMOOTH",
"90.333 643 OFFCURVE",
"84 632.667 OFFCURVE",
"84 612 CURVE SMOOTH",
"84 23 LINE SMOOTH",
"84 -17 OFFCURVE",
"126 -17 OFFCURVE",
"126 23 CURVE SMOOTH",
"126 557 LINE",
"492 0 LINE SMOOTH",
"494.667 -4.667 OFFCURVE",
"500 -7 OFFCURVE",
"508 -7 CURVE SMOOTH"
);
}
);
width = 612;
},
{
layerId = "08BB1446-875F-4786-BB83-45BCD1FA68FA";
paths = (
{
closed = 1;
nodes = (
"144 -7 OFFCURVE",
"156 6 OFFCURVE",
"156 32 CURVE SMOOTH",
"156 517 LINE",
"525 0 LINE SMOOTH",
"528.333 -4.667 OFFCURVE",
"537.667 -7 OFFCURVE",
"553 -7 CURVE SMOOTH",
"576.333 -7 OFFCURVE",
"588 7 OFFCURVE",
"588 35 CURVE SMOOTH",
"588 600 LINE SMOOTH",
"588 628.667 OFFCURVE",
"576 643 OFFCURVE",
"552 643 CURVE SMOOTH",
"528 643 OFFCURVE",
"516 627.667 OFFCURVE",
"516 597 CURVE SMOOTH",
"516 118 LINE",
"156 620 LINE SMOOTH",
"145.333 635.333 OFFCURVE",
"132.667 643 OFFCURVE",
"118 643 CURVE SMOOTH",
"95.333 643 OFFCURVE",
"84 628.667 OFFCURVE",
"84 600 CURVE SMOOTH",
"84 35 LINE SMOOTH",
"84 7 OFFCURVE",
"96 -7 OFFCURVE",
"120 -7 CURVE SMOOTH"
);
}
);
width = 672;
},
{
layerId = "260E7E84-60BE-47D3-B29C-27583EB1270C";
paths = (
{
closed = 1;
nodes = (
"521.333 -7 OFFCURVE",
"528 3 OFFCURVE",
"528 23 CURVE SMOOTH",
"528 612 LINE SMOOTH",
"528 653.333 OFFCURVE",
"486 653.333 OFFCURVE",
"486 612 CURVE SMOOTH",
"486 84 LINE",
"129 626 LINE SMOOTH",
"121.667 637.333 OFFCURVE",
"113 643 OFFCURVE",
"103 643 CURVE SMOOTH",
"90.333 643 OFFCURVE",
"84 632.667 OFFCURVE",
"84 612 CURVE SMOOTH",
"84 23 LINE SMOOTH",
"84 -17 OFFCURVE",
"126 -17 OFFCURVE",
"126 23 CURVE SMOOTH",
"126 557 LINE",
"492 0 LINE SMOOTH",
"494.667 -4.667 OFFCURVE",
"500 -7 OFFCURVE",
"508 -7 CURVE SMOOTH"
);
}
);
width = 612;
}
);
unicode = 004E;
},
{
glyphname = O;
lastChange = "2016-07-15 21:22:19 +0000";
layers = (
{
layerId = "C40088C9-C375-45DB-8BB9-703F8F681F6F";
paths = (
{
closed = 1;
nodes = (
"416.333 -9 OFFCURVE",
"509 80.333 OFFCURVE",
"509 227 CURVE SMOOTH",
"509 409 LINE SMOOTH",
"509 555.667 OFFCURVE",
"416.333 645 OFFCURVE",
"287 645 CURVE SMOOTH",
"157.667 645 OFFCURVE",
"65 555.667 OFFCURVE",
"65 409 CURVE SMOOTH",
"65 227 LINE SMOOTH",
"65 80.333 OFFCURVE",
"157.667 -9 OFFCURVE",
"287 -9 CURVE SMOOTH"
);
},
{
closed = 1;
nodes = (
"175 33 OFFCURVE",
"107 105.667 OFFCURVE",
"107 227 CURVE SMOOTH",
"107 409 LINE SMOOTH",
"107 530.333 OFFCURVE",
"175 603 OFFCURVE",
"287 603 CURVE SMOOTH",
"399 603 OFFCURVE",
"467 530.333 OFFCURVE",
"467 409 CURVE SMOOTH",
"467 227 LINE SMOOTH",
"467 105.667 OFFCURVE",
"399 33 OFFCURVE",
"287 33 CURVE SMOOTH"
);
}
);
width = 574;
},
{
layerId = "08BB1446-875F-4786-BB83-45BCD1FA68FA";
paths = (
{
closed = 1;
nodes = (
"466.833 -9 OFFCURVE",
"568 82 OFFCURVE",
"568 230 CURVE SMOOTH",
"568 406 LINE SMOOTH",
"568 554 OFFCURVE",
"466.833 645 OFFCURVE",
"315.5 645 CURVE SMOOTH",
"164.167 645 OFFCURVE",
"64 555.333 OFFCURVE",
"64 406 CURVE SMOOTH",
"64 230 LINE SMOOTH",
"64 80.667 OFFCURVE",
"164.167 -9 OFFCURVE",
"315.5 -9 CURVE SMOOTH"
);
},
{
closed = 1;
nodes = (
"198.667 63 OFFCURVE",
"136 123.667 OFFCURVE",
"136 233 CURVE SMOOTH",
"136 403 LINE SMOOTH",
"136 511 OFFCURVE",
"197.333 573 OFFCURVE",
"316 573 CURVE SMOOTH",
"434.667 573 OFFCURVE",
"496 511 OFFCURVE",
"496 403 CURVE SMOOTH",
"496 233 LINE SMOOTH",
"496 123.667 OFFCURVE",
"433.333 63 OFFCURVE",
"316 63 CURVE SMOOTH"
);
}
);
width = 632;
},
{
layerId = "260E7E84-60BE-47D3-B29C-27583EB1270C";
paths = (
{
closed = 1;
nodes = (
"416.333 -9 OFFCURVE",
"509 80.333 OFFCURVE",
"509 227 CURVE SMOOTH",
"509 409 LINE SMOOTH",
"509 555.667 OFFCURVE",
"416.333 645 OFFCURVE",
"287 645 CURVE SMOOTH",
"157.667 645 OFFCURVE",
"65 555.667 OFFCURVE",
"65 409 CURVE SMOOTH",
"65 227 LINE SMOOTH",
"65 80.333 OFFCURVE",
"157.667 -9 OFFCURVE",
"287 -9 CURVE SMOOTH"
);
},
{
closed = 1;
nodes = (
"175 33 OFFCURVE",
"107 105.667 OFFCURVE",
"107 227 CURVE SMOOTH",
"107 409 LINE SMOOTH",
"107 530.333 OFFCURVE",
"175 603 OFFCURVE",
"287 603 CURVE SMOOTH",
"399 603 OFFCURVE",
"467 530.333 OFFCURVE",
"467 409 CURVE SMOOTH",
"467 227 LINE SMOOTH",
"467 105.667 OFFCURVE",
"399 33 OFFCURVE",
"287 33 CURVE SMOOTH"
);
}
);
width = 574;
}
);
unicode = 004F;
},
{
glyphname = P;
lastChange = "2016-07-15 21:22:19 +0000";
layers = (
{
layerId = "C40088C9-C375-45DB-8BB9-703F8F681F6F";
paths = (
{
closed = 1;
nodes = (
"84 -16 OFFCURVE",
"126 -16 OFFCURVE",
"126 20 CURVE SMOOTH",
"126 337 LINE",
"321 337 LINE SMOOTH",
"431 337 OFFCURVE",
"486 388.667 OFFCURVE",
"486 492 CURVE SMOOTH",
"486 598.667 OFFCURVE",
"416.333 636 OFFCURVE",
"279 636 CURVE SMOOTH",
"103 636 LINE SMOOTH",
"90.333 636 OFFCURVE",
"84 625.667 OFFCURVE",
"84 605 CURVE SMOOTH",
"84 20 LINE SMOOTH"
);
},
{
closed = 1;
nodes = (
"126 594 LINE",
"279 594 LINE SMOOTH",
"399 594 OFFCURVE",
"444 574 OFFCURVE",
"444 486 CURVE SMOOTH",
"444 398 OFFCURVE",
"399 379 OFFCURVE",
"279 379 CURVE SMOOTH",
"126 379 LINE"
);
}
);
width = 520;
},
{
layerId = "08BB1446-875F-4786-BB83-45BCD1FA68FA";
paths = (
{
closed = 1;
nodes = (
"144 -7 OFFCURVE",
"156 6.333 OFFCURVE",
"156 33 CURVE SMOOTH",
"156 322 LINE",
"357 322 LINE SMOOTH",
"477 322 OFFCURVE",
"546 377 OFFCURVE",
"546 489 CURVE SMOOTH",
"546 601 OFFCURVE",
"469 641 OFFCURVE",
"309 641 CURVE SMOOTH",
"118 641 LINE SMOOTH",
"95.333 641 OFFCURVE",
"84 626.333 OFFCURVE",
"84 597 CURVE SMOOTH",
"84 33 LINE SMOOTH",
"84 6.333 OFFCURVE",
"96 -7 OFFCURVE",
"120 -7 CURVE SMOOTH"
);
},
{
closed = 1;
nodes = (
"156 569 LINE",
"309 569 LINE SMOOTH",
"437 569 OFFCURVE",
"474 554 OFFCURVE",
"474 482 CURVE SMOOTH",
"474 446 OFFCURVE",
"463.333 422.667 OFFCURVE",
"442 412 CURVE SMOOTH",
"420.667 400 OFFCURVE",
"376.333 394 OFFCURVE",
"309 394 CURVE SMOOTH",
"156 394 LINE"
);
}
);
width = 580;
},
{
layerId = "260E7E84-60BE-47D3-B29C-27583EB1270C";
paths = (
{
closed = 1;
nodes = (
"84 -16 OFFCURVE",
"126 -16 OFFCURVE",
"126 20 CURVE SMOOTH",
"126 337 LINE",
"321 337 LINE SMOOTH",
"431 337 OFFCURVE",
"486 388.667 OFFCURVE",
"486 492 CURVE SMOOTH",
"486 598.667 OFFCURVE",
"416.333 636 OFFCURVE",
"279 636 CURVE SMOOTH",
"103 636 LINE SMOOTH",
"90.333 636 OFFCURVE",
"84 625.667 OFFCURVE",
"84 605 CURVE SMOOTH",
"84 20 LINE SMOOTH"
);
},
{
closed = 1;
nodes = (
"126 594 LINE",
"279 594 LINE SMOOTH",
"399 594 OFFCURVE",
"444 574 OFFCURVE",
"444 486 CURVE SMOOTH",
"444 398 OFFCURVE",
"399 379 OFFCURVE",
"279 379 CURVE SMOOTH",
"126 379 LINE"
);
}
);
width = 520;
}
);
unicode = 0050;
},
{
glyphname = Q;
lastChange = "2016-07-15 21:22:19 +0000";
layers = (
{
layerId = "C40088C9-C375-45DB-8BB9-703F8F681F6F";
paths = (
{
closed = 1;
nodes = (
"339.167 -9 OFFCURVE",
"389 6.333 OFFCURVE",
"429 37 CURVE",
"466 -1 LINE",
"497.269 -27.458 OFFCURVE",
"520.221 4.779 OFFCURVE",
"496 29 CURVE SMOOTH",
"458 67 LINE",
"492 107.667 OFFCURVE",
"509 161 OFFCURVE",
"509 227 CURVE SMOOTH",
"509 409 LINE SMOOTH",
"509 555.667 OFFCURVE",
"416.333 645 OFFCURVE",
"287 645 CURVE SMOOTH",
"157.667 645 OFFCURVE",
"65 555.667 OFFCURVE",
"65 409 CURVE SMOOTH",
"65 227 LINE SMOOTH",
"65 80.333 OFFCURVE",
"160.167 -9 OFFCURVE",
"279.5 -9 CURVE SMOOTH"
);
},
{
closed = 1;
nodes = (
"228.5 33 OFFCURVE",
"187 50.167 OFFCURVE",
"155 84.5 CURVE SMOOTH",
"123 118.833 OFFCURVE",
"107 166.333 OFFCURVE",
"107 227 CURVE SMOOTH",
"107 409 LINE SMOOTH",
"107 530.333 OFFCURVE",
"175 603 OFFCURVE",
"287 603 CURVE SMOOTH",
"399 603 OFFCURVE",
"467 530.333 OFFCURVE",
"467 409 CURVE SMOOTH",
"467 227 LINE SMOOTH",
"467 172.333 OFFCURVE",
"454.333 128.333 OFFCURVE",
"429 95 CURVE",
"371 154 LINE SMOOTH",
"343.523 181.477 OFFCURVE",
"315.301 149.699 OFFCURVE",
"341 124 CURVE SMOOTH",
"399 67 LINE",
"370.333 44.333 OFFCURVE",
"330.5 33 OFFCURVE",
"279.5 33 CURVE SMOOTH"
);
}
);
width = 574;
},
{
layerId = "08BB1446-875F-4786-BB83-45BCD1FA68FA";
paths = (
{
closed = 1;
nodes = (
"377.333 -9 OFFCURVE",
"428.667 3.333 OFFCURVE",
"470 28 CURVE",
"499 -1 LINE",
"536.301 -35.193 OFFCURVE",
"588.727 12.578 OFFCURVE",
"551 53 CURVE",
"523 79 LINE",
"553 118.333 OFFCURVE",
"568 168.667 OFFCURVE",
"568 230 CURVE SMOOTH",
"568 406 LINE SMOOTH",
"568 554 OFFCURVE",
"468 645 OFFCURVE",
"316 645 CURVE SMOOTH",
"164 645 OFFCURVE",
"64 555.333 OFFCURVE",
"64 406 CURVE SMOOTH",
"64 230 LINE SMOOTH",
"64 80.667 OFFCURVE",
"164 -9 OFFCURVE",
"316 -9 CURVE SMOOTH"
);
},
{
closed = 1;
nodes = (
"198.667 63 OFFCURVE",
"136 123.667 OFFCURVE",
"136 233 CURVE SMOOTH",
"136 403 LINE SMOOTH",
"136 511 OFFCURVE",
"197.333 573 OFFCURVE",
"316 573 CURVE SMOOTH",
"434.667 573 OFFCURVE",
"496 511 OFFCURVE",
"496 403 CURVE SMOOTH",
"496 233 LINE SMOOTH",
"496 192.333 OFFCURVE",
"487.333 158 OFFCURVE",
"470 130 CURVE",
"424 172 LINE SMOOTH",
"400 194.667 OFFCURVE",
"373.333 192.667 OFFCURVE",
"360 178 CURVE SMOOTH",
"345.333 163.333 OFFCURVE",
"343 138.667 OFFCURVE",
"367 124 CURVE",
"416 83 LINE",
"389.333 69.667 OFFCURVE",
"356 63 OFFCURVE",
"316 63 CURVE SMOOTH"
);
}
);
width = 632;
},
{
layerId = "260E7E84-60BE-47D3-B29C-27583EB1270C";
paths = (
{
closed = 1;
nodes = (
"339.167 -9 OFFCURVE",
"389 6.333 OFFCURVE",
"429 37 CURVE",
"466 -1 LINE",
"497.269 -27.458 OFFCURVE",
"520.221 4.779 OFFCURVE",
"496 29 CURVE SMOOTH",
"458 67 LINE",
"492 107.667 OFFCURVE",
"509 161 OFFCURVE",
"509 227 CURVE SMOOTH",
"509 409 LINE SMOOTH",
"509 555.667 OFFCURVE",
"416.333 645 OFFCURVE",
"287 645 CURVE SMOOTH",
"157.667 645 OFFCURVE",
"65 555.667 OFFCURVE",
"65 409 CURVE SMOOTH",
"65 227 LINE SMOOTH",
"65 80.333 OFFCURVE",
"160.167 -9 OFFCURVE",
"279.5 -9 CURVE SMOOTH"
);
},
{
closed = 1;
nodes = (
"228.5 33 OFFCURVE",
"187 50.167 OFFCURVE",
"155 84.5 CURVE SMOOTH",
"123 118.833 OFFCURVE",
"107 166.333 OFFCURVE",
"107 227 CURVE SMOOTH",
"107 409 LINE SMOOTH",
"107 530.333 OFFCURVE",
"175 603 OFFCURVE",
"287 603 CURVE SMOOTH",
"399 603 OFFCURVE",
"467 530.333 OFFCURVE",
"467 409 CURVE SMOOTH",
"467 227 LINE SMOOTH",
"467 172.333 OFFCURVE",
"454.333 128.333 OFFCURVE",
"429 95 CURVE",
"371 154 LINE SMOOTH",
"343.523 181.477 OFFCURVE",
"315.301 149.699 OFFCURVE",
"341 124 CURVE SMOOTH",
"399 67 LINE",
"370.333 44.333 OFFCURVE",
"330.5 33 OFFCURVE",
"279.5 33 CURVE SMOOTH"
);
}
);
width = 574;
}
);
unicode = 0051;
},
{
glyphname = R;
lastChange = "2016-07-15 21:22:19 +0000";
layers = (
{
layerId = "C40088C9-C375-45DB-8BB9-703F8F681F6F";
paths = (
{
closed = 1;
nodes = (
"486.667 -7 OFFCURVE",
"494 2 OFFCURVE",
"494 20 CURVE SMOOTH",
"494 36 OFFCURVE",
"471.833 130.833 OFFCURVE",
"428.5 235.5 CURVE SMOOTH",
"406.833 287.833 OFFCURVE",
"385 322.667 OFFCURVE",
"363 340 CURVE",
"441.667 352 OFFCURVE",
"486 402 OFFCURVE",
"486 486 CURVE SMOOTH",
"486 600.667 OFFCURVE",
"416.333 636 OFFCURVE",
"279 636 CURVE SMOOTH",
"103 636 LINE SMOOTH",
"90.333 636 OFFCURVE",
"84 625.667 OFFCURVE",
"84 605 CURVE SMOOTH",
"84 20 LINE SMOOTH",
"84 -16 OFFCURVE",
"126 -16 OFFCURVE",
"126 20 CURVE SMOOTH",
"126 337 LINE",
"314 337 LINE",
"342 315 OFFCURVE",
"367.333 278 OFFCURVE",
"390 226 CURVE SMOOTH",
"412.667 174 OFFCURVE",
"428.667 129 OFFCURVE",
"438 91 CURVE SMOOTH",
"447.333 53 OFFCURVE",
"452 30 OFFCURVE",
"452 22 CURVE SMOOTH",
"452 6 OFFCURVE",
"461.333 -5.667 OFFCURVE",
"472 -7 CURVE"
);
},
{
closed = 1;
nodes = (
"126 594 LINE",
"279 594 LINE SMOOTH",
"399 594 OFFCURVE",
"444 574 OFFCURVE",
"444 486 CURVE SMOOTH",
"444 398 OFFCURVE",
"397.667 380.333 OFFCURVE",
"279 379 CURVE",
"126 379 LINE"
);
}
);
width = 549;
},
{
layerId = "08BB1446-875F-4786-BB83-45BCD1FA68FA";
paths = (
{
closed = 1;
nodes = (
"144 -7 OFFCURVE",
"156 6.333 OFFCURVE",
"156 33 CURVE SMOOTH",
"156 322 LINE",
"342 322 LINE",
"370.667 302 OFFCURVE",
"396.5 268.333 OFFCURVE",
"419.5 221 CURVE SMOOTH",
"442.5 173.667 OFFCURVE",
"458.5 133.333 OFFCURVE",
"467.5 100 CURVE SMOOTH",
"485.5 33.333 OFFCURVE",
"481.333 22.333 OFFCURVE",
"492 5 CURVE SMOOTH",
"502.667 -11 OFFCURVE",
"528 -12 OFFCURVE",
"544 4 CURVE",
"557.333 20 OFFCURVE",
"558.5 26.167 OFFCURVE",
"540.5 97.5 CURVE SMOOTH",
"531.5 133.167 OFFCURVE",
"517.333 175.5 OFFCURVE",
"498 224.5 CURVE SMOOTH",
"478.667 273.5 OFFCURVE",
"458.667 310.667 OFFCURVE",
"438 336 CURVE",
"510 356.667 OFFCURVE",
"546 406.333 OFFCURVE",
"546 485 CURVE SMOOTH",
"546 607.667 OFFCURVE",
"468.667 646 OFFCURVE",
"306 646 CURVE SMOOTH",
"118 646 LINE SMOOTH",
"95.333 646 OFFCURVE",
"84 631.333 OFFCURVE",
"84 602 CURVE SMOOTH",
"84 33 LINE SMOOTH",
"84 6.333 OFFCURVE",
"96 -7 OFFCURVE",
"120 -7 CURVE SMOOTH"
);
},
{
closed = 1;
nodes = (
"156 569 LINE",
"306 569 LINE SMOOTH",
"434 569 OFFCURVE",
"474 554 OFFCURVE",
"474 482 CURVE SMOOTH",
"474 410 OFFCURVE",
"436.667 394 OFFCURVE",
"306 394 CURVE SMOOTH",
"156 394 LINE"
);
}
);
width = 609;
},
{
layerId = "260E7E84-60BE-47D3-B29C-27583EB1270C";
paths = (
{
closed = 1;
nodes = (
"486.667 -7 OFFCURVE",
"494 2 OFFCURVE",
"494 20 CURVE SMOOTH",
"494 36 OFFCURVE",
"471.833 130.833 OFFCURVE",
"428.5 235.5 CURVE SMOOTH",
"406.833 287.833 OFFCURVE",
"385 322.667 OFFCURVE",
"363 340 CURVE",
"441.667 352 OFFCURVE",
"486 402 OFFCURVE",
"486 486 CURVE SMOOTH",
"486 600.667 OFFCURVE",
"416.333 636 OFFCURVE",
"279 636 CURVE SMOOTH",
"103 636 LINE SMOOTH",
"90.333 636 OFFCURVE",
"84 625.667 OFFCURVE",
"84 605 CURVE SMOOTH",
"84 20 LINE SMOOTH",
"84 -16 OFFCURVE",
"126 -16 OFFCURVE",
"126 20 CURVE SMOOTH",
"126 337 LINE",
"314 337 LINE",
"342 315 OFFCURVE",
"367.333 278 OFFCURVE",
"390 226 CURVE SMOOTH",
"412.667 174 OFFCURVE",
"428.667 129 OFFCURVE",
"438 91 CURVE SMOOTH",
"447.333 53 OFFCURVE",
"452 30 OFFCURVE",
"452 22 CURVE SMOOTH",
"452 6 OFFCURVE",
"461.333 -5.667 OFFCURVE",
"472 -7 CURVE"
);
},
{
closed = 1;
nodes = (
"126 594 LINE",
"279 594 LINE SMOOTH",
"399 594 OFFCURVE",
"444 574 OFFCURVE",
"444 486 CURVE SMOOTH",
"444 398 OFFCURVE",
"397.667 380.333 OFFCURVE",
"279 379 CURVE",
"126 379 LINE"
);
}
);
width = 549;
}
);
unicode = 0052;
},
{
glyphname = S;
lastChange = "2016-07-15 21:22:19 +0000";
layers = (
{
layerId = "C40088C9-C375-45DB-8BB9-703F8F681F6F";
paths = (
{
closed = 1;
nodes = (
"347 -8 LINE SMOOTH",
"461.667 -8 OFFCURVE",
"508 66 OFFCURVE",
"508 154 CURVE SMOOTH",
"508 246.667 OFFCURVE",
"467 303.333 OFFCURVE",
"385 324 CURVE",
"168 376 LINE SMOOTH",
"132 385.333 OFFCURVE",
"104 427.833 OFFCURVE",
"104 484.5 CURVE SMOOTH",
"104 541.167 OFFCURVE",
"135.333 602 OFFCURVE",
"206 602 CURVE SMOOTH",
"300 602 LINE SMOOTH",
"412.528 602 OFFCURVE",
"465 593.277 OFFCURVE",
"465 471 CURVE SMOOTH",
"465 433.667 OFFCURVE",
"508 433.667 OFFCURVE",
"508 471 CURVE SMOOTH",
"508 543.667 OFFCURVE",
"488.667 591.333 OFFCURVE",
"450 614 CURVE SMOOTH",
"410 638 OFFCURVE",
"369.333 644 OFFCURVE",
"300 644 CURVE SMOOTH",
"224 644 LINE SMOOTH",
"109.333 644 OFFCURVE",
"62 572.167 OFFCURVE",
"62 483.5 CURVE SMOOTH",
"62 394.833 OFFCURVE",
"95.333 350.333 OFFCURVE",
"186 329 CURVE",
"402 276 LINE",
"471.686 276.902 OFFCURVE",
"512.353 36.235 OFFCURVE",
"364 34 CURVE",
"271 34 LINE SMOOTH",
"145.667 34 OFFCURVE",
"105 52.333 OFFCURVE",
"105 167 CURVE SMOOTH",
"105 185.667 OFFCURVE",
"98.333 195 OFFCURVE",
"85 195 CURVE SMOOTH",
"69.667 195 OFFCURVE",
"62 185.667 OFFCURVE",
"62 167 CURVE SMOOTH",
"62 93.667 OFFCURVE",
"81.333 45.333 OFFCURVE",
"120 22 CURVE SMOOTH",
"160 -2 OFFCURVE",
"201.667 -8 OFFCURVE",
"271 -8 CURVE SMOOTH"
);
}
);
width = 570;
},
{
layerId = "08BB1446-875F-4786-BB83-45BCD1FA68FA";
paths = (
{
closed = 1;
nodes = (
"408 -8 LINE SMOOTH",
"542.667 -8 OFFCURVE",
"597 67.5 OFFCURVE",
"597 157.5 CURVE SMOOTH",
"597 247.5 OFFCURVE",
"556 318.667 OFFCURVE",
"460 336 CURVE SMOOTH",
"185 385 LINE",
"131.895 387.203 OFFCURVE",
"82.007 565.092 OFFCURVE",
"238 572 CURVE",
"344 572 LINE SMOOTH",
"418.667 572 OFFCURVE",
"467.333 565.5 OFFCURVE",
"490 552.5 CURVE SMOOTH",
"512.667 539.5 OFFCURVE",
"524 507.333 OFFCURVE",
"524 456 CURVE SMOOTH",
"524 402.458 OFFCURVE",
"597 395.346 OFFCURVE",
"597 456 CURVE SMOOTH",
"597 534 OFFCURVE",
"575 585.333 OFFCURVE",
"531 610 CURVE SMOOTH",
"484.333 636.667 OFFCURVE",
"433.333 644 OFFCURVE",
"344 644 CURVE SMOOTH",
"268 644 LINE SMOOTH",
"188.667 644 OFFCURVE",
"133.333 626 OFFCURVE",
"102 590 CURVE SMOOTH",
"74.667 558 OFFCURVE",
"61 520.667 OFFCURVE",
"61 478 CURVE SMOOTH",
"61 384.667 OFFCURVE",
"100 336 OFFCURVE",
"200 316 CURVE",
"473 265 LINE",
"523.373 269.922 OFFCURVE",
"573.039 64.255 OFFCURVE",
"430 64 CURVE",
"312 64 LINE SMOOTH",
"166.667 64 OFFCURVE",
"134 79.333 OFFCURVE",
"134 182 CURVE SMOOTH",
"134 207.333 OFFCURVE",
"120.333 225 OFFCURVE",
"99 225 CURVE SMOOTH",
"73.667 225 OFFCURVE",
"61 210.667 OFFCURVE",
"61 182 CURVE SMOOTH",
"61 30 OFFCURVE",
"136 -8 OFFCURVE",
"312 -8 CURVE SMOOTH"
);
}
);
width = 658;
},
{
layerId = "260E7E84-60BE-47D3-B29C-27583EB1270C";
paths = (
{
closed = 1;
nodes = (
"347 -8 LINE SMOOTH",
"461.667 -8 OFFCURVE",
"508 66 OFFCURVE",
"508 154 CURVE SMOOTH",
"508 246.667 OFFCURVE",
"467 303.333 OFFCURVE",
"385 324 CURVE",
"168 376 LINE SMOOTH",
"132 385.333 OFFCURVE",
"104 427.833 OFFCURVE",
"104 484.5 CURVE SMOOTH",
"104 541.167 OFFCURVE",
"135.333 602 OFFCURVE",
"206 602 CURVE SMOOTH",
"300 602 LINE SMOOTH",
"412.528 602 OFFCURVE",
"465 593.277 OFFCURVE",
"465 471 CURVE SMOOTH",
"465 433.667 OFFCURVE",
"508 433.667 OFFCURVE",
"508 471 CURVE SMOOTH",
"508 543.667 OFFCURVE",
"488.667 591.333 OFFCURVE",
"450 614 CURVE SMOOTH",
"410 638 OFFCURVE",
"369.333 644 OFFCURVE",
"300 644 CURVE SMOOTH",
"224 644 LINE SMOOTH",
"109.333 644 OFFCURVE",
"62 572.167 OFFCURVE",
"62 483.5 CURVE SMOOTH",
"62 394.833 OFFCURVE",
"95.333 350.333 OFFCURVE",
"186 329 CURVE",
"402 276 LINE",
"471.686 276.902 OFFCURVE",
"512.353 36.235 OFFCURVE",
"364 34 CURVE",
"271 34 LINE SMOOTH",
"145.667 34 OFFCURVE",
"105 52.333 OFFCURVE",
"105 167 CURVE SMOOTH",
"105 185.667 OFFCURVE",
"98.333 195 OFFCURVE",
"85 195 CURVE SMOOTH",
"69.667 195 OFFCURVE",
"62 185.667 OFFCURVE",
"62 167 CURVE SMOOTH",
"62 93.667 OFFCURVE",
"81.333 45.333 OFFCURVE",
"120 22 CURVE SMOOTH",
"160 -2 OFFCURVE",
"201.667 -8 OFFCURVE",
"271 -8 CURVE SMOOTH"
);
}
);
width = 570;
}
);
unicode = 0053;
},
{
glyphname = T;
lastChange = "2016-07-15 21:22:19 +0000";
layers = (
{
layerId = "C40088C9-C375-45DB-8BB9-703F8F681F6F";
paths = (
{
closed = 1;
nodes = (
"209 -16 OFFCURVE",
"251 -16 OFFCURVE",
"251 20 CURVE SMOOTH",
"251 594 LINE",
"405 594 LINE SMOOTH",
"442.333 594 OFFCURVE",
"442.333 636 OFFCURVE",
"405 636 CURVE SMOOTH",
"54 636 LINE SMOOTH",
"16.667 636 OFFCURVE",
"16.667 594 OFFCURVE",
"54 594 CURVE SMOOTH",
"209 594 LINE",
"209 20 LINE SMOOTH"
);
}
);
width = 460;
},
{
layerId = "08BB1446-875F-4786-BB83-45BCD1FA68FA";
paths = (
{
closed = 1;
nodes = (
"219 -21.928 OFFCURVE",
"302 -20.15 OFFCURVE",
"302 33 CURVE SMOOTH",
"302 564 LINE",
"450 564 LINE SMOOTH",
"478.667 564 OFFCURVE",
"493 576 OFFCURVE",
"493 600 CURVE SMOOTH",
"493 624 OFFCURVE",
"478.667 636 OFFCURVE",
"450 636 CURVE SMOOTH",
"69 636 LINE SMOOTH",
"10.961 636 OFFCURVE",
"10.961 564 OFFCURVE",
"69 564 CURVE SMOOTH",
"219 564 LINE",
"219 33 LINE SMOOTH"
);
}
);
width = 520;
},
{
layerId = "260E7E84-60BE-47D3-B29C-27583EB1270C";
paths = (
{
closed = 1;
nodes = (
"209 -16 OFFCURVE",
"251 -16 OFFCURVE",
"251 20 CURVE SMOOTH",
"251 594 LINE",
"405 594 LINE SMOOTH",
"442.333 594 OFFCURVE",
"442.333 636 OFFCURVE",
"405 636 CURVE SMOOTH",
"54 636 LINE SMOOTH",
"16.667 636 OFFCURVE",
"16.667 594 OFFCURVE",
"54 594 CURVE SMOOTH",
"209 594 LINE",
"209 20 LINE SMOOTH"
);
}
);
width = 460;
}
);
unicode = 0054;
},
{
glyphname = U;
lastChange = "2016-07-15 21:22:19 +0000";
layers = (
{
layerId = "C40088C9-C375-45DB-8BB9-703F8F681F6F";
paths = (
{
closed = 1;
nodes = (
"428.333 -9 OFFCURVE",
"521 80.333 OFFCURVE",
"521 227 CURVE SMOOTH",
"521 615 LINE SMOOTH",
"521 652.333 OFFCURVE",
"479 652.333 OFFCURVE",
"479 615 CURVE SMOOTH",
"479 227 LINE SMOOTH",
"479 105.667 OFFCURVE",
"411 33 OFFCURVE",
"299 33 CURVE SMOOTH",
"187 33 OFFCURVE",
"119 105.667 OFFCURVE",
"119 227 CURVE SMOOTH",
"119 615 LINE SMOOTH",
"119 652.333 OFFCURVE",
"77 652.333 OFFCURVE",
"77 615 CURVE SMOOTH",
"77 227 LINE SMOOTH",
"77 80.333 OFFCURVE",
"169.667 -9 OFFCURVE",
"299 -9 CURVE SMOOTH"
);
}
);
width = 598;
},
{
layerId = "08BB1446-875F-4786-BB83-45BCD1FA68FA";
paths = (
{
closed = 1;
nodes = (
"480 -9 OFFCURVE",
"581 82 OFFCURVE",
"581 230 CURVE SMOOTH",
"581 602 LINE SMOOTH",
"581 629.333 OFFCURVE",
"569 643 OFFCURVE",
"545 643 CURVE SMOOTH",
"521 643 OFFCURVE",
"509 629.667 OFFCURVE",
"509 603 CURVE SMOOTH",
"509 233 LINE SMOOTH",
"509 123.667 OFFCURVE",
"446.333 63 OFFCURVE",
"329 63 CURVE SMOOTH",
"211.667 63 OFFCURVE",
"149 123.667 OFFCURVE",
"149 233 CURVE SMOOTH",
"149 603 LINE SMOOTH",
"149 631 OFFCURVE",
"131.667 643 OFFCURVE",
"113 643 CURVE SMOOTH",
"89 643 OFFCURVE",
"77 629.333 OFFCURVE",
"77 602 CURVE SMOOTH",
"77 230 LINE SMOOTH",
"77 80.667 OFFCURVE",
"176 -9 OFFCURVE",
"328 -9 CURVE SMOOTH"
);
}
);
width = 658;
},
{
layerId = "260E7E84-60BE-47D3-B29C-27583EB1270C";
paths = (
{
closed = 1;
nodes = (
"428.333 -9 OFFCURVE",
"521 80.333 OFFCURVE",
"521 227 CURVE SMOOTH",
"521 615 LINE SMOOTH",
"521 652.333 OFFCURVE",
"479 652.333 OFFCURVE",
"479 615 CURVE SMOOTH",
"479 227 LINE SMOOTH",
"479 105.667 OFFCURVE",
"411 33 OFFCURVE",
"299 33 CURVE SMOOTH",
"187 33 OFFCURVE",
"119 105.667 OFFCURVE",
"119 227 CURVE SMOOTH",
"119 615 LINE SMOOTH",
"119 652.333 OFFCURVE",
"77 652.333 OFFCURVE",
"77 615 CURVE SMOOTH",
"77 227 LINE SMOOTH",
"77 80.333 OFFCURVE",
"169.667 -9 OFFCURVE",
"299 -9 CURVE SMOOTH"
);
}
);
width = 598;
}
);
unicode = 0055;
},
{
glyphname = V;
lastChange = "2016-07-15 21:22:19 +0000";
layers = (
{
layerId = "C40088C9-C375-45DB-8BB9-703F8F681F6F";
paths = (
{
closed = 1;
nodes = (
"297 0 LINE",
"522 617 LINE SMOOTH",
"526.738 631.215 OFFCURVE",
"525.709 652 OFFCURVE",
"504 652 CURVE SMOOTH",
"494.667 652 OFFCURVE",
"487.333 645.333 OFFCURVE",
"482 632 CURVE SMOOTH",
"274 60 LINE",
"66 632 LINE",
"60 645.333 OFFCURVE",
"53.333 652 OFFCURVE",
"46 652 CURVE SMOOTH",
"32.667 652 OFFCURVE",
"25 645.333 OFFCURVE",
"23 632 CURVE",
"23 628 OFFCURVE",
"24 623 OFFCURVE",
"26 617 CURVE SMOOTH",
"251 0 LINE"
);
}
);
width = 548;
},
{
layerId = "08BB1446-875F-4786-BB83-45BCD1FA68FA";
paths = (
{
closed = 1;
nodes = (
"346 0 LINE",
"583 599 LINE",
"590.469 621.407 OFFCURVE",
"581.325 652 OFFCURVE",
"550 652 CURVE SMOOTH",
"533.333 652 OFFCURVE",
"521 642.667 OFFCURVE",
"513 624 CURVE SMOOTH",
"306 104 LINE",
"97 624 LINE SMOOTH",
"89.667 642.667 OFFCURVE",
"77.333 652 OFFCURVE",
"60 652 CURVE SMOOTH",
"28.675 652 OFFCURVE",
"19.531 621.407 OFFCURVE",
"27 599 CURVE",
"264 0 LINE"
);
}
);
width = 610;
},
{
layerId = "260E7E84-60BE-47D3-B29C-27583EB1270C";
paths = (
{
closed = 1;
nodes = (
"297 0 LINE",
"522 617 LINE SMOOTH",
"526.738 631.215 OFFCURVE",
"525.709 652 OFFCURVE",
"504 652 CURVE SMOOTH",
"494.667 652 OFFCURVE",
"487.333 645.333 OFFCURVE",
"482 632 CURVE SMOOTH",
"274 60 LINE",
"66 632 LINE",
"60 645.333 OFFCURVE",
"53.333 652 OFFCURVE",
"46 652 CURVE SMOOTH",
"32.667 652 OFFCURVE",
"25 645.333 OFFCURVE",
"23 632 CURVE",
"23 628 OFFCURVE",
"24 623 OFFCURVE",
"26 617 CURVE SMOOTH",
"251 0 LINE"
);
}
);
width = 548;
}
);
unicode = 0056;
},
{
glyphname = W;
lastChange = "2016-07-15 21:22:19 +0000";
layers = (
{
layerId = "C40088C9-C375-45DB-8BB9-703F8F681F6F";
paths = (
{
closed = 1;
nodes = (
"269 0 LINE",
"444 565 LINE",
"620 0 LINE",
"670 0 LINE",
"862 617 LINE",
"876.484 630.549 OFFCURVE",
"848.928 678.216 OFFCURVE",
"822 632 CURVE",
"646 60 LINE",
"469 630 LINE SMOOTH",
"459.667 659.333 OFFCURVE",
"430.333 659.333 OFFCURVE",
"421 630 CURVE SMOOTH",
"245 60 LINE",
"67 632 LINE SMOOTH",
"63 645.333 OFFCURVE",
"56.667 652 OFFCURVE",
"48 652 CURVE SMOOTH",
"37.333 652 OFFCURVE",
"24 642 OFFCURVE",
"24 634 CURVE SMOOTH",
"24 628.667 OFFCURVE",
"30.667 621 OFFCURVE",
"32 617 CURVE SMOOTH",
"220 0 LINE"
);
}
);
width = 892;
},
{
layerId = "08BB1446-875F-4786-BB83-45BCD1FA68FA";
paths = (
{
closed = 1;
nodes = (
"299 0 LINE",
"477 531 LINE",
"656 0 LINE",
"730 0 LINE",
"924 600 LINE SMOOTH",
"926.667 608 OFFCURVE",
"928 614 OFFCURVE",
"928 618 CURVE SMOOTH",
"928 638.667 OFFCURVE",
"917.333 649 OFFCURVE",
"896 649 CURVE SMOOTH",
"874.667 649 OFFCURVE",
"861.333 639.667 OFFCURVE",
"856 621 CURVE SMOOTH",
"694 96 LINE",
"520 619 LINE",
"504 663 OFFCURVE",
"452 662.667 OFFCURVE",
"436 620 CURVE",
"263 96 LINE",
"99 625 LINE SMOOTH",
"93 643.667 OFFCURVE",
"79.333 653 OFFCURVE",
"58 653 CURVE SMOOTH",
"37.333 653 OFFCURVE",
"27 643.333 OFFCURVE",
"27 624 CURVE SMOOTH",
"27 618.667 OFFCURVE",
"28.333 612 OFFCURVE",
"31 604 CURVE SMOOTH",
"226 0 LINE"
);
}
);
width = 955;
},
{
layerId = "260E7E84-60BE-47D3-B29C-27583EB1270C";
paths = (
{
closed = 1;
nodes = (
"269 0 LINE",
"444 565 LINE",
"620 0 LINE",
"670 0 LINE",
"862 617 LINE",
"876.484 630.549 OFFCURVE",
"848.928 678.216 OFFCURVE",
"822 632 CURVE",
"646 60 LINE",
"469 630 LINE SMOOTH",
"459.667 659.333 OFFCURVE",
"430.333 659.333 OFFCURVE",
"421 630 CURVE SMOOTH",
"245 60 LINE",
"67 632 LINE SMOOTH",
"63 645.333 OFFCURVE",
"56.667 652 OFFCURVE",
"48 652 CURVE SMOOTH",
"37.333 652 OFFCURVE",
"24 642 OFFCURVE",
"24 634 CURVE SMOOTH",
"24 628.667 OFFCURVE",
"30.667 621 OFFCURVE",
"32 617 CURVE SMOOTH",
"220 0 LINE"
);
}
);
width = 892;
}
);
unicode = 0057;
},
{
glyphname = X;
lastChange = "2016-07-15 21:22:19 +0000";
layers = (
{
layerId = "C40088C9-C375-45DB-8BB9-703F8F681F6F";
paths = (
{
closed = 1;
nodes = (
"268 281 LINE",
"460 7 LINE",
"487.16 -27.567 OFFCURVE",
"511.694 5.767 OFFCURVE",
"495 32 CURVE",
"294 317 LINE",
"495 604 LINE",
"513.669 625.336 OFFCURVE",
"486.505 665.552 OFFCURVE",
"460 627 CURVE SMOOTH",
"268 354 LINE",
"77 627 LINE SMOOTH",
"50.111 666.111 OFFCURVE",
"23.34 625.325 OFFCURVE",
"42 604 CURVE",
"243 317 LINE",
"42 32 LINE",
"25.306 5.767 OFFCURVE",
"49.84 -27.567 OFFCURVE",
"77 7 CURVE"
);
}
);
width = 537;
},
{
layerId = "08BB1446-875F-4786-BB83-45BCD1FA68FA";
paths = (
{
closed = 1;
nodes = (
"302 270 LINE",
"497 13 LINE",
"537.954 -38.192 OFFCURVE",
"585.659 17.41 OFFCURVE",
"556 53 CURVE",
"351 317 LINE",
"556 582 LINE SMOOTH",
"584.863 619.522 OFFCURVE",
"536.645 675.511 OFFCURVE",
"497 621 CURVE",
"302 365 LINE",
"108 621 LINE",
"98.667 636.333 OFFCURVE",
"88 644 OFFCURVE",
"76 644 CURVE",
"74 644 LINE",
"63.333 644 OFFCURVE",
"54 639.333 OFFCURVE",
"46 630 CURVE SMOOTH",
"41.333 625.333 OFFCURVE",
"39 619 OFFCURVE",
"39 611 CURVE SMOOTH",
"39 599.667 OFFCURVE",
"42.333 590 OFFCURVE",
"49 582 CURVE SMOOTH",
"254 317 LINE",
"49 53 LINE",
"16.379 20.085 OFFCURVE",
"66.268 -37.693 OFFCURVE",
"108 13 CURVE"
);
}
);
width = 605;
},
{
layerId = "260E7E84-60BE-47D3-B29C-27583EB1270C";
paths = (
{
closed = 1;
nodes = (
"268 281 LINE",
"460 7 LINE",
"487.16 -27.567 OFFCURVE",
"511.694 5.767 OFFCURVE",
"495 32 CURVE",
"294 317 LINE",
"495 604 LINE",
"513.669 625.336 OFFCURVE",
"486.505 665.552 OFFCURVE",
"460 627 CURVE SMOOTH",
"268 354 LINE",
"77 627 LINE SMOOTH",
"50.111 666.111 OFFCURVE",
"23.34 625.325 OFFCURVE",
"42 604 CURVE",
"243 317 LINE",
"42 32 LINE",
"25.306 5.767 OFFCURVE",
"49.84 -27.567 OFFCURVE",
"77 7 CURVE"
);
}
);
width = 537;
}
);
unicode = 0058;
},
{
glyphname = Y;
lastChange = "2016-07-15 21:22:19 +0000";
layers = (
{
layerId = "C40088C9-C375-45DB-8BB9-703F8F681F6F";
paths = (
{
closed = 1;
nodes = (
"230.333 -16 OFFCURVE",
"270 -16 OFFCURVE",
"270 20 CURVE SMOOTH",
"270 310 LINE",
"475 604 LINE SMOOTH",
"488.351 623.073 OFFCURVE",
"480.397 640.845 OFFCURVE",
"461 643 CURVE",
"455.667 643 OFFCURVE",
"448.667 637.667 OFFCURVE",
"440 627 CURVE",
"249 354 LINE",
"57 627 LINE SMOOTH",
"42.333 648.333 OFFCURVE",
"32.667 644 OFFCURVE",
"22 636 CURVE",
"14 628 OFFCURVE",
"13.667 617.333 OFFCURVE",
"23 604 CURVE SMOOTH",
"229 310 LINE",
"229 20 LINE"
);
}
);
width = 499;
},
{
layerId = "08BB1446-875F-4786-BB83-45BCD1FA68FA";
paths = (
{
closed = 1;
nodes = (
"307.333 -7 OFFCURVE",
"320 6 OFFCURVE",
"320 32 CURVE SMOOTH",
"320 306 LINE",
"534 583 LINE",
"565 618.098 OFFCURVE",
"518.667 673.431 OFFCURVE",
"475 621 CURVE",
"281 365 LINE",
"86 621 LINE",
"44.026 673.431 OFFCURVE",
"-3.752 618.098 OFFCURVE",
"28 583 CURVE",
"243 306 LINE",
"243 32 LINE",
"243.667 6 OFFCURVE",
"256.667 -7 OFFCURVE",
"282 -7 CURVE SMOOTH"
);
}
);
width = 563;
},
{
layerId = "260E7E84-60BE-47D3-B29C-27583EB1270C";
paths = (
{
closed = 1;
nodes = (
"230.333 -16 OFFCURVE",
"270 -16 OFFCURVE",
"270 20 CURVE SMOOTH",
"270 310 LINE",
"475 604 LINE SMOOTH",
"488.351 623.073 OFFCURVE",
"480.397 640.845 OFFCURVE",
"461 643 CURVE",
"455.667 643 OFFCURVE",
"448.667 637.667 OFFCURVE",
"440 627 CURVE",
"249 354 LINE",
"57 627 LINE SMOOTH",
"42.333 648.333 OFFCURVE",
"32.667 644 OFFCURVE",
"22 636 CURVE",
"14 628 OFFCURVE",
"13.667 617.333 OFFCURVE",
"23 604 CURVE SMOOTH",
"229 310 LINE",
"229 20 LINE"
);
}
);
width = 499;
}
);
unicode = 0059;
},
{
glyphname = Z;
lastChange = "2016-07-15 21:22:19 +0000";
layers = (
{
layerId = "C40088C9-C375-45DB-8BB9-703F8F681F6F";
paths = (
{
closed = 1;
nodes = (
"459 0 LINE SMOOTH",
"499 0 OFFCURVE",
"499 42 OFFCURVE",
"459 42 CURVE SMOOTH",
"95 42 LINE",
"489 590 LINE",
"489 636 LINE",
"76 636 LINE SMOOTH",
"34.667 636 OFFCURVE",
"34.667 594 OFFCURVE",
"76 594 CURVE SMOOTH",
"442 594 LINE",
"46 44 LINE",
"46 0 LINE"
);
}
);
width = 535;
},
{
layerId = "08BB1446-875F-4786-BB83-45BCD1FA68FA";
paths = (
{
closed = 1;
nodes = (
"508 0 LINE SMOOTH",
"538 0 OFFCURVE",
"553 12 OFFCURVE",
"553 36 CURVE SMOOTH",
"553 60 OFFCURVE",
"538 72 OFFCURVE",
"508 72 CURVE SMOOTH",
"144 72 LINE",
"553 569 LINE",
"553 636 LINE",
"95 636 LINE SMOOTH",
"64.333 636 OFFCURVE",
"49 624 OFFCURVE",
"49 600 CURVE SMOOTH",
"49 576 OFFCURVE",
"64.333 564 OFFCURVE",
"95 564 CURVE SMOOTH",
"461 564 LINE",
"50 64 LINE",
"50 0 LINE"
);
}
);
width = 602;
},
{
layerId = "260E7E84-60BE-47D3-B29C-27583EB1270C";
paths = (
{
closed = 1;
nodes = (
"459 0 LINE SMOOTH",
"499 0 OFFCURVE",
"499 42 OFFCURVE",
"459 42 CURVE SMOOTH",
"95 42 LINE",
"489 590 LINE",
"489 636 LINE",
"76 636 LINE SMOOTH",
"34.667 636 OFFCURVE",
"34.667 594 OFFCURVE",
"76 594 CURVE SMOOTH",
"442 594 LINE",
"46 44 LINE",
"46 0 LINE"
);
}
);
width = 535;
}
);
unicode = 005A;
},
{
glyphname = bracketleft;
lastChange = "2016-07-15 21:22:19 +0000";
layers = (
{
layerId = "C40088C9-C375-45DB-8BB9-703F8F681F6F";
paths = (
{
closed = 1;
nodes = (
"200 -42 LINE",
"200 0 LINE",
"122 0 LINE",
"122 636 LINE",
"200 636 LINE",
"200 678 LINE",
"80 678 LINE",
"80 -42 LINE"
);
}
);
width = 244;
},
{
layerId = "08BB1446-875F-4786-BB83-45BCD1FA68FA";
paths = (
{
closed = 1;
nodes = (
"153 15 LINE",
"231 15 LINE",
"231 -57 LINE",
"81 -57 LINE",
"81 693 LINE",
"231 693 LINE",
"231 621 LINE",
"153 621 LINE"
);
}
);
width = 279;
},
{
layerId = "260E7E84-60BE-47D3-B29C-27583EB1270C";
paths = (
{
closed = 1;
nodes = (
"200 -42 LINE",
"200 0 LINE",
"122 0 LINE",
"122 636 LINE",
"200 636 LINE",
"200 678 LINE",
"80 678 LINE",
"80 -42 LINE"
);
}
);
width = 244;
}
);
unicode = 005B;
},
{
glyphname = backslash;
lastChange = "2016-07-15 21:22:19 +0000";
layers = (
{
layerId = "C40088C9-C375-45DB-8BB9-703F8F681F6F";
paths = (
{
closed = 1;
nodes = (
"298.667 -8 OFFCURVE",
"306 -1.667 OFFCURVE",
"306 11 CURVE SMOOTH",
"306 15 OFFCURVE",
"305 20.333 OFFCURVE",
"303 27 CURVE SMOOTH",
"85 625 LINE",
"81 638.333 OFFCURVE",
"74 645 OFFCURVE",
"64 645 CURVE SMOOTH",
"50 645 OFFCURVE",
"43 638.667 OFFCURVE",
"43 626 CURVE SMOOTH",
"43 621.333 OFFCURVE",
"44 616 OFFCURVE",
"46 610 CURVE SMOOTH",
"264 12 LINE",
"268 -1.333 OFFCURVE",
"274.667 -8 OFFCURVE",
"284 -8 CURVE SMOOTH"
);
}
);
width = 349;
},
{
layerId = "08BB1446-875F-4786-BB83-45BCD1FA68FA";
paths = (
{
closed = 1;
nodes = (
"327.001 -23 OFFCURVE",
"344.707 -4.228 OFFCURVE",
"323 53 CURVE",
"113 631 LINE",
"104.333 650.333 OFFCURVE",
"92.667 660 OFFCURVE",
"78 660 CURVE SMOOTH",
"47.224 660 OFFCURVE",
"31.386 635.5 OFFCURVE",
"50 590 CURVE",
"262 6 LINE",
"270 -13.333 OFFCURVE",
"282 -23 OFFCURVE",
"298 -23 CURVE SMOOTH"
);
}
);
width = 375;
},
{
layerId = "260E7E84-60BE-47D3-B29C-27583EB1270C";
paths = (
{
closed = 1;
nodes = (
"298.667 -8 OFFCURVE",
"306 -1.667 OFFCURVE",
"306 11 CURVE SMOOTH",
"306 15 OFFCURVE",
"305 20.333 OFFCURVE",
"303 27 CURVE SMOOTH",
"85 625 LINE",
"81 638.333 OFFCURVE",
"74 645 OFFCURVE",
"64 645 CURVE SMOOTH",
"50 645 OFFCURVE",
"43 638.667 OFFCURVE",
"43 626 CURVE SMOOTH",
"43 621.333 OFFCURVE",
"44 616 OFFCURVE",
"46 610 CURVE SMOOTH",
"264 12 LINE",
"268 -1.333 OFFCURVE",
"274.667 -8 OFFCURVE",
"284 -8 CURVE SMOOTH"
);
}
);
width = 349;
}
);
unicode = 005C;
},
{
glyphname = bracketright;
lastChange = "2016-07-15 21:22:19 +0000";
layers = (
{
layerId = "C40088C9-C375-45DB-8BB9-703F8F681F6F";
paths = (
{
closed = 1;
nodes = (
"164 -42 LINE",
"164 678 LINE",
"44 678 LINE",
"44 636 LINE",
"122 636 LINE",
"122 0 LINE",
"44 0 LINE",
"44 -42 LINE"
);
}
);
width = 244;
},
{
layerId = "08BB1446-875F-4786-BB83-45BCD1FA68FA";
paths = (
{
closed = 1;
nodes = (
"126 15 LINE",
"126 621 LINE",
"48 621 LINE",
"48 693 LINE",
"198 693 LINE",
"198 -57 LINE",
"48 -57 LINE",
"48 15 LINE"
);
}
);
width = 279;
},
{
layerId = "260E7E84-60BE-47D3-B29C-27583EB1270C";
paths = (
{
closed = 1;
nodes = (
"164 -42 LINE",
"164 678 LINE",
"44 678 LINE",
"44 636 LINE",
"122 636 LINE",
"122 0 LINE",
"44 0 LINE",
"44 -42 LINE"
);
}
);
width = 244;
}
);
unicode = 005D;
},
{
glyphname = asciicircum;
lastChange = "2016-07-15 21:22:19 +0000";
layers = (
{
layerId = "C40088C9-C375-45DB-8BB9-703F8F681F6F";
paths = (
{
closed = 1;
nodes = (
"113 365 OFFCURVE",
"121 371 OFFCURVE",
"127 383 CURVE SMOOTH",
"220 590 LINE",
"223 590 LINE",
"316 383 LINE SMOOTH",
"322 371 OFFCURVE",
"330 365 OFFCURVE",
"340 365 CURVE SMOOTH",
"352 365 OFFCURVE",
"358 371 OFFCURVE",
"358 383 CURVE SMOOTH",
"358 387 OFFCURVE",
"357.333 390.333 OFFCURVE",
"356 393 CURVE SMOOTH",
"249 636 LINE",
"195 636 LINE",
"87 393 LINE",
"85.667 387.667 OFFCURVE",
"85 384.333 OFFCURVE",
"85 383 CURVE",
"85 371 OFFCURVE",
"91 365 OFFCURVE",
"103 365 CURVE SMOOTH"
);
}
);
width = 443;
},
{
layerId = "08BB1446-875F-4786-BB83-45BCD1FA68FA";
paths = (
{
closed = 1;
nodes = (
"120.333 350 OFFCURVE",
"133 359 OFFCURVE",
"141 377 CURVE SMOOTH",
"222 557 LINE",
"301 377 LINE",
"321 341 OFFCURVE",
"353.333 347 OFFCURVE",
"364 359 CURVE SMOOTH",
"376 371 OFFCURVE",
"373.667 389.667 OFFCURVE",
"371 399 CURVE",
"258 651 LINE",
"186 651 LINE",
"72 399 LINE",
"67.725 386.176 OFFCURVE",
"70.453 350 OFFCURVE",
"103 350 CURVE SMOOTH"
);
}
);
width = 443;
},
{
layerId = "260E7E84-60BE-47D3-B29C-27583EB1270C";
paths = (
{
closed = 1;
nodes = (
"113 365 OFFCURVE",
"121 371 OFFCURVE",
"127 383 CURVE SMOOTH",
"220 590 LINE",
"223 590 LINE",
"316 383 LINE SMOOTH",
"322 371 OFFCURVE",
"330 365 OFFCURVE",
"340 365 CURVE SMOOTH",
"352 365 OFFCURVE",
"358 371 OFFCURVE",
"358 383 CURVE SMOOTH",
"358 387 OFFCURVE",
"357.333 390.333 OFFCURVE",
"356 393 CURVE SMOOTH",
"249 636 LINE",
"195 636 LINE",
"87 393 LINE",
"85.667 387.667 OFFCURVE",
"85 384.333 OFFCURVE",
"85 383 CURVE",
"85 371 OFFCURVE",
"91 365 OFFCURVE",
"103 365 CURVE SMOOTH"
);
}
);
width = 443;
}
);
unicode = 005E;
},
{
glyphname = underscore;
lastChange = "2016-07-15 21:22:19 +0000";
layers = (
{
layerId = "C40088C9-C375-45DB-8BB9-703F8F681F6F";
paths = (
{
closed = 1;
nodes = (
"447 -42 LINE SMOOTH",
"484.333 -42 OFFCURVE",
"484.333 0 OFFCURVE",
"447 0 CURVE SMOOTH",
"28 0 LINE SMOOTH",
"-9.333 0 OFFCURVE",
"-9.333 -42 OFFCURVE",
"28 -42 CURVE SMOOTH"
);
}
);
width = 475;
},
{
layerId = "08BB1446-875F-4786-BB83-45BCD1FA68FA";
paths = (
{
closed = 1;
nodes = (
"447 -57 LINE SMOOTH",
"475.667 -57 OFFCURVE",
"490 -45 OFFCURVE",
"490 -21 CURVE SMOOTH",
"490 3 OFFCURVE",
"475.667 15 OFFCURVE",
"447 15 CURVE SMOOTH",
"28 15 LINE SMOOTH",
"-0.667 15 OFFCURVE",
"-15 3 OFFCURVE",
"-15 -21 CURVE SMOOTH",
"-15 -45 OFFCURVE",
"-0.667 -57 OFFCURVE",
"28 -57 CURVE SMOOTH"
);
}
);
width = 475;
},
{
layerId = "260E7E84-60BE-47D3-B29C-27583EB1270C";
paths = (
{
closed = 1;
nodes = (
"447 -42 LINE SMOOTH",
"484.333 -42 OFFCURVE",
"484.333 0 OFFCURVE",
"447 0 CURVE SMOOTH",
"28 0 LINE SMOOTH",
"-9.333 0 OFFCURVE",
"-9.333 -42 OFFCURVE",
"28 -42 CURVE SMOOTH"
);
}
);
width = 475;
}
);
unicode = 005F;
},
{
glyphname = grave;
lastChange = "2016-07-15 21:22:19 +0000";
layers = (
{
layerId = "C40088C9-C375-45DB-8BB9-703F8F681F6F";
paths = (
{
closed = 1;
nodes = (
"167.028 491.553 OFFCURVE",
"191.661 526.757 OFFCURVE",
"171 550 CURVE",
"75 665 LINE",
"45.972 696.447 OFFCURVE",
"21.339 661.243 OFFCURVE",
"42 638 CURVE",
"138 523 LINE"
);
}
);
width = 212;
},
{
layerId = "08BB1446-875F-4786-BB83-45BCD1FA68FA";
paths = (
{
closed = 1;
nodes = (
"171.928 465.52 OFFCURVE",
"210.663 521.278 OFFCURVE",
"183 559 CURVE",
"87 674 LINE",
"42.125 724.154 OFFCURVE",
"-1.346 663.196 OFFCURVE",
"30 629 CURVE",
"126 514 LINE"
);
}
);
width = 212;
},
{
layerId = "260E7E84-60BE-47D3-B29C-27583EB1270C";
paths = (
{
closed = 1;
nodes = (
"167.028 491.553 OFFCURVE",
"191.661 526.757 OFFCURVE",
"171 550 CURVE",
"75 665 LINE",
"45.972 696.447 OFFCURVE",
"21.339 661.243 OFFCURVE",
"42 638 CURVE",
"138 523 LINE"
);
}
);
width = 212;
}
);
unicode = 0060;
},
{
glyphname = a;
lastChange = "2016-07-15 21:22:19 +0000";
layers = (
{
layerId = "C40088C9-C375-45DB-8BB9-703F8F681F6F";
paths = (
{
closed = 1;
nodes = (
"255 0 LINE SMOOTH",
"329 0 OFFCURVE",
"384 24 OFFCURVE",
"420 72 CURVE",
"420 23 LINE SMOOTH",
"420 -17 OFFCURVE",
"462 -17 OFFCURVE",
"462 23 CURVE SMOOTH",
"462 337 LINE SMOOTH",
"462 430.333 OFFCURVE",
"440.333 461 OFFCURVE",
"367 461 CURVE SMOOTH",
"212 461 LINE SMOOTH",
"122.667 461 OFFCURVE",
"60 426 OFFCURVE",
"60 354 CURVE SMOOTH",
"60 314 OFFCURVE",
"102 314 OFFCURVE",
"102 354 CURVE SMOOTH",
"102 397.333 OFFCURVE",
"141 419 OFFCURVE",
"219 419 CURVE SMOOTH",
"360 419 LINE SMOOTH",
"405.333 419 OFFCURVE",
"420 400.667 OFFCURVE",
"420 354 CURVE SMOOTH",
"420 290 LINE",
"268 290 LINE SMOOTH",
"215.333 290 OFFCURVE",
"173 284 OFFCURVE",
"141 272 CURVE SMOOTH",
"87 252 OFFCURVE",
"60 199.333 OFFCURVE",
"60 114 CURVE SMOOTH",
"60 82 OFFCURVE",
"69.333 54.667 OFFCURVE",
"88 32 CURVE SMOOTH",
"106.667 10.667 OFFCURVE",
"131.333 0 OFFCURVE",
"162 0 CURVE SMOOTH"
);
},
{
closed = 1;
nodes = (
"107.619 42 OFFCURVE",
"90.143 126.301 OFFCURVE",
"111.5 187 CURVE SMOOTH",
"131.338 243.382 OFFCURVE",
"183.796 248 OFFCURVE",
"268 248 CURVE SMOOTH",
"420 248 LINE",
"420 228 LINE SMOOTH",
"420 108 OFFCURVE",
"360.333 42 OFFCURVE",
"255 42 CURVE SMOOTH",
"162 42 LINE SMOOTH"
);
}
);
width = 534;
},
{
layerId = "08BB1446-875F-4786-BB83-45BCD1FA68FA";
paths = (
{
closed = 1;
nodes = (
"511 -7 OFFCURVE",
"523 7 OFFCURVE",
"523 35 CURVE SMOOTH",
"523 331 LINE SMOOTH",
"523 424.333 OFFCURVE",
"498.333 461 OFFCURVE",
"413 461 CURVE SMOOTH",
"258 461 LINE SMOOTH",
"130 461 OFFCURVE",
"61 434 OFFCURVE",
"61 350 CURVE SMOOTH",
"61 320 OFFCURVE",
"73 305 OFFCURVE",
"97 305 CURVE SMOOTH",
"121 305 OFFCURVE",
"133 320 OFFCURVE",
"133 350 CURVE SMOOTH",
"133 379.333 OFFCURVE",
"161 389 OFFCURVE",
"265 389 CURVE SMOOTH",
"406 389 LINE SMOOTH",
"442 389 OFFCURVE",
"451 380.333 OFFCURVE",
"451 347 CURVE SMOOTH",
"451 305 LINE",
"314 305 LINE SMOOTH",
"138 305 OFFCURVE",
"61 265 OFFCURVE",
"61 129 CURVE SMOOTH",
"61 50.333 OFFCURVE",
"110 0 OFFCURVE",
"178 0 CURVE SMOOTH",
"271 0 LINE SMOOTH",
"351 0 OFFCURVE",
"411 16.667 OFFCURVE",
"451 50 CURVE",
"451 38 LINE SMOOTH",
"451 8 OFFCURVE",
"463 -7 OFFCURVE",
"487 -7 CURVE SMOOTH"
);
},
{
closed = 1;
nodes = (
"158 72 OFFCURVE",
"133 96 OFFCURVE",
"133 124 CURVE SMOOTH",
"133 172 OFFCURVE",
"144.5 202.167 OFFCURVE",
"167.5 214.5 CURVE SMOOTH",
"190.5 226.833 OFFCURVE",
"239.333 233 OFFCURVE",
"314 233 CURVE SMOOTH",
"451 233 LINE",
"451 231.667 OFFCURVE",
"451 230.333 OFFCURVE",
"451 229 CURVE",
"451 191 OFFCURVE",
"442 157.667 OFFCURVE",
"424 129 CURVE SMOOTH",
"401.333 91 OFFCURVE",
"350.333 72 OFFCURVE",
"271 72 CURVE SMOOTH",
"178 72 LINE SMOOTH"
);
}
);
width = 594;
},
{
layerId = "260E7E84-60BE-47D3-B29C-27583EB1270C";
paths = (
{
closed = 1;
nodes = (
"255 0 LINE SMOOTH",
"329 0 OFFCURVE",
"384 24 OFFCURVE",
"420 72 CURVE",
"420 23 LINE SMOOTH",
"420 -17 OFFCURVE",
"462 -17 OFFCURVE",
"462 23 CURVE SMOOTH",
"462 337 LINE SMOOTH",
"462 430.333 OFFCURVE",
"440.333 461 OFFCURVE",
"367 461 CURVE SMOOTH",
"212 461 LINE SMOOTH",
"122.667 461 OFFCURVE",
"60 426 OFFCURVE",
"60 354 CURVE SMOOTH",
"60 314 OFFCURVE",
"102 314 OFFCURVE",
"102 354 CURVE SMOOTH",
"102 397.333 OFFCURVE",
"141 419 OFFCURVE",
"219 419 CURVE SMOOTH",
"360 419 LINE SMOOTH",
"405.333 419 OFFCURVE",
"420 400.667 OFFCURVE",
"420 354 CURVE SMOOTH",
"420 290 LINE",
"268 290 LINE SMOOTH",
"215.333 290 OFFCURVE",
"173 284 OFFCURVE",
"141 272 CURVE SMOOTH",
"87 252 OFFCURVE",
"60 199.333 OFFCURVE",
"60 114 CURVE SMOOTH",
"60 82 OFFCURVE",
"69.333 54.667 OFFCURVE",
"88 32 CURVE SMOOTH",
"106.667 10.667 OFFCURVE",
"131.333 0 OFFCURVE",
"162 0 CURVE SMOOTH"
);
},
{
closed = 1;
nodes = (
"107.619 42 OFFCURVE",
"90.143 126.301 OFFCURVE",
"111.5 187 CURVE SMOOTH",
"131.338 243.382 OFFCURVE",
"183.796 248 OFFCURVE",
"268 248 CURVE SMOOTH",
"420 248 LINE",
"420 228 LINE SMOOTH",
"420 108 OFFCURVE",
"360.333 42 OFFCURVE",
"255 42 CURVE SMOOTH",
"162 42 LINE SMOOTH"
);
}
);
width = 534;
}
);
unicode = 0061;
},
{
glyphname = b;
lastChange = "2016-07-15 21:22:19 +0000";
layers = (
{
layerId = "C40088C9-C375-45DB-8BB9-703F8F681F6F";
paths = (
{
closed = 1;
nodes = (
"311 0 LINE SMOOTH",
"451 0 OFFCURVE",
"518 35 OFFCURVE",
"518 175 CURVE SMOOTH",
"518 286 LINE SMOOTH",
"518 426 OFFCURVE",
"451 461 OFFCURVE",
"311 461 CURVE SMOOTH",
"282 461 LINE SMOOTH",
"208.667 461 OFFCURVE",
"153.333 437 OFFCURVE",
"116 389 CURVE",
"116 612 LINE SMOOTH",
"116 632.667 OFFCURVE",
"108.333 643 OFFCURVE",
"93 643 CURVE SMOOTH",
"80.333 643 OFFCURVE",
"74 632.667 OFFCURVE",
"74 612 CURVE SMOOTH",
"74 23 LINE SMOOTH",
"74 -17 OFFCURVE",
"116 -17 OFFCURVE",
"116 23 CURVE SMOOTH",
"116 72 LINE",
"153.333 24 OFFCURVE",
"208.667 0 OFFCURVE",
"282 0 CURVE SMOOTH"
);
},
{
closed = 1;
nodes = (
"175.333 42 OFFCURVE",
"116 108 OFFCURVE",
"116 228 CURVE SMOOTH",
"116 232 LINE SMOOTH",
"116 352 OFFCURVE",
"175.333 419 OFFCURVE",
"282 419 CURVE SMOOTH",
"311 419 LINE SMOOTH",
"422.143 419 OFFCURVE",
"476 408.017 OFFCURVE",
"476 286 CURVE SMOOTH",
"476 175 LINE SMOOTH",
"476 52.983 OFFCURVE",
"422.143 42 OFFCURVE",
"311 42 CURVE SMOOTH",
"282 42 LINE SMOOTH"
);
}
);
width = 580;
},
{
layerId = "08BB1446-875F-4786-BB83-45BCD1FA68FA";
paths = (
{
closed = 1;
nodes = (
"135 -7 OFFCURVE",
"147 8 OFFCURVE",
"147 38 CURVE SMOOTH",
"147 50 LINE",
"188.333 16.667 OFFCURVE",
"248.667 0 OFFCURVE",
"328 0 CURVE SMOOTH",
"357 0 LINE SMOOTH",
"535.667 0 OFFCURVE",
"609 38 OFFCURVE",
"609 178 CURVE SMOOTH",
"609 283 LINE SMOOTH",
"609 423 OFFCURVE",
"535.667 461 OFFCURVE",
"357 461 CURVE SMOOTH",
"328 461 LINE SMOOTH",
"248.667 461 OFFCURVE",
"188.333 444.333 OFFCURVE",
"147 411 CURVE",
"147 597 LINE SMOOTH",
"147 627.667 OFFCURVE",
"134.333 643 OFFCURVE",
"109 643 CURVE SMOOTH",
"86.333 643 OFFCURVE",
"75 627.667 OFFCURVE",
"75 597 CURVE SMOOTH",
"75 35 LINE SMOOTH",
"75 7 OFFCURVE",
"87 -7 OFFCURVE",
"111 -7 CURVE SMOOTH"
);
},
{
closed = 1;
nodes = (
"193.333 72 OFFCURVE",
"147 133.333 OFFCURVE",
"147 228 CURVE SMOOTH",
"147 232 LINE SMOOTH",
"147 328 OFFCURVE",
"192 389 OFFCURVE",
"328 389 CURVE SMOOTH",
"357 389 LINE SMOOTH",
"505 389 OFFCURVE",
"537 376 OFFCURVE",
"537 280 CURVE SMOOTH",
"537 181 LINE SMOOTH",
"537 85 OFFCURVE",
"505 72 OFFCURVE",
"357 72 CURVE SMOOTH",
"328 72 LINE SMOOTH"
);
}
);
width = 670;
},
{
layerId = "260E7E84-60BE-47D3-B29C-27583EB1270C";
paths = (
{
closed = 1;
nodes = (
"311 0 LINE SMOOTH",
"451 0 OFFCURVE",
"518 35 OFFCURVE",
"518 175 CURVE SMOOTH",
"518 286 LINE SMOOTH",
"518 426 OFFCURVE",
"451 461 OFFCURVE",
"311 461 CURVE SMOOTH",
"282 461 LINE SMOOTH",
"208.667 461 OFFCURVE",
"153.333 437 OFFCURVE",
"116 389 CURVE",
"116 612 LINE SMOOTH",
"116 632.667 OFFCURVE",
"108.333 643 OFFCURVE",
"93 643 CURVE SMOOTH",
"80.333 643 OFFCURVE",
"74 632.667 OFFCURVE",
"74 612 CURVE SMOOTH",
"74 23 LINE SMOOTH",
"74 -17 OFFCURVE",
"116 -17 OFFCURVE",
"116 23 CURVE SMOOTH",
"116 72 LINE",
"153.333 24 OFFCURVE",
"208.667 0 OFFCURVE",
"282 0 CURVE SMOOTH"
);
},
{
closed = 1;
nodes = (
"175.333 42 OFFCURVE",
"116 108 OFFCURVE",
"116 228 CURVE SMOOTH",
"116 232 LINE SMOOTH",
"116 352 OFFCURVE",
"175.333 419 OFFCURVE",
"282 419 CURVE SMOOTH",
"311 419 LINE SMOOTH",
"422.143 419 OFFCURVE",
"476 408.017 OFFCURVE",
"476 286 CURVE SMOOTH",
"476 175 LINE SMOOTH",
"476 52.983 OFFCURVE",
"422.143 42 OFFCURVE",
"311 42 CURVE SMOOTH",
"282 42 LINE SMOOTH"
);
}
);
width = 580;
}
);
unicode = 0062;
},
{
glyphname = c;
lastChange = "2016-07-15 21:22:19 +0000";
layers = (
{
layerId = "C40088C9-C375-45DB-8BB9-703F8F681F6F";
paths = (
{
closed = 1;
nodes = (
"411 0 LINE SMOOTH",
"495 0 OFFCURVE",
"506 48.667 OFFCURVE",
"506 110 CURVE SMOOTH",
"506 127.333 OFFCURVE",
"499 136.333 OFFCURVE",
"485 137 CURVE",
"471 137 OFFCURVE",
"464 126.167 OFFCURVE",
"464 104.5 CURVE SMOOTH",
"464 82.833 OFFCURVE",
"459.667 67 OFFCURVE",
"451 57 CURVE SMOOTH",
"442.333 47 OFFCURVE",
"426.667 42 OFFCURVE",
"404 42 CURVE SMOOTH",
"270 42 LINE SMOOTH",
"157.186 42 OFFCURVE",
"104 52.983 OFFCURVE",
"104 175 CURVE SMOOTH",
"104 286 LINE SMOOTH",
"104 408.017 OFFCURVE",
"157.186 419 OFFCURVE",
"270 419 CURVE SMOOTH",
"404 419 LINE SMOOTH",
"449.333 419 OFFCURVE",
"464 398.667 OFFCURVE",
"464 356 CURVE SMOOTH",
"464 334.667 OFFCURVE",
"471 324 OFFCURVE",
"485 324 CURVE SMOOTH",
"513 324 OFFCURVE",
"511.333 385 OFFCURVE",
"490 429 CURVE SMOOTH",
"480 450.333 OFFCURVE",
"455 461 OFFCURVE",
"415 461 CURVE",
"413.667 461 OFFCURVE",
"412.333 461 OFFCURVE",
"411 461 CURVE",
"270 461 LINE SMOOTH",
"128.667 461 OFFCURVE",
"62 426 OFFCURVE",
"62 286 CURVE SMOOTH",
"62 175 LINE SMOOTH",
"62 35 OFFCURVE",
"128.667 0 OFFCURVE",
"270 0 CURVE SMOOTH"
);
}
);
width = 564;
},
{
layerId = "08BB1446-875F-4786-BB83-45BCD1FA68FA";
paths = (
{
closed = 1;
nodes = (
"455 0 LINE SMOOTH",
"541.667 0 OFFCURVE",
"565 49.333 OFFCURVE",
"565 116 CURVE SMOOTH",
"565 149.333 OFFCURVE",
"553 166.333 OFFCURVE",
"529 167 CURVE",
"510.333 167 OFFCURVE",
"493 154.667 OFFCURVE",
"493 120 CURVE SMOOTH",
"493 85.333 OFFCURVE",
"484 72 OFFCURVE",
"448 72 CURVE SMOOTH",
"314 72 LINE SMOOTH",
"239.333 72 OFFCURVE",
"190.5 78.167 OFFCURVE",
"167.5 90.5 CURVE SMOOTH",
"144.5 102.833 OFFCURVE",
"133 133 OFFCURVE",
"133 181 CURVE SMOOTH",
"133 280 LINE SMOOTH",
"133 328 OFFCURVE",
"144.5 358.167 OFFCURVE",
"167.5 370.5 CURVE SMOOTH",
"190.5 382.833 OFFCURVE",
"239.333 389 OFFCURVE",
"314 389 CURVE SMOOTH",
"448 389 LINE SMOOTH",
"484 389 OFFCURVE",
"493 374.667 OFFCURVE",
"493 340 CURVE SMOOTH",
"493 305.333 OFFCURVE",
"510.333 294 OFFCURVE",
"529 294 CURVE SMOOTH",
"553 294 OFFCURVE",
"565 310.667 OFFCURVE",
"565 344 CURVE SMOOTH",
"565 377.333 OFFCURVE",
"557.5 405.167 OFFCURVE",
"542.5 427.5 CURVE SMOOTH",
"527.5 449.833 OFFCURVE",
"498.333 461 OFFCURVE",
"455 461 CURVE SMOOTH",
"314 461 LINE SMOOTH",
"134 461 OFFCURVE",
"61 423 OFFCURVE",
"61 283 CURVE SMOOTH",
"61 178 LINE SMOOTH",
"61 38 OFFCURVE",
"134 0 OFFCURVE",
"314 0 CURVE SMOOTH"
);
}
);
width = 624;
},
{
layerId = "260E7E84-60BE-47D3-B29C-27583EB1270C";
paths = (
{
closed = 1;
nodes = (
"411 0 LINE SMOOTH",
"495 0 OFFCURVE",
"506 48.667 OFFCURVE",
"506 110 CURVE SMOOTH",
"506 127.333 OFFCURVE",
"499 136.333 OFFCURVE",
"485 137 CURVE",
"471 137 OFFCURVE",
"464 126.167 OFFCURVE",
"464 104.5 CURVE SMOOTH",
"464 82.833 OFFCURVE",
"459.667 67 OFFCURVE",
"451 57 CURVE SMOOTH",
"442.333 47 OFFCURVE",
"426.667 42 OFFCURVE",
"404 42 CURVE SMOOTH",
"270 42 LINE SMOOTH",
"157.186 42 OFFCURVE",
"104 52.983 OFFCURVE",
"104 175 CURVE SMOOTH",
"104 286 LINE SMOOTH",
"104 408.017 OFFCURVE",
"157.186 419 OFFCURVE",
"270 419 CURVE SMOOTH",
"404 419 LINE SMOOTH",
"449.333 419 OFFCURVE",
"464 398.667 OFFCURVE",
"464 356 CURVE SMOOTH",
"464 334.667 OFFCURVE",
"471 324 OFFCURVE",
"485 324 CURVE SMOOTH",
"513 324 OFFCURVE",
"511.333 385 OFFCURVE",
"490 429 CURVE SMOOTH",
"480 450.333 OFFCURVE",
"455 461 OFFCURVE",
"415 461 CURVE",
"413.667 461 OFFCURVE",
"412.333 461 OFFCURVE",
"411 461 CURVE",
"270 461 LINE SMOOTH",
"128.667 461 OFFCURVE",
"62 426 OFFCURVE",
"62 286 CURVE SMOOTH",
"62 175 LINE SMOOTH",
"62 35 OFFCURVE",
"128.667 0 OFFCURVE",
"270 0 CURVE SMOOTH"
);
}
);
width = 564;
}
);
unicode = 0063;
},
{
glyphname = d;
lastChange = "2016-07-15 21:22:19 +0000";
layers = (
{
layerId = "C40088C9-C375-45DB-8BB9-703F8F681F6F";
paths = (
{
closed = 1;
nodes = (
"299 0 LINE SMOOTH",
"373 0 OFFCURVE",
"428 24 OFFCURVE",
"464 72 CURVE",
"464 23 LINE SMOOTH",
"464 -17 OFFCURVE",
"506 -17 OFFCURVE",
"506 23 CURVE SMOOTH",
"506 612 LINE SMOOTH",
"506 632.667 OFFCURVE",
"499.667 643 OFFCURVE",
"487 643 CURVE SMOOTH",
"471.667 643 OFFCURVE",
"464 632.667 OFFCURVE",
"464 612 CURVE SMOOTH",
"464 461 LINE",
"270 461 LINE SMOOTH",
"128.667 461 OFFCURVE",
"62 426 OFFCURVE",
"62 286 CURVE SMOOTH",
"62 175 LINE SMOOTH",
"62 35 OFFCURVE",
"128.667 0 OFFCURVE",
"270 0 CURVE SMOOTH"
);
},
{
closed = 1;
nodes = (
"157.186 42 OFFCURVE",
"104 52.983 OFFCURVE",
"104 175 CURVE SMOOTH",
"104 286 LINE SMOOTH",
"104 408.017 OFFCURVE",
"157.186 419 OFFCURVE",
"270 419 CURVE SMOOTH",
"464 419 LINE",
"464 228 LINE SMOOTH",
"464 108 OFFCURVE",
"404.333 42 OFFCURVE",
"299 42 CURVE SMOOTH",
"270 42 LINE SMOOTH"
);
}
);
width = 580;
},
{
layerId = "08BB1446-875F-4786-BB83-45BCD1FA68FA";
paths = (
{
closed = 1;
nodes = (
"583 -7 OFFCURVE",
"595 7 OFFCURVE",
"595 35 CURVE SMOOTH",
"595 598 LINE SMOOTH",
"595 628 OFFCURVE",
"583.667 643 OFFCURVE",
"561 643 CURVE SMOOTH",
"535.667 643 OFFCURVE",
"523 628 OFFCURVE",
"523 598 CURVE SMOOTH",
"523 461 LINE",
"305 461 LINE SMOOTH",
"134.333 461 OFFCURVE",
"61 423 OFFCURVE",
"61 283 CURVE SMOOTH",
"61 178 LINE SMOOTH",
"61 38 OFFCURVE",
"134.333 0 OFFCURVE",
"313 0 CURVE SMOOTH",
"342 0 LINE SMOOTH",
"421.333 0 OFFCURVE",
"481.667 16.667 OFFCURVE",
"523 50 CURVE",
"523 38 LINE SMOOTH",
"523 8 OFFCURVE",
"535 -7 OFFCURVE",
"559 -7 CURVE SMOOTH"
);
},
{
closed = 1;
nodes = (
"165 72 OFFCURVE",
"133 85 OFFCURVE",
"133 181 CURVE SMOOTH",
"133 280 LINE SMOOTH",
"133 376 OFFCURVE",
"165 389 OFFCURVE",
"305 389 CURVE SMOOTH",
"523 389 LINE",
"523 229 LINE SMOOTH",
"523 133 OFFCURVE",
"478 72 OFFCURVE",
"342 72 CURVE SMOOTH",
"313 72 LINE SMOOTH"
);
}
);
width = 670;
},
{
layerId = "260E7E84-60BE-47D3-B29C-27583EB1270C";
paths = (
{
closed = 1;
nodes = (
"299 0 LINE SMOOTH",
"373 0 OFFCURVE",
"428 24 OFFCURVE",
"464 72 CURVE",
"464 23 LINE SMOOTH",
"464 -17 OFFCURVE",
"506 -17 OFFCURVE",
"506 23 CURVE SMOOTH",
"506 612 LINE SMOOTH",
"506 632.667 OFFCURVE",
"499.667 643 OFFCURVE",
"487 643 CURVE SMOOTH",
"471.667 643 OFFCURVE",
"464 632.667 OFFCURVE",
"464 612 CURVE SMOOTH",
"464 461 LINE",
"270 461 LINE SMOOTH",
"128.667 461 OFFCURVE",
"62 426 OFFCURVE",
"62 286 CURVE SMOOTH",
"62 175 LINE SMOOTH",
"62 35 OFFCURVE",
"128.667 0 OFFCURVE",
"270 0 CURVE SMOOTH"
);
},
{
closed = 1;
nodes = (
"157.186 42 OFFCURVE",
"104 52.983 OFFCURVE",
"104 175 CURVE SMOOTH",
"104 286 LINE SMOOTH",
"104 408.017 OFFCURVE",
"157.186 419 OFFCURVE",
"270 419 CURVE SMOOTH",
"464 419 LINE",
"464 228 LINE SMOOTH",
"464 108 OFFCURVE",
"404.333 42 OFFCURVE",
"299 42 CURVE SMOOTH",
"270 42 LINE SMOOTH"
);
}
);
width = 580;
}
);
unicode = 0064;
},
{
glyphname = e;
lastChange = "2016-07-15 21:22:19 +0000";
layers = (
{
layerId = "C40088C9-C375-45DB-8BB9-703F8F681F6F";
paths = (
{
closed = 1;
nodes = (
"411 0 LINE SMOOTH",
"495 0 OFFCURVE",
"506 48.667 OFFCURVE",
"506 110 CURVE SMOOTH",
"506 127.333 OFFCURVE",
"499 136.333 OFFCURVE",
"485 137 CURVE",
"471 137 OFFCURVE",
"464 126.167 OFFCURVE",
"464 104.5 CURVE SMOOTH",
"464 82.833 OFFCURVE",
"459.667 67 OFFCURVE",
"451 57 CURVE SMOOTH",
"442.333 47 OFFCURVE",
"426.667 42 OFFCURVE",
"404 42 CURVE SMOOTH",
"270 42 LINE SMOOTH",
"157.186 42 OFFCURVE",
"104 52.983 OFFCURVE",
"104 175 CURVE SMOOTH",
"104 250 LINE",
"506 250 LINE",
"506 286 LINE SMOOTH",
"506 426 OFFCURVE",
"439 461 OFFCURVE",
"299 461 CURVE SMOOTH",
"270 461 LINE SMOOTH",
"128.667 461 OFFCURVE",
"62 426 OFFCURVE",
"62 286 CURVE SMOOTH",
"62 175 LINE SMOOTH",
"62 35 OFFCURVE",
"128.667 0 OFFCURVE",
"270 0 CURVE SMOOTH"
);
},
{
closed = 1;
nodes = (
"104 400 OFFCURVE",
"147.333 419 OFFCURVE",
"270 419 CURVE SMOOTH",
"299 419 LINE SMOOTH",
"420.333 419 OFFCURVE",
"464 400 OFFCURVE",
"464 292 CURVE",
"104 292 LINE"
);
}
);
width = 566;
},
{
layerId = "08BB1446-875F-4786-BB83-45BCD1FA68FA";
paths = (
{
closed = 1;
nodes = (
"475 0 LINE SMOOTH",
"561.667 0 OFFCURVE",
"585 49.333 OFFCURVE",
"585 116 CURVE SMOOTH",
"585 149.333 OFFCURVE",
"573 166.333 OFFCURVE",
"549 167 CURVE",
"530.333 167 OFFCURVE",
"513 154.667 OFFCURVE",
"513 120 CURVE SMOOTH",
"513 85.333 OFFCURVE",
"504 72 OFFCURVE",
"468 72 CURVE SMOOTH",
"314 72 LINE SMOOTH",
"239.333 72 OFFCURVE",
"190.5 78.167 OFFCURVE",
"167.5 90.5 CURVE SMOOTH",
"144.5 102.833 OFFCURVE",
"133 133 OFFCURVE",
"133 181 CURVE SMOOTH",
"133 235 LINE",
"595 235 LINE",
"595 283 LINE SMOOTH",
"595 423 OFFCURVE",
"521.667 461 OFFCURVE",
"343 461 CURVE SMOOTH",
"314 461 LINE SMOOTH",
"134 461 OFFCURVE",
"61 423 OFFCURVE",
"61 283 CURVE SMOOTH",
"61 178 LINE SMOOTH",
"61 38 OFFCURVE",
"134 0 OFFCURVE",
"314 0 CURVE SMOOTH"
);
},
{
closed = 1;
nodes = (
"137 376.333 OFFCURVE",
"170 389 OFFCURVE",
"314 389 CURVE SMOOTH",
"343 389 LINE SMOOTH",
"481.667 389 OFFCURVE",
"517.667 377.667 OFFCURVE",
"523 307 CURVE",
"133 307 LINE"
);
}
);
width = 651;
},
{
layerId = "260E7E84-60BE-47D3-B29C-27583EB1270C";
paths = (
{
closed = 1;
nodes = (
"411 0 LINE SMOOTH",
"495 0 OFFCURVE",
"506 48.667 OFFCURVE",
"506 110 CURVE SMOOTH",
"506 127.333 OFFCURVE",
"499 136.333 OFFCURVE",
"485 137 CURVE",
"471 137 OFFCURVE",
"464 126.167 OFFCURVE",
"464 104.5 CURVE SMOOTH",
"464 82.833 OFFCURVE",
"459.667 67 OFFCURVE",
"451 57 CURVE SMOOTH",
"442.333 47 OFFCURVE",
"426.667 42 OFFCURVE",
"404 42 CURVE SMOOTH",
"270 42 LINE SMOOTH",
"157.186 42 OFFCURVE",
"104 52.983 OFFCURVE",
"104 175 CURVE SMOOTH",
"104 250 LINE",
"506 250 LINE",
"506 286 LINE SMOOTH",
"506 426 OFFCURVE",
"439 461 OFFCURVE",
"299 461 CURVE SMOOTH",
"270 461 LINE SMOOTH",
"128.667 461 OFFCURVE",
"62 426 OFFCURVE",
"62 286 CURVE SMOOTH",
"62 175 LINE SMOOTH",
"62 35 OFFCURVE",
"128.667 0 OFFCURVE",
"270 0 CURVE SMOOTH"
);
},
{
closed = 1;
nodes = (
"104 400 OFFCURVE",
"147.333 419 OFFCURVE",
"270 419 CURVE SMOOTH",
"299 419 LINE SMOOTH",
"420.333 419 OFFCURVE",
"464 400 OFFCURVE",
"464 292 CURVE",
"104 292 LINE"
);
}
);
width = 566;
}
);
unicode = 0065;
},
{
glyphname = f;
lastChange = "2016-07-15 21:22:19 +0000";
layers = (
{
layerId = "C40088C9-C375-45DB-8BB9-703F8F681F6F";
paths = (
{
closed = 1;
nodes = (
"113.333 -7 OFFCURVE",
"121 3.333 OFFCURVE",
"121 24 CURVE SMOOTH",
"121 419 LINE",
"264 419 LINE SMOOTH",
"284.667 419 OFFCURVE",
"295 425.333 OFFCURVE",
"295 438 CURVE SMOOTH",
"295 453.333 OFFCURVE",
"284.667 461 OFFCURVE",
"264 461 CURVE SMOOTH",
"121 461 LINE",
"121 583.017 OFFCURVE",
"174.186 594 OFFCURVE",
"287 594 CURVE SMOOTH",
"307.667 594 OFFCURVE",
"318 600.333 OFFCURVE",
"318 613 CURVE SMOOTH",
"318 628.333 OFFCURVE",
"307.667 636 OFFCURVE",
"287 636 CURVE SMOOTH",
"217.667 636 OFFCURVE",
"177 630 OFFCURVE",
"137 606 CURVE SMOOTH",
"98.333 582.667 OFFCURVE",
"79 534.333 OFFCURVE",
"79 461 CURVE",
"37.667 461 OFFCURVE",
"37.667 419 OFFCURVE",
"79 419 CURVE",
"79 24 LINE SMOOTH",
"79 3.333 OFFCURVE",
"85.333 -7 OFFCURVE",
"98 -7 CURVE SMOOTH"
);
}
);
width = 313;
},
{
layerId = "08BB1446-875F-4786-BB83-45BCD1FA68FA";
paths = (
{
closed = 1;
nodes = (
"139.333 -7 OFFCURVE",
"152 7.333 OFFCURVE",
"152 36 CURVE SMOOTH",
"152 389 LINE",
"280 389 LINE SMOOTH",
"310.667 389 OFFCURVE",
"326 400.333 OFFCURVE",
"326 423 CURVE SMOOTH",
"326 448.333 OFFCURVE",
"310.667 461 OFFCURVE",
"280 461 CURVE SMOOTH",
"152 461 LINE",
"154.667 550.333 OFFCURVE",
"189.667 564 OFFCURVE",
"303 564 CURVE SMOOTH",
"333.667 564 OFFCURVE",
"349 575.333 OFFCURVE",
"349 598 CURVE SMOOTH",
"349 623.333 OFFCURVE",
"333.667 636 OFFCURVE",
"303 636 CURVE SMOOTH",
"157.667 636 OFFCURVE",
"85.333 598.667 OFFCURVE",
"80 460 CURVE",
"38.667 454.667 OFFCURVE",
"38.667 402 OFFCURVE",
"80 394 CURVE",
"80 36 LINE SMOOTH",
"80 7.333 OFFCURVE",
"91.333 -7 OFFCURVE",
"114 -7 CURVE SMOOTH"
);
}
);
width = 345;
},
{
layerId = "260E7E84-60BE-47D3-B29C-27583EB1270C";
paths = (
{
closed = 1;
nodes = (
"113.333 -7 OFFCURVE",
"121 3.333 OFFCURVE",
"121 24 CURVE SMOOTH",
"121 419 LINE",
"264 419 LINE SMOOTH",
"284.667 419 OFFCURVE",
"295 425.333 OFFCURVE",
"295 438 CURVE SMOOTH",
"295 453.333 OFFCURVE",
"284.667 461 OFFCURVE",
"264 461 CURVE SMOOTH",
"121 461 LINE",
"121 583.017 OFFCURVE",
"174.186 594 OFFCURVE",
"287 594 CURVE SMOOTH",
"307.667 594 OFFCURVE",
"318 600.333 OFFCURVE",
"318 613 CURVE SMOOTH",
"318 628.333 OFFCURVE",
"307.667 636 OFFCURVE",
"287 636 CURVE SMOOTH",
"217.667 636 OFFCURVE",
"177 630 OFFCURVE",
"137 606 CURVE SMOOTH",
"98.333 582.667 OFFCURVE",
"79 534.333 OFFCURVE",
"79 461 CURVE",
"37.667 461 OFFCURVE",
"37.667 419 OFFCURVE",
"79 419 CURVE",
"79 24 LINE SMOOTH",
"79 3.333 OFFCURVE",
"85.333 -7 OFFCURVE",
"98 -7 CURVE SMOOTH"
);
}
);
width = 313;
}
);
unicode = 0066;
},
{
glyphname = g;
lastChange = "2016-07-15 21:22:19 +0000";
layers = (
{
layerId = "C40088C9-C375-45DB-8BB9-703F8F681F6F";
paths = (
{
closed = 1;
nodes = (
"154.333 -205 OFFCURVE",
"155.667 -205 OFFCURVE",
"157 -205 CURVE",
"420 -205 LINE SMOOTH",
"486.667 -205 OFFCURVE",
"506 -177.333 OFFCURVE",
"506 -92 CURVE SMOOTH",
"506 438 LINE SMOOTH",
"506 478 OFFCURVE",
"464 478 OFFCURVE",
"464 438 CURVE SMOOTH",
"464 389 LINE",
"428 437 OFFCURVE",
"373 461 OFFCURVE",
"299 461 CURVE SMOOTH",
"270 461 LINE SMOOTH",
"128.667 461 OFFCURVE",
"62 426 OFFCURVE",
"62 286 CURVE SMOOTH",
"62 175 LINE SMOOTH",
"62 35 OFFCURVE",
"128.667 0 OFFCURVE",
"270 0 CURVE SMOOTH",
"411 0 LINE SMOOTH",
"433.667 0 OFFCURVE",
"451.333 3 OFFCURVE",
"464 9 CURVE",
"464 -108 LINE SMOOTH",
"464 -150.667 OFFCURVE",
"454.333 -163 OFFCURVE",
"413 -163 CURVE SMOOTH",
"164 -163 LINE SMOOTH",
"118.667 -163 OFFCURVE",
"104 -142.667 OFFCURVE",
"104 -100 CURVE SMOOTH",
"104 -78.667 OFFCURVE",
"97 -68 OFFCURVE",
"83 -68 CURVE SMOOTH",
"55 -68 OFFCURVE",
"56.667 -129 OFFCURVE",
"78 -173 CURVE SMOOTH",
"88 -194.333 OFFCURVE",
"113 -205 OFFCURVE",
"153 -205 CURVE"
);
},
{
closed = 1;
nodes = (
"157.186 42 OFFCURVE",
"104 52.983 OFFCURVE",
"104 175 CURVE SMOOTH",
"104 286 LINE SMOOTH",
"104 408.017 OFFCURVE",
"157.186 419 OFFCURVE",
"270 419 CURVE SMOOTH",
"299 419 LINE SMOOTH",
"404.333 419 OFFCURVE",
"464 352 OFFCURVE",
"464 232 CURVE SMOOTH",
"464 106 LINE SMOOTH",
"464 59.333 OFFCURVE",
"449.333 42 OFFCURVE",
"404 42 CURVE SMOOTH",
"270 42 LINE SMOOTH"
);
}
);
width = 581;
},
{
layerId = "08BB1446-875F-4786-BB83-45BCD1FA68FA";
paths = (
{
closed = 1;
nodes = (
"494 -205 LINE SMOOTH",
"571.333 -205 OFFCURVE",
"595 -169 OFFCURVE",
"595 -77 CURVE SMOOTH",
"595 426 LINE SMOOTH",
"595 454 OFFCURVE",
"583 468 OFFCURVE",
"559 468 CURVE SMOOTH",
"535 468 OFFCURVE",
"523 453 OFFCURVE",
"523 423 CURVE SMOOTH",
"523 411 LINE",
"481.667 444.333 OFFCURVE",
"421.333 461 OFFCURVE",
"342 461 CURVE SMOOTH",
"313 461 LINE SMOOTH",
"134.333 461 OFFCURVE",
"61 423 OFFCURVE",
"61 283 CURVE SMOOTH",
"61 178 LINE SMOOTH",
"61 38 OFFCURVE",
"135 0 OFFCURVE",
"311 0 CURVE SMOOTH",
"523 0 LINE",
"523 -93 LINE SMOOTH",
"523 -126.333 OFFCURVE",
"517.667 -133 OFFCURVE",
"487 -133 CURVE SMOOTH",
"178 -133 LINE SMOOTH",
"142 -133 OFFCURVE",
"133 -121 OFFCURVE",
"133 -81 CURVE SMOOTH",
"133 -52.333 OFFCURVE",
"121 -38 OFFCURVE",
"97 -38 CURVE SMOOTH",
"73 -38 OFFCURVE",
"61 -54.667 OFFCURVE",
"61 -88 CURVE SMOOTH",
"61 -154.667 OFFCURVE",
"84.333 -205 OFFCURVE",
"171 -205 CURVE SMOOTH"
);
},
{
closed = 1;
nodes = (
"165.667 72 OFFCURVE",
"133 85 OFFCURVE",
"133 181 CURVE SMOOTH",
"133 280 LINE SMOOTH",
"133 376 OFFCURVE",
"165 389 OFFCURVE",
"313 389 CURVE SMOOTH",
"342 389 LINE SMOOTH",
"476.667 389 OFFCURVE",
"523 327.667 OFFCURVE",
"523 233 CURVE SMOOTH",
"523 72 LINE",
"311 72 LINE SMOOTH"
);
}
);
width = 670;
},
{
layerId = "260E7E84-60BE-47D3-B29C-27583EB1270C";
paths = (
{
closed = 1;
nodes = (
"154.333 -205 OFFCURVE",
"155.667 -205 OFFCURVE",
"157 -205 CURVE",
"420 -205 LINE SMOOTH",
"486.667 -205 OFFCURVE",
"506 -177.333 OFFCURVE",
"506 -92 CURVE SMOOTH",
"506 438 LINE SMOOTH",
"506 478 OFFCURVE",
"464 478 OFFCURVE",
"464 438 CURVE SMOOTH",
"464 389 LINE",
"428 437 OFFCURVE",
"373 461 OFFCURVE",
"299 461 CURVE SMOOTH",
"270 461 LINE SMOOTH",
"128.667 461 OFFCURVE",
"62 426 OFFCURVE",
"62 286 CURVE SMOOTH",
"62 175 LINE SMOOTH",
"62 35 OFFCURVE",
"128.667 0 OFFCURVE",
"270 0 CURVE SMOOTH",
"411 0 LINE SMOOTH",
"433.667 0 OFFCURVE",
"451.333 3 OFFCURVE",
"464 9 CURVE",
"464 -108 LINE SMOOTH",
"464 -150.667 OFFCURVE",
"454.333 -163 OFFCURVE",
"413 -163 CURVE SMOOTH",
"164 -163 LINE SMOOTH",
"118.667 -163 OFFCURVE",
"104 -142.667 OFFCURVE",
"104 -100 CURVE SMOOTH",
"104 -78.667 OFFCURVE",
"97 -68 OFFCURVE",
"83 -68 CURVE SMOOTH",
"55 -68 OFFCURVE",
"56.667 -129 OFFCURVE",
"78 -173 CURVE SMOOTH",
"88 -194.333 OFFCURVE",
"113 -205 OFFCURVE",
"153 -205 CURVE"
);
},
{
closed = 1;
nodes = (
"157.186 42 OFFCURVE",
"104 52.983 OFFCURVE",
"104 175 CURVE SMOOTH",
"104 286 LINE SMOOTH",
"104 408.017 OFFCURVE",
"157.186 419 OFFCURVE",
"270 419 CURVE SMOOTH",
"299 419 LINE SMOOTH",
"404.333 419 OFFCURVE",
"464 352 OFFCURVE",
"464 232 CURVE SMOOTH",
"464 106 LINE SMOOTH",
"464 59.333 OFFCURVE",
"449.333 42 OFFCURVE",
"404 42 CURVE SMOOTH",
"270 42 LINE SMOOTH"
);
}
);
width = 581;
}
);
unicode = 0067;
},
{
glyphname = h;
lastChange = "2016-07-15 21:22:19 +0000";
layers = (
{
layerId = "C40088C9-C375-45DB-8BB9-703F8F681F6F";
paths = (
{
closed = 1;
nodes = (
"74 -17 OFFCURVE",
"116 -17 OFFCURVE",
"116 23 CURVE SMOOTH",
"116 232 LINE SMOOTH",
"116 352 OFFCURVE",
"175.333 419 OFFCURVE",
"282 419 CURVE SMOOTH",
"311 419 LINE SMOOTH",
"422.143 419 OFFCURVE",
"476 408.017 OFFCURVE",
"476 286 CURVE SMOOTH",
"476 23 LINE SMOOTH",
"476 -17 OFFCURVE",
"518 -17 OFFCURVE",
"518 23 CURVE SMOOTH",
"518 286 LINE SMOOTH",
"518 426 OFFCURVE",
"451 461 OFFCURVE",
"311 461 CURVE SMOOTH",
"282 461 LINE SMOOTH",
"208.667 461 OFFCURVE",
"153.333 437 OFFCURVE",
"116 389 CURVE",
"116 612 LINE SMOOTH",
"116 632.667 OFFCURVE",
"108.333 643 OFFCURVE",
"93 643 CURVE SMOOTH",
"80.333 643 OFFCURVE",
"74 632.667 OFFCURVE",
"74 612 CURVE SMOOTH",
"74 23 LINE SMOOTH"
);
}
);
width = 588;
},
{
layerId = "08BB1446-875F-4786-BB83-45BCD1FA68FA";
paths = (
{
closed = 1;
nodes = (
"135 -7 OFFCURVE",
"147 7 OFFCURVE",
"147 35 CURVE SMOOTH",
"147 229 LINE SMOOTH",
"147 326.333 OFFCURVE",
"193.333 389 OFFCURVE",
"328 389 CURVE SMOOTH",
"357 389 LINE SMOOTH",
"505 389 OFFCURVE",
"537 376 OFFCURVE",
"537 280 CURVE SMOOTH",
"537 35 LINE SMOOTH",
"537 7 OFFCURVE",
"549 -7 OFFCURVE",
"573 -7 CURVE SMOOTH",
"597 -7 OFFCURVE",
"609 7 OFFCURVE",
"609 35 CURVE SMOOTH",
"609 283 LINE SMOOTH",
"609 423 OFFCURVE",
"535.667 461 OFFCURVE",
"357 461 CURVE SMOOTH",
"328 461 LINE SMOOTH",
"248.667 461 OFFCURVE",
"188.333 444.333 OFFCURVE",
"147 411 CURVE",
"147 597 LINE SMOOTH",
"147 627.667 OFFCURVE",
"134.333 643 OFFCURVE",
"109 643 CURVE SMOOTH",
"86.333 643 OFFCURVE",
"75 627.667 OFFCURVE",
"75 597 CURVE SMOOTH",
"75 35 LINE SMOOTH",
"75 7 OFFCURVE",
"87 -7 OFFCURVE",
"111 -7 CURVE SMOOTH"
);
}
);
width = 679;
},
{
layerId = "260E7E84-60BE-47D3-B29C-27583EB1270C";
paths = (
{
closed = 1;
nodes = (
"74 -17 OFFCURVE",
"116 -17 OFFCURVE",
"116 23 CURVE SMOOTH",
"116 232 LINE SMOOTH",
"116 352 OFFCURVE",
"175.333 419 OFFCURVE",
"282 419 CURVE SMOOTH",
"311 419 LINE SMOOTH",
"422.143 419 OFFCURVE",
"476 408.017 OFFCURVE",
"476 286 CURVE SMOOTH",
"476 23 LINE SMOOTH",
"476 -17 OFFCURVE",
"518 -17 OFFCURVE",
"518 23 CURVE SMOOTH",
"518 286 LINE SMOOTH",
"518 426 OFFCURVE",
"451 461 OFFCURVE",
"311 461 CURVE SMOOTH",
"282 461 LINE SMOOTH",
"208.667 461 OFFCURVE",
"153.333 437 OFFCURVE",
"116 389 CURVE",
"116 612 LINE SMOOTH",
"116 632.667 OFFCURVE",
"108.333 643 OFFCURVE",
"93 643 CURVE SMOOTH",
"80.333 643 OFFCURVE",
"74 632.667 OFFCURVE",
"74 612 CURVE SMOOTH",
"74 23 LINE SMOOTH"
);
}
);
width = 588;
}
);
unicode = 0068;
},
{
glyphname = i;
lastChange = "2016-07-15 21:22:19 +0000";
layers = (
{
layerId = "C40088C9-C375-45DB-8BB9-703F8F681F6F";
paths = (
{
closed = 1;
nodes = (
"74 -16 OFFCURVE",
"116 -16 OFFCURVE",
"116 20 CURVE SMOOTH",
"116 440 LINE SMOOTH",
"116 477.333 OFFCURVE",
"74 477.333 OFFCURVE",
"74 440 CURVE SMOOTH",
"74 20 LINE SMOOTH"
);
},
{
closed = 1;
nodes = (
"49 554.882 OFFCURVE",
"141 554.882 OFFCURVE",
"141 601 CURVE SMOOTH",
"141 647.653 OFFCURVE",
"52.244 646.419 OFFCURVE",
"49 601 CURVE"
);
}
);
width = 190;
},
{
layerId = "08BB1446-875F-4786-BB83-45BCD1FA68FA";
paths = (
{
closed = 1;
nodes = (
"132.667 -22 OFFCURVE",
"145 -8 OFFCURVE",
"145 20 CURVE SMOOTH",
"145 440 LINE SMOOTH",
"145 498.039 OFFCURVE",
"73 498.039 OFFCURVE",
"73 440 CURVE SMOOTH",
"73 20 LINE SMOOTH",
"73 -10.667 OFFCURVE",
"89.333 -22 OFFCURVE",
"108 -22 CURVE SMOOTH"
);
},
{
closed = 1;
nodes = (
"213.931 609.958 OFFCURVE",
"111.931 685.846 OFFCURVE",
"67.5 637.5 CURVE",
"5.944 592.042 OFFCURVE",
"104.389 516.154 OFFCURVE",
"149.5 564.5 CURVE"
);
}
);
width = 218;
},
{
layerId = "260E7E84-60BE-47D3-B29C-27583EB1270C";
paths = (
{
closed = 1;
nodes = (
"74 -16 OFFCURVE",
"116 -16 OFFCURVE",
"116 20 CURVE SMOOTH",
"116 440 LINE SMOOTH",
"116 477.333 OFFCURVE",
"74 477.333 OFFCURVE",
"74 440 CURVE SMOOTH",
"74 20 LINE SMOOTH"
);
},
{
closed = 1;
nodes = (
"49 554.882 OFFCURVE",
"141 554.882 OFFCURVE",
"141 601 CURVE SMOOTH",
"141 647.653 OFFCURVE",
"52.244 646.419 OFFCURVE",
"49 601 CURVE"
);
}
);
width = 190;
}
);
unicode = 0069;
},
{
glyphname = j;
lastChange = "2016-07-15 21:22:19 +0000";
layers = (
{
layerId = "C40088C9-C375-45DB-8BB9-703F8F681F6F";
paths = (
{
closed = 1;
nodes = (
"-21.667 -175 OFFCURVE",
"19 -170 OFFCURVE",
"59 -146 CURVE SMOOTH",
"97.667 -123.333 OFFCURVE",
"117 -74.667 OFFCURVE",
"117 0 CURVE SMOOTH",
"117 437 LINE SMOOTH",
"117 478.333 OFFCURVE",
"75 478.333 OFFCURVE",
"75 437 CURVE SMOOTH",
"75 0 LINE SMOOTH",
"75 -122.017 OFFCURVE",
"21.814 -133 OFFCURVE",
"-91 -133 CURVE SMOOTH",
"-132.333 -133 OFFCURVE",
"-132.333 -175 OFFCURVE",
"-91 -175 CURVE SMOOTH"
);
},
{
closed = 1;
nodes = (
"100.719 540.484 OFFCURVE",
"173.663 596.261 OFFCURVE",
"127 626 CURVE",
"93.559 661.516 OFFCURVE",
"17.059 605.739 OFFCURVE",
"65.5 576 CURVE"
);
}
);
width = 192;
},
{
layerId = "08BB1446-875F-4786-BB83-45BCD1FA68FA";
paths = (
{
closed = 1;
nodes = (
"76 -175 OFFCURVE",
"147 -140 OFFCURVE",
"147 0 CURVE SMOOTH",
"147 422 LINE SMOOTH",
"147 452.667 OFFCURVE",
"135 468 OFFCURVE",
"111 468 CURVE SMOOTH",
"87 468 OFFCURVE",
"75 452.667 OFFCURVE",
"75 422 CURVE SMOOTH",
"75 0 LINE SMOOTH",
"75 -89.333 OFFCURVE",
"44 -103 OFFCURVE",
"-76 -103 CURVE SMOOTH",
"-106.667 -103 OFFCURVE",
"-122 -115 OFFCURVE",
"-122 -139 CURVE SMOOTH",
"-122 -163 OFFCURVE",
"-106.667 -175 OFFCURVE",
"-76 -175 CURVE SMOOTH"
);
},
{
closed = 1;
nodes = (
"215.931 609.958 OFFCURVE",
"113.931 685.846 OFFCURVE",
"69.5 637.5 CURVE",
"7.944 592.042 OFFCURVE",
"106.389 516.154 OFFCURVE",
"151.5 564.5 CURVE"
);
}
);
width = 222;
},
{
layerId = "260E7E84-60BE-47D3-B29C-27583EB1270C";
paths = (
{
closed = 1;
nodes = (
"-21.667 -175 OFFCURVE",
"19 -170 OFFCURVE",
"59 -146 CURVE SMOOTH",
"97.667 -123.333 OFFCURVE",
"117 -74.667 OFFCURVE",
"117 0 CURVE SMOOTH",
"117 437 LINE SMOOTH",
"117 478.333 OFFCURVE",
"75 478.333 OFFCURVE",
"75 437 CURVE SMOOTH",
"75 0 LINE SMOOTH",
"75 -122.017 OFFCURVE",
"21.814 -133 OFFCURVE",
"-91 -133 CURVE SMOOTH",
"-132.333 -133 OFFCURVE",
"-132.333 -175 OFFCURVE",
"-91 -175 CURVE SMOOTH"
);
},
{
closed = 1;
nodes = (
"100.719 540.484 OFFCURVE",
"173.663 596.261 OFFCURVE",
"127 626 CURVE",
"93.559 661.516 OFFCURVE",
"17.059 605.739 OFFCURVE",
"65.5 576 CURVE"
);
}
);
width = 192;
}
);
unicode = 006A;
},
{
glyphname = k;
lastChange = "2016-07-15 21:22:19 +0000";
layers = (
{
layerId = "C40088C9-C375-45DB-8BB9-703F8F681F6F";
paths = (
{
closed = 1;
nodes = (
"409.131 -23.131 OFFCURVE",
"435.575 10.425 OFFCURVE",
"411 35 CURVE SMOOTH",
"179 266 LINE",
"338 425 LINE SMOOTH",
"365.021 452.021 OFFCURVE",
"337.318 479.808 OFFCURVE",
"308 455 CURVE",
"116 262 LINE",
"116 615 LINE SMOOTH",
"116 652.333 OFFCURVE",
"74 652.333 OFFCURVE",
"74 615 CURVE SMOOTH",
"74 20 LINE SMOOTH",
"74 -16 OFFCURVE",
"116 -16 OFFCURVE",
"116 20 CURVE SMOOTH",
"116 203 LINE",
"150 237 LINE",
"381 5 LINE SMOOTH"
);
}
);
width = 433;
},
{
layerId = "08BB1446-875F-4786-BB83-45BCD1FA68FA";
paths = (
{
closed = 1;
nodes = (
"135 -7 OFFCURVE",
"147 7 OFFCURVE",
"147 35 CURVE SMOOTH",
"147 212 LINE",
"166 231 LINE",
"417 8 LINE",
"457.451 -34.281 OFFCURVE",
"506.451 26.497 OFFCURVE",
"468 57 CURVE",
"219 263 LINE",
"394 403 LINE SMOOTH",
"437.575 437.19 OFFCURVE",
"381.464 492.634 OFFCURVE",
"343 452 CURVE",
"147 282 LINE",
"147 600 LINE SMOOTH",
"147 658.039 OFFCURVE",
"75 658.039 OFFCURVE",
"75 600 CURVE SMOOTH",
"75 32 LINE SMOOTH",
"75 6 OFFCURVE",
"87 -7 OFFCURVE",
"111 -7 CURVE SMOOTH"
);
}
);
width = 496;
},
{
layerId = "260E7E84-60BE-47D3-B29C-27583EB1270C";
paths = (
{
closed = 1;
nodes = (
"409.131 -23.131 OFFCURVE",
"435.575 10.425 OFFCURVE",
"411 35 CURVE SMOOTH",
"179 266 LINE",
"338 425 LINE SMOOTH",
"365.021 452.021 OFFCURVE",
"337.318 479.808 OFFCURVE",
"308 455 CURVE",
"116 262 LINE",
"116 615 LINE SMOOTH",
"116 652.333 OFFCURVE",
"74 652.333 OFFCURVE",
"74 615 CURVE SMOOTH",
"74 20 LINE SMOOTH",
"74 -16 OFFCURVE",
"116 -16 OFFCURVE",
"116 20 CURVE SMOOTH",
"116 203 LINE",
"150 237 LINE",
"381 5 LINE SMOOTH"
);
}
);
width = 433;
}
);
unicode = 006B;
},
